<svg width="17" height="15" viewBox="0 0 17 15" fill="none" xmlns="http://www.w3.org/2000/svg">
<path d="M4.76 14V-9.53674e-07H0.34V1.52H3.18V14H4.76ZM9.42188 6.14C8.86188 6.14 8.44188 6.58 8.44188 7.18C8.44188 7.78 8.86188 8.22 9.42188 8.22C9.96188 8.22 10.3819 7.78 10.3819 7.18C10.3819 6.58 9.96188 6.14 9.42188 6.14ZM9.42188 12.08C8.86188 12.08 8.44188 12.52 8.44188 13.12C8.44188 13.72 8.86188 14.16 9.42188 14.16C9.96188 14.16 10.3819 13.72 10.3819 13.12C10.3819 12.52 9.96188 12.08 9.42188 12.08ZM16.1077 14V-9.53674e-07H11.6877V1.52H14.5277V14H16.1077Z" fill="white"/>
</svg>
