<svg width="27" height="27" viewBox="0 0 27 27" fill="none" xmlns="http://www.w3.org/2000/svg">
<path d="M21.7293 8.20781C23.5365 8.20781 25.0015 6.72545 25.0015 4.89687C25.0015 3.06829 23.5365 1.58594 21.7293 1.58594C19.9221 1.58594 18.457 3.06829 18.457 4.89687C18.457 6.72545 19.9221 8.20781 21.7293 8.20781Z" stroke="white" stroke-width="2" stroke-miterlimit="10" stroke-linecap="round" stroke-linejoin="round"/>
<path d="M21.7293 25.8719C23.5365 25.8719 25.0015 24.3895 25.0015 22.5609C25.0015 20.7324 23.5365 19.25 21.7293 19.25C19.9221 19.25 18.457 20.7324 18.457 22.5609C18.457 24.3895 19.9221 25.8719 21.7293 25.8719Z" stroke="white" stroke-width="2" stroke-miterlimit="10" stroke-linecap="round" stroke-linejoin="round"/>
<path d="M4.27224 17.034C6.07945 17.034 7.54448 15.5516 7.54448 13.723C7.54448 11.8945 6.07945 10.4121 4.27224 10.4121C2.46503 10.4121 1 11.8945 1 13.723C1 15.5516 2.46503 17.034 4.27224 17.034Z" stroke="white" stroke-width="2" stroke-miterlimit="10" stroke-linecap="round" stroke-linejoin="round"/>
<path d="M18.7768 6.33008L7.21484 12.2898" stroke="white" stroke-width="2" stroke-miterlimit="10" stroke-linecap="round" stroke-linejoin="round"/>
<path d="M7.21484 15.1602L18.7768 21.1198" stroke="white" stroke-width="2" stroke-miterlimit="10" stroke-linecap="round" stroke-linejoin="round"/>
</svg>
