<svg width="26" height="25" viewBox="0 0 26 25" fill="none" xmlns="http://www.w3.org/2000/svg">
<path d="M23.4374 3.41699V3.41701C24.4307 4.57053 25 6.14601 25 7.87032C25 10.1778 23.8239 12.4053 21.6129 14.9383C19.6922 17.1387 17.1045 19.4464 14.0833 22.1406C13.7281 22.4574 13.3668 22.7796 13 23.1075C12.6269 22.774 12.2596 22.4465 11.8985 22.1245C8.8918 19.4436 6.31143 17.1429 4.39333 14.9467C2.18 12.4124 1 10.1811 1 7.87032C1 4.32718 3.3658 1.58203 6.53809 1.58203C8.26321 1.58203 9.84305 2.2658 11.1265 3.6048C11.5781 4.07588 11.9173 4.54854 12.1526 4.92405L13.0001 6.27661L13.8474 4.924C14.0827 4.54845 14.4219 4.07578 14.8734 3.60487V3.60484C16.1569 2.26587 17.7368 1.58208 19.4619 1.58208C21.0081 1.58208 22.4134 2.22794 23.4374 3.41699ZM13.3346 23.4069L13.3345 23.4068L13.3346 23.4069Z" stroke="white" stroke-width="2"/>
</svg>
