<svg width="26" height="23" viewBox="0 0 26 23" fill="none" xmlns="http://www.w3.org/2000/svg">
<g clip-path="url(#clip0)">
<path d="M14.5348 2.64912L14.5349 2.64911C15.898 1.26887 17.5978 0.547669 19.4619 0.547669C21.1509 0.547669 22.6843 1.23558 23.7919 2.48382L24.1952 2.11816L23.7919 2.48382C24.8602 3.6878 25.4583 5.3146 25.4583 7.07365C25.4583 9.45849 24.203 11.7154 21.9655 14.2033C20.025 16.361 17.413 18.6216 14.395 21.2335C13.939 21.6282 13.4736 22.0309 13 22.4425C12.5203 22.0256 12.0489 21.6178 11.5871 21.2182C8.58341 18.6189 5.9788 16.3652 4.04081 14.2115C1.80112 11.7226 0.541666 9.46192 0.541666 7.07365C0.541666 3.48126 3.03482 0.547619 6.53809 0.547619C8.40232 0.547619 10.102 1.26881 11.4651 2.6491C11.9419 3.13188 12.299 3.61495 12.5464 3.99813L13 4.70083L13.4536 3.99811C13.701 3.61488 14.0581 3.13177 14.5348 2.64912ZM13.0206 22.4604L13.0205 22.4603L13.0206 22.4604Z" stroke="#B3B3B3"/>
</g>
<defs>
<clipPath id="clip0">
<rect width="26" height="23" fill="white"/>
</clipPath>
</defs>
</svg>
