<svg width="32" height="27" viewBox="0 0 32 27" fill="none" xmlns="http://www.w3.org/2000/svg">
<path d="M13.7847 7.5L14.4009 7.27713C15.8807 6.74169 16.875 5.32425 16.875 3.75C16.875 1.68225 15.1927 0 13.125 0C11.5507 0 10.1332 0.994312 9.59787 2.47419L8.4375 5.68169L7.27712 2.47419C6.74175 0.994312 5.32431 0 3.75 0C1.68225 0 0 1.68225 0 3.75C0 5.32425 0.99425 6.74169 2.47419 7.27713L3.09031 7.5H0V26.25H32V7.5H13.7847ZM11.3611 3.112C11.6287 2.37212 12.3376 1.875 13.125 1.875C14.1589 1.875 15 2.71613 15 3.75C15 4.53737 14.5029 5.24625 13.763 5.51394L9.99956 6.87544L11.3611 3.112ZM1.875 3.75C1.875 2.71613 2.71613 1.875 3.75 1.875C4.53744 1.875 5.24625 2.37212 5.51394 3.11206L6.87544 6.87544L3.11206 5.51394C2.37212 5.24625 1.875 4.53737 1.875 3.75ZM30.125 24.375H9.375V22.5H7.5V24.375H1.875V9.375H6.68575L3.9075 13.5424L5.46756 14.5825L7.5 11.5339V15H9.375V11.5338L11.4075 14.5825L12.9676 13.5424L10.1892 9.375H30.125V24.375Z" fill="white"/>
<path d="M17.8125 16.875C19.3633 16.875 20.625 15.6133 20.625 14.0625C20.625 12.5117 19.3633 11.25 17.8125 11.25C16.2617 11.25 15 12.5117 15 14.0625C15 15.6133 16.2617 16.875 17.8125 16.875ZM17.8125 13.125C18.3294 13.125 18.75 13.5456 18.75 14.0625C18.75 14.5794 18.3294 15 17.8125 15C17.2956 15 16.875 14.5794 16.875 14.0625C16.875 13.5456 17.2956 13.125 17.8125 13.125Z" fill="white"/>
<path d="M22.5 19.6875C22.5 21.2383 23.7617 22.5 25.3125 22.5C26.8633 22.5 28.125 21.2383 28.125 19.6875C28.125 18.1367 26.8633 16.875 25.3125 16.875C23.7617 16.875 22.5 18.1367 22.5 19.6875ZM26.25 19.6875C26.25 20.2044 25.8294 20.625 25.3125 20.625C24.7956 20.625 24.375 20.2044 24.375 19.6875C24.375 19.1706 24.7956 18.75 25.3125 18.75C25.8294 18.75 26.25 19.1706 26.25 19.6875Z" fill="white"/>
<path d="M17.0874 20.9834L24.5911 11.6068L26.0554 12.7787L18.5518 22.1553L17.0874 20.9834Z" fill="white"/>
<path d="M7.5 16.875H9.375V20.625H7.5V16.875Z" fill="white"/>
</svg>
