<svg width="54" height="12" viewBox="0 0 54 12" fill="none" xmlns="http://www.w3.org/2000/svg">
<path d="M15.7578 10.9344H14.7617C14.5329 10.9344 14.3175 10.8652 14.1156 10.7268C13.9137 10.5884 13.7657 10.4085 13.658 10.201L10.737 3.79382C10.6832 3.65544 10.6562 3.54473 10.6562 3.44786C10.6562 3.10191 10.8582 2.88049 11.2081 2.88049H12.5138C12.7426 2.88049 12.9715 2.94968 13.1734 3.08807C13.3753 3.22645 13.5234 3.40635 13.6176 3.62776L15.2867 7.53016L16.9424 3.62776C17.0366 3.40635 17.1847 3.22645 17.3866 3.08807C17.5885 2.94968 17.8173 2.88049 18.0461 2.88049H19.3518C19.6749 2.88049 19.796 3.06039 19.8499 3.18494C19.8902 3.25413 19.9037 3.351 19.9037 3.4617C19.9037 3.55857 19.8768 3.66928 19.8229 3.79382L16.8885 10.201C16.7943 10.4224 16.6328 10.5884 16.4309 10.7268C16.202 10.8652 15.9867 10.9344 15.7578 10.9344Z" fill="#3846AE"/>
<path d="M8.73597 2.10432C7.84757 1.3017 6.40728 0.900391 4.44202 0.900391H0.646112C0.471123 0.900391 0.323056 0.969582 0.188449 1.09413C0.0673033 1.21867 0 1.38473 0 1.57847V10.2689C0 10.4488 0.0673033 10.601 0.188449 10.7256C0.309595 10.8501 0.471123 10.9055 0.646112 10.9055H4.44202C6.40728 10.9055 7.83411 10.5042 8.73597 9.70155C9.63784 8.89893 10.082 7.62581 10.082 5.89602C10.082 4.18007 9.63784 2.92078 8.73597 2.10432ZM7.38991 6.04824L3.09595 8.4561C2.9075 8.56681 2.66521 8.38691 2.70559 8.1655L3.54016 3.51583C3.56708 3.32209 3.78245 3.23906 3.94398 3.33593L7.40337 5.57774C7.5649 5.68844 7.5649 5.95137 7.38991 6.04824Z" fill="#3846AE"/>
<path d="M24.7914 10.9878H21.332V2.86475H24.4011C24.9395 2.86475 25.3972 2.93394 25.7875 3.05848C26.1779 3.19687 26.4606 3.36292 26.6625 3.59818C27.0124 4.01332 27.1874 4.48383 27.1874 5.00968C27.1874 5.64624 26.9855 6.11674 26.5952 6.42119C26.4606 6.53189 26.3663 6.60109 26.3125 6.62876C26.2586 6.65644 26.1644 6.69795 26.0298 6.76714C26.5144 6.87785 26.9048 7.09926 27.2009 7.44522C27.497 7.79118 27.6316 8.22017 27.6316 8.73218C27.6316 9.29955 27.4432 9.79773 27.0663 10.2267C26.6355 10.7387 25.8817 10.9878 24.7914 10.9878ZM23.0954 6.15826H23.9299C24.4145 6.15826 24.778 6.10291 25.0203 5.9922C25.2626 5.88149 25.3702 5.64624 25.3702 5.28645C25.3702 4.92665 25.2626 4.6914 25.0472 4.56686C24.8318 4.45615 24.4549 4.38696 23.9434 4.38696H23.0954V6.15826ZM23.0954 9.45177H24.3068C24.8049 9.45177 25.1953 9.38258 25.4375 9.25804C25.6933 9.13349 25.8144 8.8844 25.8144 8.49693C25.8144 8.1233 25.6798 7.87421 25.4106 7.74966C25.1414 7.62512 24.7107 7.56977 24.1319 7.56977H23.0954V9.45177Z" fill="#E0B600"/>
<path d="M35.4961 9.87275C34.7019 10.6754 33.7193 11.0767 32.5482 11.0767C31.3771 11.0767 30.3945 10.6754 29.6003 9.87275C28.8062 9.07013 28.4023 8.07377 28.4023 6.88368C28.4023 5.69359 28.8062 4.69723 29.6003 3.89461C30.3945 3.09198 31.3771 2.69067 32.5482 2.69067C33.7193 2.69067 34.7019 3.09198 35.4961 3.89461C36.2903 4.69723 36.6941 5.69359 36.6941 6.88368C36.6941 8.07377 36.2903 9.07013 35.4961 9.87275ZM34.9038 6.88368C34.9038 6.16409 34.675 5.54136 34.2308 5.02935C33.7731 4.51733 33.2213 4.26824 32.5617 4.26824C31.9021 4.26824 31.3502 4.51733 30.8926 5.02935C30.4349 5.54136 30.2195 6.16409 30.2195 6.88368C30.2195 7.60327 30.4484 8.22599 30.8926 8.72417C31.3502 9.23619 31.9021 9.48528 32.5617 9.48528C33.2213 9.48528 33.7731 9.23619 34.2308 8.72417C34.675 8.22599 34.9038 7.60327 34.9038 6.88368Z" fill="#E0B600"/>
<path d="M44.6055 9.87275C43.8113 10.6754 42.8287 11.0767 41.6576 11.0767C40.4865 11.0767 39.5039 10.6754 38.7097 9.87275C37.9155 9.07013 37.5117 8.07377 37.5117 6.88368C37.5117 5.69359 37.9155 4.69723 38.7097 3.89461C39.5039 3.09198 40.4865 2.69067 41.6576 2.69067C42.8287 2.69067 43.8113 3.09198 44.6055 3.89461C45.3997 4.69723 45.8035 5.69359 45.8035 6.88368C45.8035 8.07377 45.3997 9.07013 44.6055 9.87275ZM43.9998 6.88368C43.9998 6.16409 43.7709 5.54136 43.3267 5.02935C42.8691 4.51733 42.3172 4.26824 41.6576 4.26824C40.998 4.26824 40.4461 4.51733 39.9885 5.02935C39.5308 5.54136 39.3154 6.16409 39.3154 6.88368C39.3154 7.60327 39.5443 8.22599 39.9885 8.72417C40.4461 9.23619 40.998 9.48528 41.6576 9.48528C42.3172 9.48528 42.8691 9.23619 43.3267 8.72417C43.7709 8.22599 43.9998 7.60327 43.9998 6.88368Z" fill="#E0B600"/>
<path d="M47.0664 2.86475H48.8298V6.19978L51.818 2.86475H53.9852L50.8489 6.44887C51.1181 6.83634 51.6161 7.55593 52.3565 8.60764C53.0834 9.65935 53.6352 10.4481 53.9987 10.974H51.9392L49.6239 7.7635L48.8298 8.66299V10.9602H47.0664V2.86475Z" fill="#E0B600"/>
</svg>
