<svg width="20" height="20" viewBox="0 0 20 20" fill="none" xmlns="http://www.w3.org/2000/svg">
<path d="M10.0881 11.6558L18.8365 2.42351L19.9915 3.43521L10.1683 13.8017L4.81323 8.9072L5.88989 7.81838L10.0881 11.6558ZM19.3848 6.28158L18.1664 7.57144C18.3433 8.22447 18.4375 8.90919 18.4375 9.61468C18.4375 14.0878 14.6523 17.7271 10 17.7271C5.34766 17.7271 1.5625 14.0878 1.5625 9.61468C1.5625 5.1416 5.34766 1.50229 10 1.50229C12.1553 1.50229 14.124 2.28372 15.6171 3.56677L16.6704 2.45167C14.8341 0.867105 12.4865 0 10 0C7.32898 0 4.81763 1.00008 2.92896 2.8161C1.04016 4.632 0 7.04658 0 9.61468C0 12.1828 1.04016 14.5974 2.92896 16.4133C4.81763 18.2293 7.32898 19.2294 10 19.2294C12.671 19.2294 15.1824 18.2293 17.071 16.4133C18.9598 14.5974 20 12.1828 20 9.61468C20 8.45885 19.7887 7.33448 19.3848 6.28158Z" fill="#0481DB"/>
</svg>
