<svg width="187" height="36" viewBox="0 0 187 36" fill="none" xmlns="http://www.w3.org/2000/svg">
<path d="M55.27 34.667H51.8378C51.0493 34.667 50.3072 34.4286 49.6115 33.9518C48.9158 33.475 48.4056 32.8551 48.0346 32.1399L37.9699 10.063C37.7844 9.5862 37.6917 9.2048 37.6917 8.871C37.6917 7.67893 38.3874 6.91602 39.5933 6.91602H44.0922C44.8807 6.91602 45.6692 7.15443 46.3649 7.63125C47.0606 8.1081 47.5708 8.7279 47.8954 9.4908L53.6467 22.9372L59.3515 9.4908C59.6762 8.7279 60.1864 8.1081 60.8821 7.63125C61.5778 7.15443 62.3662 6.91602 63.1547 6.91602H67.6537C68.7668 6.91602 69.1842 7.53588 69.3698 7.96502C69.5089 8.2034 69.5553 8.5372 69.5553 8.9187C69.5553 9.2524 69.4625 9.6339 69.277 10.063L59.166 32.1399C58.8413 32.9028 58.2847 33.475 57.589 33.9518C56.8005 34.4286 56.0585 34.667 55.27 34.667Z" fill="#3846AE"/>
<path d="M31.0072 4.29874C27.9461 1.53317 22.9833 0.150391 16.2117 0.150391H3.1323C2.5293 0.150391 2.0191 0.388801 1.5553 0.817941C1.1379 1.24708 0.905998 1.81926 0.905998 2.48681V32.4312C0.905998 33.0511 1.1379 33.5756 1.5553 34.0047C1.9728 34.4338 2.5293 34.6246 3.1323 34.6246H16.2117C22.9833 34.6246 27.8997 33.2418 31.0072 30.4762C34.1147 27.7107 35.6453 23.3239 35.6453 17.3636C35.6453 11.4511 34.1147 7.11198 31.0072 4.29874ZM26.3691 17.8881L11.5736 26.1848C10.9243 26.5663 10.0894 25.9464 10.2286 25.1835L13.1042 9.1623C13.1969 8.4948 13.939 8.2087 14.4956 8.5424L26.4155 16.2669C26.9721 16.6484 26.9721 17.5544 26.3691 17.8881Z" fill="#3846AE"/>
<path d="M86.2929 34.8605H74.373V6.87109H84.9479C86.8031 6.87109 88.38 7.1095 89.725 7.53864C91.07 8.0155 92.044 8.5877 92.74 9.3982C93.946 10.8287 94.549 12.4499 94.549 14.2618C94.549 16.4552 93.853 18.0764 92.508 19.1254C92.044 19.5069 91.72 19.7453 91.534 19.8406C91.348 19.936 91.024 20.079 90.56 20.3174C92.23 20.6989 93.575 21.4618 94.595 22.6539C95.616 23.8459 96.079 25.3241 96.079 27.0883C96.079 29.0433 95.43 30.7598 94.131 32.238C92.647 34.0022 90.05 34.8605 86.2929 34.8605ZM80.4489 18.2194H83.3246C84.9943 18.2194 86.2466 18.0287 87.0814 17.6473C87.9163 17.2658 88.287 16.4552 88.287 15.2155C88.287 13.9757 87.9163 13.1651 87.1742 12.736C86.4321 12.3545 85.1334 12.1161 83.3709 12.1161H80.4489V18.2194ZM80.4489 29.5678H84.6232C86.3393 29.5678 87.6844 29.3294 88.519 28.9002C89.4 28.4711 89.818 27.6128 89.818 26.2777C89.818 24.9903 89.354 24.132 88.426 23.7029C87.4988 23.2737 86.0147 23.083 84.0203 23.083H80.4489V29.5678Z" fill="#E0B600"/>
<path d="M123.26 30.9951C120.524 33.7606 117.138 35.1434 113.103 35.1434C109.068 35.1434 105.682 33.7606 102.945 30.9951C100.209 28.2295 98.817 24.7964 98.817 20.6957C98.817 16.5951 100.209 13.162 102.945 10.3964C105.682 7.63083 109.068 6.24805 113.103 6.24805C117.138 6.24805 120.524 7.63083 123.26 10.3964C125.997 13.162 127.388 16.5951 127.388 20.6957C127.388 24.7964 125.997 28.2295 123.26 30.9951ZM121.219 20.6957C121.219 18.2163 120.431 16.0706 118.9 14.3063C117.323 12.5421 115.422 11.6838 113.149 11.6838C110.876 11.6838 108.975 12.5421 107.398 14.3063C105.821 16.0706 105.079 18.2163 105.079 20.6957C105.079 23.1752 105.867 25.3209 107.398 27.0374C108.975 28.8017 110.876 29.66 113.149 29.66C115.422 29.66 117.323 28.8017 118.9 27.0374C120.431 25.3209 121.219 23.1752 121.219 20.6957Z" fill="#E0B600"/>
<path d="M154.612 30.9951C151.876 33.7606 148.49 35.1434 144.455 35.1434C140.42 35.1434 137.034 33.7606 134.298 30.9951C131.561 28.2295 130.17 24.7964 130.17 20.6957C130.17 16.5951 131.561 13.162 134.298 10.3964C137.034 7.63083 140.42 6.24805 144.455 6.24805C148.49 6.24805 151.876 7.63083 154.612 10.3964C157.349 13.162 158.74 16.5951 158.74 20.6957C158.74 24.7964 157.349 28.2295 154.612 30.9951ZM152.525 20.6957C152.525 18.2163 151.737 16.0706 150.206 14.3063C148.629 12.5421 146.728 11.6838 144.455 11.6838C142.182 11.6838 140.281 12.5421 138.704 14.3063C137.127 16.0706 136.385 18.2163 136.385 20.6957C136.385 23.1752 137.173 25.3209 138.704 27.0374C140.281 28.8017 142.182 29.66 144.455 29.66C146.728 29.66 148.629 28.8017 150.206 27.0374C151.737 25.3209 152.525 23.1752 152.525 20.6957Z" fill="#E0B600"/>
<path d="M163.05 6.87109H169.126V18.3625L179.423 6.87109H186.89L176.083 19.2208C177.011 20.5559 178.727 23.0353 181.278 26.6592C183.782 30.283 185.684 33.0009 186.936 34.8128H179.84L171.862 23.7506L169.126 26.8499V34.7651H163.05V6.87109Z" fill="#E0B600"/>
</svg>
