<svg width="54" height="54" viewBox="0 0 54 54" fill="none" xmlns="http://www.w3.org/2000/svg">
<mask id="mask0" mask-type="alpha" maskUnits="userSpaceOnUse" x="5" y="5" width="44" height="44">
<path d="M36 48H18C11.4 48 6 42.6 6 36V18C6 11.4 11.4 6 18 6H36C42.601 6 48 11.4 48 18V36C48 42.6 42.601 48 36 48Z" fill="white" stroke="#333434" stroke-width="1.5" stroke-miterlimit="10" stroke-linecap="round" stroke-linejoin="round"/>
</mask>
<g mask="url(#mask0)">
<path d="M52 -6H-2V58.666H52V-6Z" fill="#C5202C"/>
<path d="M19.804 18.331L22.079 22.94L27.167 23.68L23.486 27.269L24.354 32.335L19.804 29.943L15.254 32.335L16.123 27.269L12.441 23.68L17.529 22.94L19.804 18.331Z" fill="#F6D759"/>
<path d="M29.704 13.037L30.232 14.109L31.417 14.282L30.56 15.116L30.763 16.295L29.704 15.738L28.646 16.295L28.848 15.116L27.992 14.282L29.175 14.109L29.704 13.037Z" fill="#F6D759"/>
<path d="M36.704 20.037L37.233 21.11L38.416 21.282L37.561 22.116L37.763 23.295L36.704 22.738L35.646 23.295L35.849 22.116L34.991 21.282L36.176 21.11L36.704 20.037Z" fill="#F6D759"/>
<path d="M36.704 29.372L37.233 30.443L38.416 30.615L37.561 31.451L37.763 32.629L36.704 32.072L35.646 32.629L35.849 31.451L34.991 30.615L36.176 30.443L36.704 29.372Z" fill="#F6D759"/>
<path d="M29.704 36.372L30.232 37.443L31.417 37.615L30.56 38.451L30.763 39.629L29.704 39.072L28.646 39.629L28.848 38.451L27.992 37.615L29.175 37.443L29.704 36.372Z" fill="#F6D759"/>
</g>
<path d="M36 48H18C11.4 48 6 42.6 6 36V18C6 11.4 11.4 6 18 6H36C42.601 6 48 11.4 48 18V36C48 42.6 42.601 48 36 48Z" stroke="#333434" stroke-width="1.5" stroke-miterlimit="10" stroke-linecap="round" stroke-linejoin="round"/>
</svg>
