<svg width="54" height="54" viewBox="0 0 54 54" fill="none" xmlns="http://www.w3.org/2000/svg">
<mask id="mask0" mask-type="alpha" maskUnits="userSpaceOnUse" x="5" y="5" width="44" height="44">
<path d="M36 48H18C11.4 48 6 42.6 6 36V18C6 11.4 11.4 6 18 6H36C42.601 6 48 11.4 48 18V36C48 42.6 42.601 48 36 48Z" fill="white" stroke="#333434" stroke-width="1.5" stroke-miterlimit="10" stroke-linecap="round" stroke-linejoin="round"/>
</mask>
<g mask="url(#mask0)">
<path d="M66.74 46.351H-13V51.369H66.74V46.351Z" fill="#BF1A21"/>
<path d="M66.74 41.334H-13V46.351H66.74V41.334Z" fill="white"/>
<path d="M66.74 36.315H-13V41.334H66.74V36.315Z" fill="#BF1A21"/>
<path d="M66.74 31.297H-13V36.315H66.74V31.297Z" fill="white"/>
<path d="M66.74 26.278H-13V31.297H66.74V26.278Z" fill="#BF1A21"/>
<path d="M66.74 21.263H-13V26.28H66.74V21.263Z" fill="white"/>
<path d="M66.74 16.245H-13V21.263H66.74V16.245Z" fill="#BF1A21"/>
<path d="M66.74 11.228H-13V16.245H66.74V11.228Z" fill="white"/>
<path d="M66.74 6.20999H-13V11.228H66.74V6.20999Z" fill="#BF1A21"/>
<path d="M27.604 6.20999H-8.80298V31.258H27.604V6.20999Z" fill="#2A345E"/>
<path d="M3.47097 9.711L4.12797 11.732H6.25497L4.53397 12.984L5.19197 15.006L3.47097 13.757L1.74797 15.006L2.40697 12.984L0.685974 11.732H2.81297L3.47097 9.711Z" fill="white"/>
<path d="M3.47097 18.647L4.12797 20.668H6.25497L4.53397 21.921L5.19197 23.942L3.47097 22.694L1.74797 23.942L2.40697 21.921L0.685974 20.668H2.81297L3.47097 18.647Z" fill="white"/>
<path d="M9.77401 5L10.433 7.025H12.561L10.84 8.274L11.496 10.299L9.77401 9.047L8.05401 10.299L8.71101 8.274L6.98901 7.025H9.11601L9.77401 5Z" fill="white"/>
<path d="M9.77401 13.941L10.433 15.962H12.561L10.84 17.214L11.496 19.236L9.77401 17.987L8.05401 19.236L8.71101 17.214L6.98901 15.962H9.11601L9.77401 13.941Z" fill="white"/>
<path d="M9.77401 22.878L10.433 24.899H12.561L10.84 26.151L11.496 28.173L9.77401 26.925L8.05401 28.173L8.71101 26.151L6.98901 24.899H9.11601L9.77401 22.878Z" fill="white"/>
<path d="M15.999 9.711L16.656 11.732H18.784L17.063 12.984L17.72 15.006L15.999 13.757L14.277 15.006L14.937 12.984L13.215 11.732H15.343L15.999 9.711Z" fill="white"/>
<path d="M15.999 18.647L16.656 20.668H18.784L17.063 21.921L17.72 23.942L15.999 22.694L14.277 23.942L14.937 21.921L13.215 20.668H15.343L15.999 18.647Z" fill="white"/>
<path d="M22.302 5L22.961 7.025H25.088L23.366 8.274L24.024 10.299L22.302 9.047L20.581 10.299L21.24 8.274L19.519 7.025H21.646L22.302 5Z" fill="white"/>
<path d="M22.302 13.941L22.961 15.962H25.088L23.366 17.214L24.024 19.236L22.302 17.987L20.581 19.236L21.24 17.214L19.519 15.962H21.646L22.302 13.941Z" fill="white"/>
<path d="M22.302 22.878L22.961 24.899H25.088L23.366 26.151L24.024 28.173L22.302 26.925L20.581 28.173L21.24 26.151L19.519 24.899H21.646L22.302 22.878Z" fill="white"/>
</g>
<path d="M36 48H18C11.4 48 6 42.6 6 36V18C6 11.4 11.4 6 18 6H36C42.601 6 48 11.4 48 18V36C48 42.6 42.601 48 36 48Z" stroke="#333434" stroke-width="1.5" stroke-miterlimit="10" stroke-linecap="round" stroke-linejoin="round"/>
</svg>
