<svg width="54" height="54" viewBox="0 0 54 54" fill="none" xmlns="http://www.w3.org/2000/svg">
<mask id="mask0" mask-type="alpha" maskUnits="userSpaceOnUse" x="4" y="4" width="48" height="48">
<rect x="4" y="4" width="48" height="48" fill="#C4C4C4"/>
</mask>
<g mask="url(#mask0)">
<path d="M36 48H18C11.4 48 6 42.6 6 36V18C6 11.4 11.4 6 18 6H36C42.601 6 48 11.4 48 18V36C48 42.6 42.601 48 36 48Z" fill="#FFC261" stroke="#333434" stroke-width="1.5" stroke-miterlimit="10" stroke-linecap="round" stroke-linejoin="round"/>
</g>
<path d="M14.466 31.132C12.552 31.132 11 29.545 11 27.588C11 25.63 12.552 24.044 14.466 24.044" fill="#FFE4D2"/>
<path d="M14.466 31.132C12.552 31.132 11 29.545 11 27.588C11 25.63 12.552 24.044 14.466 24.044" stroke="#333333" stroke-width="1.5" stroke-miterlimit="10" stroke-linecap="round" stroke-linejoin="round"/>
<path d="M39.882 31.132C41.796 31.132 43.348 29.545 43.348 27.588C43.348 25.63 41.796 24.044 39.882 24.044" fill="#FFE4D2"/>
<path d="M39.882 31.132C41.796 31.132 43.348 29.545 43.348 27.588C43.348 25.63 41.796 24.044 39.882 24.044" stroke="#333333" stroke-width="1.5" stroke-miterlimit="10" stroke-linecap="round" stroke-linejoin="round"/>
<path d="M40.46 26.701C40.46 33.715 34.512 39.402 27.174 39.402C19.837 39.402 13.889 33.714 13.889 26.701C13.889 19.688 19.837 14 27.174 14C34.512 14 40.46 19.687 40.46 26.701Z" fill="#FFE4D2"/>
<path d="M27.174 39.402C34.5117 39.402 40.46 33.7156 40.46 26.701C40.46 19.6864 34.5117 14 27.174 14C19.8363 14 13.888 19.6864 13.888 26.701C13.888 33.7156 19.8363 39.402 27.174 39.402Z" stroke="#333333" stroke-width="1.5" stroke-miterlimit="10" stroke-linecap="round" stroke-linejoin="round"/>
<path d="M23.708 26.406C23.708 27.058 23.191 27.587 22.553 27.587C21.915 27.587 21.397 27.058 21.397 26.406C21.397 25.754 21.915 25.224 22.553 25.224C23.191 25.223 23.708 25.754 23.708 26.406Z" fill="#333333"/>
<path d="M32.95 26.406C32.95 27.058 32.433 27.587 31.795 27.587C31.157 27.587 30.64 27.058 30.64 26.406C30.64 25.754 31.158 25.224 31.795 25.224C32.434 25.223 32.95 25.754 32.95 26.406Z" fill="#333333"/>
<path d="M22.553 30.541C22.553 30.541 23.708 33.495 27.174 33.495C30.64 33.495 31.795 30.541 31.795 30.541" stroke="#333333" stroke-width="1.5" stroke-miterlimit="10" stroke-linecap="round" stroke-linejoin="round"/>
<path d="M17.203 18.907C17.814 19.639 18.728 20.115 19.763 20.115C20.982 20.115 22.037 19.462 22.619 18.497C23.624 19.917 25.287 20.847 27.174 20.847C29.061 20.847 30.725 19.917 31.729 18.497C32.311 19.462 33.366 20.115 34.584 20.115C35.62 20.115 36.533 19.639 37.145 18.907L35.682 16.946L32.62 15.114L28.168 14.038L23.463 14.505L20.287 15.842L17.326 18.177L17.203 18.907Z" fill="#333333"/>
<path d="M17.203 18.907C17.814 19.639 18.728 20.115 19.763 20.115C20.982 20.115 22.037 19.462 22.619 18.497C23.624 19.917 25.287 20.847 27.174 20.847C29.061 20.847 30.725 19.917 31.729 18.497C32.311 19.462 33.366 20.115 34.584 20.115C35.62 20.115 36.533 19.639 37.145 18.907L35.682 16.946L32.62 15.114L28.168 14.038L23.463 14.505L20.287 15.842L17.326 18.177L17.203 18.907Z" stroke="#333333" stroke-width="1.5" stroke-miterlimit="10" stroke-linecap="round" stroke-linejoin="round"/>
</svg>
