<svg width="54" height="54" viewBox="0 0 54 54" fill="none" xmlns="http://www.w3.org/2000/svg">
<mask id="mask0" mask-type="alpha" maskUnits="userSpaceOnUse" x="4" y="4" width="48" height="48">
<rect x="4" y="4" width="48" height="48" fill="#C4C4C4"/>
</mask>
<g mask="url(#mask0)">
<path d="M36 48H18C11.4 48 6 42.6 6 36V18C6 11.4 11.4 6 18 6H36C42.601 6 48 11.4 48 18V36C48 42.6 42.601 48 36 48Z" fill="white" stroke="#333434" stroke-width="1.5" stroke-miterlimit="10" stroke-linecap="round" stroke-linejoin="round"/>
</g>
<path d="M33.3225 17.9474L35.3499 20.9888L36.4557 20.2516L34.4283 17.2102L33.3225 17.9474Z" fill="#010100"/>
<path d="M35.7189 21.5437L37.7449 24.5834L38.8507 23.8463L36.8248 20.8067L35.7189 21.5437Z" fill="#010100"/>
<path d="M34.9785 16.8451L39.4014 23.4778L40.508 22.74L36.0851 16.1073L34.9785 16.8451Z" fill="#010100"/>
<path d="M36.6401 15.7368L38.6673 18.7769L39.7722 18.0401L37.745 15L36.6401 15.7368Z" fill="#010100"/>
<path d="M39.0347 19.3309L41.0619 22.3711L42.1676 21.6337L40.1404 18.5936L39.0347 19.3309Z" fill="#010100"/>
<path d="M14.318 29.9545L18.7393 36.588L19.8443 35.8515L15.423 29.218L14.318 29.9545Z" fill="#010100"/>
<path d="M12.6574 31.0604L14.6843 34.1006L15.79 33.3634L13.7631 30.3232L12.6574 31.0604Z" fill="#010100"/>
<path d="M15.0524 34.6536L17.0793 37.6938L18.1842 36.9571L16.1573 33.917L15.0524 34.6536Z" fill="#010100"/>
<path d="M11.0011 32.1656L15.4224 38.7991L16.5274 38.0626L12.1061 31.4291L11.0011 32.1656Z" fill="#010100"/>
<path d="M15.4228 24.5839L19.8441 17.9504L18.7382 17.2133L14.3169 23.8468L15.4228 24.5839Z" fill="#010100"/>
<path d="M13.7616 23.4787L18.1837 16.8452L17.0786 16.1086L12.6566 22.7421L13.7616 23.4787Z" fill="#010100"/>
<path d="M12.1059 22.3728L16.5272 15.7393L15.4213 15.0022L11 21.6357L12.1059 22.3728Z" fill="#010100"/>
<path d="M34.43 36.5873L36.4559 33.5476L35.3509 32.8111L33.325 35.8507L34.43 36.5873Z" fill="#010100"/>
<path d="M36.8205 32.9959L38.8479 29.9545L37.7429 29.2179L35.7154 32.2592L36.8205 32.9959Z" fill="#010100"/>
<path d="M36.0878 37.6939L38.1137 34.6543L37.0079 33.9172L34.9819 36.9569L36.0878 37.6939Z" fill="#010100"/>
<path d="M38.481 34.0969L40.5066 31.0568L39.4006 30.3199L37.375 33.3599L38.481 34.0969Z" fill="#010100"/>
<path d="M37.7434 38.8002L39.7706 35.7601L38.6657 35.0233L36.6385 38.0634L37.7434 38.8002Z" fill="#010100"/>
<path d="M40.1408 35.2074L42.167 32.1665L41.061 31.4296L39.0349 34.4704L40.1408 35.2074Z" fill="#010100"/>
<path d="M19.9495 22.4778C19.9205 22.5208 19.8915 22.5638 19.8655 22.6078C19.8935 22.5638 19.9205 22.5208 19.9495 22.4778Z" fill="#AC1E38"/>
<path d="M31.0055 20.2658C27.3425 17.8248 22.3915 18.8148 19.9495 22.4778C18.7285 24.3098 19.2235 26.7848 21.0555 28.0048C22.8865 29.2268 25.3615 28.7318 26.5835 26.8998C27.8045 25.0678 30.2785 24.5738 32.1105 25.7938C33.9425 27.0148 34.4365 29.4898 33.2145 31.3228C35.6585 27.6588 34.6695 22.7078 31.0055 20.2658Z" fill="#AC1E38"/>
<path d="M19.9495 22.4778C18.7275 24.3098 19.2235 26.7848 21.0545 28.0048C22.8865 29.2268 25.3615 28.7318 26.5835 26.8998C27.8045 25.0678 30.2785 24.5738 32.1105 25.7938C33.9425 27.0148 34.4375 29.4898 33.2145 31.3228C30.7745 34.9858 25.8225 35.9758 22.1585 33.5338C18.4965 31.0898 17.5075 26.1408 19.9495 22.4778Z" fill="#1C3470"/>
</svg>
