<svg width="54" height="54" viewBox="0 0 54 54" fill="none" xmlns="http://www.w3.org/2000/svg">
<mask id="mask0" mask-type="alpha" maskUnits="userSpaceOnUse" x="4" y="4" width="48" height="48">
<rect x="4" y="4" width="48" height="48" fill="#C4C4C4"/>
</mask>
<g mask="url(#mask0)">
<path d="M36 48H18C11.4 48 6 42.6 6 36V18C6 11.4 11.4 6 18 6H36C42.601 6 48 11.4 48 18V36C48 42.6 42.601 48 36 48Z" fill="#F0F5FF" stroke="#333434" stroke-width="1.5" stroke-miterlimit="10" stroke-linecap="round" stroke-linejoin="round"/>
</g>
<path d="M22.4635 27.947C22.3415 27.947 22.2185 27.917 22.1075 27.858L19.1925 26.283C18.9205 26.136 18.7665 25.836 18.8045 25.529L19.0425 23.645L15.2495 21.596L13.7895 22.824C13.6505 22.941 13.4795 23 13.3065 23C13.1845 23 13.0615 22.971 12.9495 22.91L10.1425 21.394C9.92049 21.274 9.77349 21.05 9.75249 20.798C9.73049 20.547 9.83649 20.301 10.0345 20.145L20.4665 11.911C20.6015 11.805 20.7665 11.75 20.9315 11.75C21.0535 11.75 21.1755 11.779 21.2875 11.84L24.0955 13.356C24.3605 13.499 24.5145 13.787 24.4855 14.088L23.2105 27.27C23.1865 27.52 23.0385 27.741 22.8165 27.86C22.7065 27.918 22.5855 27.947 22.4635 27.947ZM19.5665 19.549L19.7965 17.739L18.3995 18.918L19.5665 19.549Z" fill="#EFA954"/>
<path d="M20.9315 12.5L23.7385 14.015L22.4645 27.198L19.5495 25.624L19.8515 23.23L15.1585 20.694L13.3075 22.251L10.4985 20.733L20.9315 12.5ZM20.7845 15.928L17.0735 19.055L20.1715 20.73L20.7845 15.928ZM20.9315 11C20.6005 11 20.2725 11.108 20.0015 11.322L9.57048 19.558C9.17448 19.87 8.96248 20.361 9.00548 20.864C9.04948 21.367 9.34248 21.814 9.78648 22.055L12.5945 23.571C12.8185 23.692 13.0635 23.751 13.3075 23.751C13.6535 23.751 13.9965 23.632 14.2725 23.399L15.3435 22.499L18.2355 24.062L18.0615 25.436C17.9835 26.05 18.2915 26.649 18.8365 26.943L21.7515 28.518C21.9745 28.638 22.2195 28.698 22.4645 28.698C22.7065 28.698 22.9495 28.64 23.1695 28.522C23.6135 28.285 23.9095 27.843 23.9575 27.342L25.2325 14.16C25.2905 13.56 24.9825 12.982 24.4525 12.696L21.6445 11.181C21.4215 11.06 21.1765 11 20.9315 11Z" fill="#333333"/>
<path d="M34.4055 29.311C34.0685 29.311 33.7615 29.082 33.6765 28.741L30.7515 16.895C30.6515 16.492 30.8975 16.086 31.2995 15.987L36.9035 14.603C37.5975 14.432 38.2645 14.345 38.8855 14.345C40.9775 14.345 42.4745 15.352 42.8905 17.038C43.1395 18.041 42.9495 19.036 42.3995 19.839C43.5195 20.282 44.3615 21.247 44.6805 22.541C44.9805 23.755 44.6995 24.951 43.8865 25.907C43.1235 26.806 41.9135 27.48 40.3895 27.857L34.5845 29.289C34.5245 29.304 34.4645 29.311 34.4055 29.311ZM37.3765 24.594L39.0865 24.172C39.5795 24.05 40.1425 23.799 40.0185 23.294C39.9945 23.196 39.9275 22.929 39.3595 22.929C39.1895 22.929 39.0015 22.954 38.7975 23.005L37.0885 23.427L37.3765 24.594ZM36.1945 19.804L37.9045 19.382C38.1565 19.321 38.3465 19.214 38.4405 19.083C38.4865 19.019 38.5415 18.909 38.4895 18.699C38.4375 18.492 38.3375 18.355 38.0085 18.355C37.9045 18.355 37.7865 18.37 37.6605 18.402L35.9525 18.824L36.1945 19.804Z" fill="#7BBDEF"/>
<path d="M38.8855 15.094C40.6095 15.094 41.8245 15.846 42.1625 17.217C42.4725 18.47 41.9395 19.661 40.7755 20.326C40.8385 20.323 40.9015 20.322 40.9635 20.322C42.4345 20.322 43.5865 21.241 43.9515 22.72C44.4485 24.734 43.0025 26.438 40.2085 27.127L34.4045 28.56L31.4775 16.714L37.0815 15.33C37.7275 15.171 38.3325 15.094 38.8855 15.094ZM35.6455 20.712L38.0835 20.111C38.9625 19.894 39.4055 19.281 39.2165 18.519C39.0685 17.919 38.6225 17.605 38.0095 17.605C37.8435 17.605 37.6675 17.628 37.4815 17.673L35.0435 18.276L35.6455 20.712ZM36.8275 25.501L39.2655 24.901C40.3825 24.624 40.9555 23.963 40.7465 23.115C40.5965 22.509 40.0875 22.18 39.3575 22.18C39.1305 22.18 38.8825 22.211 38.6175 22.277L36.1795 22.878L36.8275 25.501ZM38.8855 13.594C38.2045 13.594 37.4765 13.688 36.7235 13.873L31.1195 15.257C30.3145 15.456 29.8245 16.269 30.0225 17.073L32.9485 28.919C33.1175 29.604 33.7295 30.062 34.4045 30.062C34.5215 30.062 34.6425 30.047 34.7635 30.017L40.5685 28.583C44.1635 27.696 46.1085 25.195 45.4085 22.36C45.1015 21.119 44.3895 20.132 43.4275 19.519C43.7695 18.703 43.8485 17.783 43.6185 16.857C43.1155 14.814 41.3445 13.594 38.8855 13.594Z" fill="#333333"/>
<path d="M27.9015 43.559C23.8165 43.559 20.7365 40.538 20.7365 36.534C20.7365 32.587 23.8615 29.612 28.0075 29.612C30.0015 29.612 32.0915 30.487 33.4605 31.896C33.7305 32.171 33.7445 32.608 33.4955 32.902L31.7005 35.029C31.5575 35.198 31.3475 35.295 31.1275 35.295H31.1225C30.8995 35.293 30.6885 35.194 30.5485 35.022C29.8935 34.225 28.9155 33.709 28.0595 33.709C26.5495 33.709 25.4105 34.909 25.4105 36.499C25.4105 38.12 26.5495 39.341 28.0595 39.341C28.8815 39.341 29.8745 38.868 30.5925 38.136C30.7335 37.992 30.9265 37.911 31.1275 37.911H31.1345C31.3375 37.913 31.5315 37.998 31.6735 38.145L33.4855 40.063C33.7615 40.356 33.7585 40.814 33.4775 41.102C31.9995 42.617 29.8635 43.559 27.9015 43.559Z" fill="#DD5E6D"/>
<path d="M28.0065 30.361C29.8185 30.361 31.7015 31.163 32.9225 32.418L31.1265 34.545C30.3245 33.568 29.1395 32.958 28.0585 32.958C26.1245 32.958 24.6595 34.493 24.6595 36.498C24.6595 38.537 26.1245 40.09 28.0585 40.09C29.0865 40.09 30.2735 39.531 31.1265 38.659L32.9395 40.577C31.6315 41.92 29.6965 42.807 27.9005 42.807C24.2225 42.807 21.4855 40.107 21.4855 36.533C21.4865 33.01 24.2935 30.361 28.0065 30.361ZM28.0065 28.861C23.4345 28.861 19.9855 32.159 19.9855 36.533C19.9855 40.965 23.3885 44.307 27.9005 44.307C30.0585 44.307 32.4015 43.28 34.0135 41.623C34.5755 41.046 34.5815 40.13 34.0295 39.546L32.2165 37.628C31.9365 37.332 31.5485 37.162 31.1405 37.159C31.1355 37.159 31.1315 37.158 31.1265 37.158C30.7245 37.158 30.3385 37.321 30.0555 37.609C29.4815 38.194 28.6795 38.588 28.0585 38.588C26.9575 38.588 26.1595 37.708 26.1595 36.496C26.1595 35.314 26.9585 34.456 28.0585 34.456C28.6905 34.456 29.4565 34.874 29.9675 35.495C30.2495 35.838 30.6715 36.04 31.1155 36.043H31.1265C31.5675 36.043 31.9865 35.848 32.2725 35.51L34.0675 33.383C34.5655 32.795 34.5345 31.923 33.9975 31.371C32.4925 29.824 30.1965 28.861 28.0065 28.861Z" fill="#333333"/>
</svg>
