<svg width="56" height="43" viewBox="0 0 56 43" fill="none" xmlns="http://www.w3.org/2000/svg">
<g opacity="0.8">
<g opacity="0.8">
<path opacity="0.8" fill-rule="evenodd" clip-rule="evenodd" d="M19.3008 1.08032V11.1003V21.2202C19.3008 21.7902 19.7107 22.2703 20.1307 22.2703C20.1607 22.2703 20.1907 22.2703 20.2207 22.2703C20.5307 22.2403 20.7407 22.1203 20.8907 22.0303C20.9107 22.0103 20.9307 22.0002 20.9607 21.9802L32.7107 14.6301L32.7007 14.6204L36.9407 11.9602C37.2707 11.7702 37.4308 11.4802 37.4308 11.2002C37.4308 11.1802 37.4308 11.1701 37.4308 11.1501C37.4308 11.1401 37.4308 11.1203 37.4308 11.1003C37.4308 10.8203 37.2707 10.5303 36.9407 10.3403L32.7107 7.67017L20.9607 0.320312C20.7107 0.130313 20.5407 0.0302734 20.1307 0.0302734H20.0508V0.0402832C19.6608 0.0902832 19.3008 0.540322 19.3008 1.08032Z" fill="#C8C8C8"/>
<path opacity="0.8" d="M31.9395 7.12988L19.5 22" stroke="#2A3037" stroke-width="0.5"/>
<path opacity="0.8" d="M19.5 0.5L33.5 13.9492" stroke="#2A3037" stroke-width="0.5"/>
</g>
<g opacity="0.8">
<path opacity="0.8" fill-rule="evenodd" clip-rule="evenodd" d="M22.4002 41.5708C22.0502 41.3108 21.7802 40.8508 21.6402 40.5808L22.7402 40.1306C22.8102 40.2606 22.9401 40.4506 23.0801 40.6506C23.3601 40.9106 23.7702 41.1707 24.1802 41.1707C24.5902 41.1707 25.0702 40.9806 25.3502 40.6506C25.5502 40.3206 25.6901 39.9908 25.6901 39.5408V39.1406C24.8701 40.1306 23.1501 39.9907 22.1901 38.9507C21.1601 37.9007 21.1601 36.1308 22.1901 35.0808C23.2201 34.0908 24.7302 33.9606 25.6202 34.8806V34.4207H26.7902V39.4006C26.7902 40.6506 26.3101 41.3708 25.6901 41.8308C25.2801 42.1608 24.6602 42.2908 24.1102 42.2908C23.4902 42.2208 22.8802 41.9608 22.4002 41.5708ZM51.1702 41.8308L52.3402 39.2107L50.2802 34.6807H51.4501L52.8902 37.9006L54.3301 34.6807H55.5002L52.3402 41.8308H51.1702ZM45.6102 39.3408C45.2702 39.0108 45.1302 38.5508 45.1302 38.0908C45.1302 37.7008 45.2702 37.3108 45.5402 37.0408C46.0202 36.5808 46.7102 36.3906 47.4602 36.3906C47.9502 36.3906 48.3601 36.4506 48.7001 36.6506C48.7001 35.8606 48.0102 35.5408 47.4602 35.5408C46.9802 35.5408 46.5002 35.8007 46.3002 36.2607L45.2702 35.8608C45.4702 35.4008 46.0202 34.5508 47.4002 34.5508C48.0802 34.5508 48.7702 34.7507 49.1802 35.2107C49.5902 35.6707 49.7302 36.1906 49.7302 36.9106V39.6707H48.5602V39.2107C48.4302 39.4007 48.1501 39.5407 47.9501 39.6707C47.6701 39.8007 47.3302 39.8608 46.9802 39.8608C46.5702 39.8608 45.9502 39.6708 45.6102 39.3408ZM9.00019 36.9807C9.00019 35.6707 10.0302 34.2207 11.8902 34.2207C13.6702 34.2207 14.7702 35.6707 14.7702 36.9807C14.7702 38.2907 13.7402 39.7307 11.8902 39.7307C10.0302 39.7307 9.00019 38.2907 9.00019 36.9807ZM15.1802 36.9807C15.1802 35.6707 16.2101 34.2207 18.0701 34.2207C19.8501 34.2207 20.9501 35.6707 20.9501 36.9807C20.9501 38.2907 19.9201 39.7307 18.0701 39.7307C16.2801 39.7307 15.1802 38.2907 15.1802 36.9807ZM1.31025 38.4207C-0.409752 36.7807 -0.339806 34.0906 1.38019 32.3906C2.27019 31.5406 3.37023 31.1406 4.54023 31.1406C5.64023 31.1406 6.74025 31.5408 7.56025 32.3208L6.74018 33.1807C5.43018 32.0607 3.44021 32.0607 2.27021 33.2407C1.04021 34.4907 1.04021 36.3906 2.27021 37.6306C3.51021 38.8806 5.57024 38.9507 6.80024 37.7007C7.22024 37.3107 7.35023 36.7807 7.42023 36.2607H4.47016V35.0808H8.52021C8.59021 35.3408 8.59015 35.6707 8.59015 35.9907C8.59015 36.9807 8.18018 37.9608 7.49018 38.6208C6.74018 39.3408 5.64023 39.7307 4.54023 39.7307C3.37023 39.7307 2.13025 39.2707 1.31025 38.4207ZM30.2902 38.9507C29.2602 37.9007 29.2602 36.1307 30.2902 35.0107C31.3202 33.9607 33.0402 33.9607 34.0002 35.0107C34.3502 35.3407 34.5502 35.8007 34.7602 36.2607L30.9802 37.8308C31.1902 38.2908 31.6702 38.6807 32.3502 38.6807C32.9702 38.6807 33.3802 38.4906 33.8002 37.9006L34.8301 38.5508C34.6901 38.6808 34.5502 38.8107 34.4802 38.9507C33.3202 39.9907 31.3202 39.9907 30.2902 38.9507ZM37.4401 39.6707V32.4507H39.9102C41.3502 32.4507 42.5202 33.4408 42.5202 34.6208C42.5202 35.8008 41.4902 36.7808 40.1802 36.7808H38.6702V39.6707H37.4401ZM43.2102 39.6707V32.4507H44.3702V39.7307H43.2102V39.6707ZM27.6802 39.5408V31.4707H28.9202V39.6008H27.6802V39.5408ZM48.7001 37.5708C48.4301 37.3708 48.0102 37.3108 47.6002 37.3108C46.7802 37.3108 46.3002 37.7006 46.3002 38.1606C46.3002 38.6206 46.7802 38.8806 47.2602 38.8806C47.8802 38.8806 48.7001 38.3608 48.7001 37.5708ZM13.4702 36.9807C13.4702 36.1907 12.9202 35.3408 11.8902 35.3408C10.8602 35.3408 10.3102 36.1907 10.3102 36.9807C10.3102 37.7607 10.8602 38.6208 11.8902 38.6208C12.9202 38.6208 13.4702 37.7607 13.4702 36.9807ZM19.6502 36.9807C19.6502 36.1907 19.1001 35.3408 18.0701 35.3408C17.0401 35.3408 16.4902 36.1907 16.4902 36.9807C16.4902 37.7607 17.0401 38.6208 18.0701 38.6208C19.1001 38.6208 19.6502 37.7607 19.6502 36.9807ZM25.7602 37.5007C25.7602 37.4407 25.7601 37.3708 25.8301 37.3108C25.8301 37.2408 25.8301 37.1108 25.8301 37.0408C25.8301 36.9808 25.8301 36.8508 25.8301 36.7808V36.7207C25.8301 36.6507 25.7602 36.5207 25.7602 36.4507C25.5502 35.8007 24.9401 35.3408 24.3201 35.3408C23.4901 35.3408 22.8102 36.1307 22.8102 36.9807C22.8102 37.9007 23.4902 38.6208 24.3902 38.6208C24.9402 38.6208 25.4902 38.1607 25.7602 37.5007ZM30.7702 36.9106L33.3201 35.8608C33.0401 35.4008 32.6302 35.2708 32.2902 35.2708C31.2602 35.2708 30.6402 36.3206 30.7702 36.9106ZM41.2802 34.6807C41.2802 34.0307 40.7302 33.5708 39.9802 33.5708H38.6002V35.8608H40.0502C40.7302 35.8008 41.2802 35.2707 41.2802 34.6807Z" fill="white"/>
</g>
</g>
</svg>
