<svg width="28" height="28" viewBox="0 0 28 28" fill="none" xmlns="http://www.w3.org/2000/svg">
<path fill-rule="evenodd" clip-rule="evenodd" d="M14.5 0C7.04415 0 1 6.04415 1 13.5C1 20.9559 7.04415 27 14.5 27C21.9559 27 28 20.9559 28 13.5C28 6.04415 21.9559 0 14.5 0ZM14.6575 15.0429V12.3979H22.0906C22.1581 12.7836 22.2143 13.1693 22.2143 13.6764C22.2143 18.0845 19.2005 21.2143 14.6575 21.2143C10.3055 21.2143 6.78571 17.7649 6.78571 13.5C6.78571 9.2351 10.3055 5.78571 14.6575 5.78571C16.7828 5.78571 18.5595 6.54612 19.9315 7.80245L17.7949 9.81923C17.2101 9.26817 16.1868 8.62898 14.6575 8.62898C11.9698 8.62898 9.77697 10.811 9.77697 13.5C9.77697 16.189 11.9698 18.371 14.6575 18.371C17.7724 18.371 18.9419 16.1779 19.1218 15.0429H14.6575Z" fill="white"/>
</svg>
