<svg width="19" height="19" viewBox="0 0 19 19" fill="none" xmlns="http://www.w3.org/2000/svg">
<circle cx="9.5" cy="9.5" r="9.5" fill="#E46442"/>
<path d="M8.854 4.298H10.604V6.734L10.296 10.808H9.162L8.854 6.734V4.298ZM9.722 12.11C10.002 12.11 10.2307 12.2033 10.408 12.39C10.5947 12.5767 10.688 12.8147 10.688 13.104C10.688 13.4027 10.5947 13.65 10.408 13.846C10.2307 14.0327 10.002 14.126 9.722 14.126C9.45133 14.126 9.22267 14.028 9.036 13.832C8.85867 13.636 8.77 13.3933 8.77 13.104C8.77 12.8147 8.85867 12.5767 9.036 12.39C9.22267 12.2033 9.45133 12.11 9.722 12.11Z" fill="white"/>
</svg>
