<svg width="15" height="13" viewBox="0 0 15 13" fill="none" xmlns="http://www.w3.org/2000/svg">
<path d="M1.75781 0.992188H13.2422C14.2114 0.992188 15 1.78074 15 2.75V10.25C15 11.2193 14.2114 12.0078 13.2422 12.0078H1.75781C0.788555 12.0078 0 11.2193 0 10.25V2.75C0 1.78074 0.788555 0.992188 1.75781 0.992188ZM1.17188 10.25C1.17188 10.5731 1.43473 10.8359 1.75781 10.8359H13.2422C13.5653 10.8359 13.8281 10.5731 13.8281 10.25V5.26953H1.17188V10.25ZM1.17188 3.51172H13.8281V2.75C13.8281 2.42691 13.5653 2.16406 13.2422 2.16406H1.75781C1.43473 2.16406 1.17188 2.42691 1.17188 2.75V3.51172Z" fill="black"/>
</svg>
