<svg width="24" height="24" viewBox="0 0 24 24" fill="none" xmlns="http://www.w3.org/2000/svg">
<path d="M22.7038 21.6234L17.5858 16.4462C17.2499 16.1065 16.7115 16.1065 16.381 16.4462C16.0505 16.786 16.0451 17.3307 16.381 17.665L21.499 22.8422C21.6642 23.0094 21.8828 23.0957 22.1014 23.0957C22.32 23.0957 22.5385 23.0094 22.7038 22.8422C23.0397 22.5078 23.0397 21.9578 22.7038 21.6234Z" fill="#666666" stroke="#666666" stroke-width="0.5"/>
<path d="M10.4264 18.0834C6.19339 18.0834 2.74944 14.5996 2.74944 10.3177C2.74944 6.03571 6.19339 2.5519 10.4264 2.5519C14.6593 2.5519 18.1033 6.03571 18.1033 10.3177C18.1033 14.5996 14.6593 18.0834 10.4264 18.0834ZM10.4264 0.826172C5.2551 0.826172 1.04346 5.08656 1.04346 10.3177C1.04346 15.5488 5.2551 19.8092 10.4264 19.8092C15.5976 19.8092 19.8093 15.5488 19.8093 10.3177C19.8093 5.08656 15.5976 0.826172 10.4264 0.826172Z" fill="#666666" stroke="#666666" stroke-width="0.5"/>
</svg>
