<svg width="25" height="22" viewBox="0 0 25 22" fill="none" xmlns="http://www.w3.org/2000/svg">
<path d="M22.4667 1.03809C23.3292 1.03809 24 1.71798 24 2.59213V14.8303C24 15.7044 23.3292 16.3843 22.4667 16.3843H18.7292L18.3458 20.7551L14.7042 16.3843H2.53333C1.67083 16.3843 1 15.7044 1 14.8303V2.59213C1 1.71798 1.67083 1.03809 2.53333 1.03809H22.4667Z" stroke="#0D5DA7" stroke-width="2" stroke-miterlimit="10" stroke-linecap="round" stroke-linejoin="round"/>
<path d="M10 9.0577C10 9.66836 9.6 10.0755 9 10.0755C8.4 10.0755 8 9.66836 8 9.0577C8 8.44704 8.4 8.03993 9 8.03993C9.6 7.83637 10 8.44704 10 9.0577Z" fill="#0D5DA7"/>
<path d="M14 9.0577C14 9.66836 13.6 10.0755 13 10.0755C12.4 10.0755 12 9.66836 12 9.0577C12 8.44704 12.4 8.03993 13 8.03993C13.6 7.83637 14 8.44704 14 9.0577Z" fill="#0D5DA7"/>
<path d="M18 9.0577C18 9.66836 17.6 10.0755 17 10.0755C16.4 10.0755 16 9.66836 16 9.0577C16 8.44704 16.4 8.03993 17 8.03993C17.6 7.83637 18 8.44704 18 9.0577Z" fill="#0D5DA7"/>
</svg>
