<svg width="15" height="15" viewBox="0 0 15 15" fill="none" xmlns="http://www.w3.org/2000/svg">
<path d="M3.68 12.0799L11.66 4.09995L12.89 5.32995L4.91 13.3099L3.68 12.0799ZM1.07 13.9299V10.9899L2.54 12.4599L4.01 13.9299H1.07ZM11.98 1.09994C12.47 1.16995 12.91 1.38994 13.27 1.73994C14.02 2.49994 14.13 3.64995 13.6 4.52995L12.04 2.96994L10.47 1.39994C10.92 1.12994 11.45 1.01994 11.98 1.09994ZM14.02 0.979945C13.5 0.459945 12.85 0.139945 12.13 0.0299449C11.08 -0.120055 10.04 0.229945 9.29 0.979945C9.08 1.18994 9.08 1.52994 9.29 1.73994C9.3 1.74994 9.32 1.74994 9.33 1.75994C9.34 1.76994 9.34 1.78994 9.36 1.79994L10.91 3.34994L2.93 11.3299L1.69 10.0999L8.46 3.32994C8.67 3.11994 8.67 2.77994 8.46 2.56994C8.25 2.35994 7.91 2.35994 7.7 2.56994L0.56 9.71994L0.16 10.1199C0.11 10.1699 0.07 10.2299 0.04 10.2999C0.01 10.3599 0 10.4299 0 10.4999V14.4699C0 14.7599 0.24 14.9999 0.54 14.9999H4.51C4.65 14.9999 4.79 14.9399 4.89 14.8399L14.03 5.69994C15.33 4.40995 15.33 2.27994 14.02 0.979945Z" fill="white"/>
</svg>
