<svg width="54" height="54" viewBox="0 0 54 54" fill="none" xmlns="http://www.w3.org/2000/svg">
<path d="M17.5063 16C17.1028 16.0564 16.78 16.4231 16.78 16.8461V18.8204H14.8969C14.87 18.8204 14.8431 18.8204 14.8162 18.8204C14.4127 18.8768 14.0898 19.2435 14.0898 19.6665V37.1532C14.0898 37.6326 14.4396 37.9993 14.8969 37.9993H39.108C39.5654 37.9993 39.9151 37.6326 39.9151 37.1532V19.6665C39.9151 19.1871 39.5654 18.8204 39.108 18.8204H37.225V16.8461C37.225 16.3667 36.8752 16 36.4179 16C33.1629 16 29.8002 16.3948 27.0025 18.3691C24.2047 16.3948 20.8421 16 17.587 16C17.5601 16 17.5332 16 17.5063 16ZM18.3941 17.7204C21.2725 17.7769 24.0164 18.2281 26.1954 19.8076V35.3199C23.7743 33.8815 20.8152 33.5712 18.3941 33.5148V17.7204ZM35.6109 17.7204V33.5148C33.1898 33.5712 30.2306 33.8815 27.8095 35.3199V19.8076C29.9885 18.2281 32.7324 17.7769 35.6109 17.7204Z" fill="#444444"/>
<circle cx="27" cy="27" r="26.5" stroke="#4C4C4C"/>
</svg>
