<svg width="22" height="22" viewBox="0 0 22 22" fill="none" xmlns="http://www.w3.org/2000/svg">
<path d="M18.2733 6.45487C19.7797 6.45487 21.0008 5.23375 21.0008 3.72743C21.0008 2.22111 19.7797 1 18.2733 1C16.767 1 15.5459 2.22111 15.5459 3.72743C15.5459 5.23375 16.767 6.45487 18.2733 6.45487Z" stroke="#B2B2B2" stroke-miterlimit="10" stroke-linecap="round" stroke-linejoin="round"/>
<path d="M18.2733 21.0017C19.7797 21.0017 21.0008 19.7806 21.0008 18.2743C21.0008 16.768 19.7797 15.5469 18.2733 15.5469C16.767 15.5469 15.5459 16.768 15.5459 18.2743C15.5459 19.7806 16.767 21.0017 18.2733 21.0017Z" stroke="#B2B2B2" stroke-miterlimit="10" stroke-linecap="round" stroke-linejoin="round"/>
<path d="M3.72743 13.7283C5.23375 13.7283 6.45487 12.5072 6.45487 11.0009C6.45487 9.49455 5.23375 8.27344 3.72743 8.27344C2.22111 8.27344 1 9.49455 1 11.0009C1 12.5072 2.22111 13.7283 3.72743 13.7283Z" stroke="#B2B2B2" stroke-miterlimit="10" stroke-linecap="round" stroke-linejoin="round"/>
<path d="M15.8181 4.91016L6.18115 9.81954" stroke="#B2B2B2" stroke-miterlimit="10" stroke-linecap="round" stroke-linejoin="round"/>
<path d="M6.18115 12.1836L15.8181 17.093" stroke="#B2B2B2" stroke-miterlimit="10" stroke-linecap="round" stroke-linejoin="round"/>
</svg>
