<svg width="17" height="14" viewBox="0 0 17 14" fill="none" xmlns="http://www.w3.org/2000/svg">
<path d="M16.3878 2.32956H9.34765L7.09903 0.169628C6.99307 0.0565428 6.84003 0 6.67521 0H0.612188C0.270776 0 0 0.260097 0 0.588045C0 0.915993 0.270776 1.17609 0.612188 1.17609H6.42798L8.67659 3.33603C8.79432 3.44911 8.94737 3.50565 9.10042 3.50565H15.7756V12.8352H1.2126V2.91761C1.2126 2.60097 0.941828 2.32956 0.600416 2.32956C0.259003 2.32956 0 2.58966 0 2.91761V13.412C0 13.7399 0.270776 14 0.612188 14H16.3878C16.7292 14 17 13.7399 17 13.412V2.91761C16.9882 2.58966 16.7175 2.32956 16.3878 2.32956Z" fill="white"/>
</svg>
