<svg width="36" height="27" viewBox="0 0 36 27" fill="none" xmlns="http://www.w3.org/2000/svg">
<path d="M9.73784 16.3381H2.74665C1.2028 16.3381 1.03613 16.1797 1.03613 14.6459V2.69226C1.03613 1.15845 1.2028 1 2.74665 1H23.6062C25.1501 1 25.3167 1.15845 25.3167 2.69226V10" stroke="#136EB7" stroke-width="1.3" stroke-miterlimit="10" stroke-linecap="round" stroke-linejoin="round"/>
<path d="M1.03613 5.32324H25.3167" stroke="#136EB7" stroke-width="1.3" stroke-miterlimit="10" stroke-linecap="round" stroke-linejoin="round"/>
<path d="M33.0095 10.3906C34.5534 10.3906 34.72 10.5491 34.72 12.0829V24.0365C34.72 25.5703 34.5534 25.7288 33.0095 25.7288H12.15C10.6061 25.7288 10.4395 25.5703 10.4395 24.0365V12.0829C10.4395 10.5491 10.6061 10.3906 12.15 10.3906H33.0095Z" stroke="#136EB7" stroke-width="1.3" stroke-miterlimit="10" stroke-linecap="round" stroke-linejoin="round"/>
<path d="M16.3867 16.6641H28.4481" stroke="#136EB7" stroke-width="1.3" stroke-miterlimit="10" stroke-linecap="round" stroke-linejoin="round"/>
<path d="M16.3867 20.0117H22.2164" stroke="#136EB7" stroke-width="1.3" stroke-miterlimit="10" stroke-linecap="round" stroke-linejoin="round"/>
</svg>
