<svg width="40" height="42" viewBox="0 0 40 42" fill="none" xmlns="http://www.w3.org/2000/svg">
<path d="M4.8433 41.1523H4.85307L4.86283 41.1516C5.91099 41.0832 6.90434 40.6146 7.67178 39.8418L16.1029 31.3522C16.3988 31.0542 16.3988 30.5848 16.1029 30.2868C15.8058 29.9877 15.3361 29.9877 15.039 30.2868L6.60788 38.7764C6.09103 39.2968 5.43069 39.5987 4.76017 39.6479C4.10995 39.6879 3.5417 39.4779 3.14163 39.0751L2.77311 38.704C1.93011 37.8552 2.00346 36.2906 3.07871 35.2078L11.2402 26.9898C11.5361 26.6918 11.5361 26.2224 11.2402 25.9244C10.9431 25.6252 10.4734 25.6252 10.1763 25.9244L2.01544 34.1418C2.01537 34.1419 2.0153 34.1419 2.01523 34.142C0.411953 35.747 0.231585 38.2725 1.7092 39.7604L2.07773 40.1314C2.7393 40.7976 3.62624 41.1523 4.59162 41.1523H4.59209H4.59257H4.59304H4.59352H4.59399H4.59447H4.59494H4.59542H4.59589H4.59637H4.59685H4.59732H4.5978H4.59828H4.59875H4.59923H4.59971H4.60019H4.60066H4.60114H4.60162H4.6021H4.60258H4.60305H4.60353H4.60401H4.60449H4.60497H4.60545H4.60593H4.60641H4.60689H4.60737H4.60785H4.60833H4.60881H4.60929H4.60977H4.61026H4.61074H4.61122H4.6117H4.61218H4.61266H4.61315H4.61363H4.61411H4.61459H4.61508H4.61556H4.61604H4.61653H4.61701H4.6175H4.61798H4.61846H4.61895H4.61943H4.61992H4.6204H4.62089H4.62137H4.62186H4.62234H4.62283H4.62331H4.6238H4.62429H4.62477H4.62526H4.62575H4.62623H4.62672H4.62721H4.62769H4.62818H4.62867H4.62915H4.62964H4.63013H4.63062H4.63111H4.63159H4.63208H4.63257H4.63306H4.63355H4.63404H4.63453H4.63502H4.63551H4.63599H4.63648H4.63697H4.63746H4.63795H4.63844H4.63893H4.63942H4.63992H4.64041H4.6409H4.64139H4.64188H4.64237H4.64286H4.64335H4.64384H4.64434H4.64483H4.64532H4.64581H4.6463H4.64679H4.64729H4.64778H4.64827H4.64876H4.64926H4.64975H4.65024H4.65074H4.65123H4.65172H4.65222H4.65271H4.6532H4.6537H4.65419H4.65468H4.65518H4.65567H4.65617H4.65666H4.65716H4.65765H4.65814H4.65864H4.65913H4.65963H4.66012H4.66062H4.66111H4.66161H4.6621H4.6626H4.6631H4.66359H4.66409H4.66458H4.66508H4.66557H4.66607H4.66657H4.66706H4.66756H4.66806H4.66855H4.66905H4.66954H4.67004H4.67054H4.67104H4.67153H4.67203H4.67253H4.67302H4.67352H4.67402H4.67452H4.67501H4.67551H4.67601H4.67651H4.677H4.6775H4.678H4.6785H4.67899H4.67949H4.67999H4.68049H4.68099H4.68148H4.68198H4.68248H4.68298H4.68348H4.68398H4.68447H4.68497H4.68547H4.68597H4.68647H4.68697H4.68747H4.68797H4.68847H4.68896H4.68946H4.68996H4.69046H4.69096H4.69146H4.69196H4.69246H4.69296H4.69346H4.69396H4.69446H4.69496H4.69546H4.69595H4.69645H4.69695H4.69745H4.69795H4.69845H4.69895H4.69945H4.69995H4.70045H4.70095H4.70145H4.70195H4.70245H4.70295H4.70345H4.70395H4.70445H4.70495H4.70545H4.70595H4.70645H4.70695H4.70745H4.70795H4.70845H4.70895H4.70945H4.70995H4.71045H4.71095H4.71145H4.71195H4.71246H4.71296H4.71346H4.71396H4.71446H4.71496H4.71546H4.71596H4.71646H4.71696H4.71746H4.71796H4.71846H4.71896H4.71946H4.71996H4.72046H4.72096H4.72146H4.72196H4.72246H4.72296H4.72346H4.72396H4.72446H4.72496H4.72546H4.72596H4.72646H4.72696H4.72746H4.72796H4.72846H4.72896H4.72946H4.72996H4.73046H4.73096H4.73146H4.73196H4.73246H4.73296H4.73346H4.73396H4.73446H4.73496H4.73546H4.73596H4.73646H4.73696H4.73746H4.73796H4.73846H4.73896H4.73946H4.73996H4.74046H4.74096H4.74146H4.74196H4.74246H4.74296H4.74346H4.74396H4.74445H4.74495H4.74545H4.74595H4.74645H4.74695H4.74745H4.74795H4.74845H4.74895H4.74944H4.74994H4.75044H4.75094H4.75144H4.75194H4.75244H4.75293H4.75343H4.75393H4.75443H4.75493H4.75542H4.75592H4.75642H4.75692H4.75742H4.75791H4.75841H4.75891H4.75941H4.7599H4.7604H4.7609H4.7614H4.76189H4.76239H4.76289H4.76338H4.76388H4.76438H4.76487H4.76537H4.76587H4.76636H4.76686H4.76736H4.76785H4.76835H4.76885H4.76934H4.76984H4.77033H4.77083H4.77133H4.77182H4.77232H4.77281H4.77331H4.7738H4.7743H4.77479H4.77529H4.77578H4.77628H4.77677H4.77727H4.77776H4.77826H4.77875H4.77924H4.77974H4.78023H4.78073H4.78122H4.78171H4.78221H4.7827H4.78319H4.78369H4.78418H4.78467H4.78517H4.78566H4.78615H4.78664H4.78714H4.78763H4.78812H4.78861H4.78911H4.7896H4.79009H4.79058H4.79107H4.79156H4.79206H4.79255H4.79304H4.79353H4.79402H4.79451H4.795H4.79549H4.79598H4.79647H4.79696H4.79745H4.79794H4.79843H4.79892H4.79941H4.7999H4.80039H4.80088H4.80137H4.80186H4.80235H4.80283H4.80332H4.80381H4.8043H4.80479H4.80527H4.80576H4.80625H4.80674H4.80722H4.80771H4.8082H4.80868H4.80917H4.80966H4.81014H4.81063H4.81112H4.8116H4.81209H4.81257H4.81306H4.81354H4.81403H4.81451H4.815H4.81548H4.81597H4.81645H4.81694H4.81742H4.8179H4.81839H4.81887H4.81936H4.81984H4.82032H4.8208H4.82129H4.82177H4.82225H4.82273H4.82322H4.8237H4.82418H4.82466H4.82514H4.82562H4.8261H4.82659H4.82707H4.82755H4.82803H4.82851H4.82899H4.82947H4.82995H4.83043H4.8309H4.83138H4.83186H4.83234H4.83282H4.8333H4.83378H4.83425H4.83473H4.83521H4.83569H4.83616H4.83664H4.83712H4.83759H4.83807H4.83855H4.83902H4.8395H4.83997H4.84045H4.84092H4.8414H4.84187H4.84235H4.84282H4.8433Z" fill="white" stroke="white" stroke-width="0.6"/>
<path d="M12.4184 27.929C12.2896 28.2375 12.5029 28.5322 12.805 28.6201C12.8685 28.6406 12.9398 28.65 12.9998 28.65C13.2396 28.65 13.4956 28.5276 13.591 28.2919C14.7691 25.3952 18.0498 23.4282 21.7711 23.4282H25.3984C28.988 23.4282 32.2331 25.3024 33.4859 28.0621C33.6089 28.352 33.9722 28.4647 34.2696 28.3712C34.5797 28.2814 34.777 27.9716 34.6359 27.6672C33.1933 24.4746 29.4671 22.35 25.3984 22.35H21.7711C17.5503 22.35 13.7842 24.5851 12.4184 27.929Z" fill="white" stroke="white" stroke-width="0.3"/>
<circle cx="23.5" cy="16.5" r="15.35" stroke="white" stroke-width="2.3"/>
<path d="M16.85 16.0671C16.85 19.9628 19.8232 23.1505 23.5 23.1505C27.1768 23.1505 30.15 19.9628 30.15 16.0671C30.15 12.1715 27.1768 8.98379 23.5 8.98379C19.8232 8.98379 16.85 12.1715 16.85 16.0671ZM18.0553 16.0671C18.0553 12.8253 20.5058 10.207 23.5 10.207C26.4942 10.207 28.9447 12.8253 28.9447 16.0671C28.9447 19.3089 26.4942 21.9272 23.5 21.9272C20.5058 21.9272 18.0553 19.3089 18.0553 16.0671Z" fill="white" stroke="white" stroke-width="0.3"/>
</svg>
