<svg width="10" height="13" viewBox="0 0 10 13" fill="none" xmlns="http://www.w3.org/2000/svg">
<path d="M1.5 3.75C1.5 3.33579 1.16421 3 0.75 3C0.335786 3 0 3.33579 0 3.75V10.25C0 10.6642 0.335786 11 0.75 11C1.16421 11 1.5 10.6642 1.5 10.25V3.75Z" fill="white"/>
<path d="M9.5 3.75C9.5 3.33579 9.16421 3 8.75 3C8.33579 3 8 3.33579 8 3.75V10.25C8 10.6642 8.33579 11 8.75 11C9.16421 11 9.5 10.6642 9.5 10.25V3.75Z" fill="white"/>
<path d="M5.5 0.75C5.5 0.335786 5.16421 0 4.75 0C4.33579 0 4 0.335786 4 0.75V12.25C4 12.6642 4.33579 13 4.75 13C5.16421 13 5.5 12.6642 5.5 12.25V0.75Z" fill="white"/>
</svg>
