<svg width="17" height="18" viewBox="0 0 17 18" fill="none" xmlns="http://www.w3.org/2000/svg">
<path d="M15.7461 6.82422L8.99609 12.6326C8.74609 12.8353 8.30859 12.8353 7.99609 12.6326L1.24609 6.82422" stroke="#5997D0" stroke-width="1.2" stroke-miterlimit="10" stroke-linecap="round" stroke-linejoin="round"/>
<path d="M1.125 6.82531C1.1875 6.48761 1.5 6.08237 1.75 5.87975L8 1.15196C8.25 0.949345 8.75 0.949345 9 1.15196L15.25 5.87975C15.5 6.08237 15.8125 6.48761 15.875 6.82531C15.9375 7.16301 16 7.70333 16 8.04102V15.8756C16 16.4835 15.5625 16.9563 15 16.9563H2C1.4375 16.9563 1 16.4835 1 15.8756V8.04102C1 7.63579 1.0625 7.09547 1.125 6.82531Z" stroke="#5997D0" stroke-width="1.2" stroke-miterlimit="10" stroke-linecap="round" stroke-linejoin="round"/>
</svg>
