<svg width="30" height="30" viewBox="0 0 30 30" fill="none" xmlns="http://www.w3.org/2000/svg">
<path d="M15 29C22.732 29 29 22.732 29 15C29 7.26801 22.732 1 15 1C7.26801 1 1 7.26801 1 15C1 22.732 7.26801 29 15 29Z" stroke="#136EB7" stroke-width="1.3" stroke-miterlimit="10" stroke-linecap="round" stroke-linejoin="round"/>
<path d="M15.0004 18.7331C15.0004 18.7331 14.7671 16.3998 17.2171 14.4165C18.3837 13.4831 18.8504 12.5498 18.8504 11.2665C18.8504 9.04981 17.1004 7.2998 15.0004 7.2998C12.9004 7.2998 11.1504 8.93315 11.1504 11.1498" stroke="#136EB7" stroke-width="1.5" stroke-miterlimit="10" stroke-linecap="round" stroke-linejoin="round"/>
<path d="M15 24C15.5523 24 16 23.5523 16 23C16 22.4477 15.5523 22 15 22C14.4477 22 14 22.4477 14 23C14 23.5523 14.4477 24 15 24Z" fill="#136EB7"/>
</svg>
