<svg width="32" height="32" viewBox="0 0 32 32" fill="none" xmlns="http://www.w3.org/2000/svg">
<path d="M15.2914 22.707C15.4864 22.9025 15.7424 23 15.9984 23C16.2544 23 16.5099 22.9025 16.7054 22.707L21.7054 17.707C22.0959 17.3165 22.0959 16.6835 21.7054 16.293C21.3149 15.9025 20.6819 15.9025 20.2914 16.293L16.9984 19.586V5C16.9984 4.448 16.5504 4 15.9984 4C15.4464 4 14.9984 4.448 14.9984 5V19.586L11.7054 16.293C11.3154 15.9025 10.6814 15.9025 10.2914 16.293C9.90091 16.6835 9.90091 17.3165 10.2914 17.707L15.2914 22.707Z" fill="#126CBB"/>
<path d="M9 28H23C24.6545 28 26 26.6545 26 25V21C26 20.448 25.552 20 25 20C24.448 20 24 20.448 24 21V25C24 25.5515 23.5515 26 23 26H9C8.4485 26 8 25.5515 8 25V21C8 20.448 7.552 20 7 20C6.448 20 6 20.448 6 21V25C6 26.6545 7.3455 28 9 28Z" fill="#126CBB"/>
</svg>
