<svg width="15" height="15" viewBox="0 0 15 15" fill="none" xmlns="http://www.w3.org/2000/svg">
<path d="M1.51144 14C1.32364 14 1.18279 13.9068 1.08889 13.8136C0.994995 13.7204 0.948045 13.4875 1.08889 13.1613L2.26263 10.2258C2.45043 9.75986 2.87297 9.15412 3.20162 8.82796L10.7135 1.32616C10.9013 1.13978 11.183 1 11.4647 1C11.7464 1 12.0281 1.09319 12.2159 1.32616L13.6714 2.77061C13.8592 2.95699 14 3.23656 14 3.51613C14 3.7957 13.9061 4.07527 13.6714 4.26165L6.15944 11.7634C5.83079 12.0896 5.22045 12.509 4.75095 12.6953L1.88703 13.9068C1.74619 14 1.60534 14 1.51144 14Z" stroke="#0481DB" stroke-width="1.3" stroke-miterlimit="10" stroke-linecap="round" stroke-linejoin="round"/>
<path d="M9.35693 2.85712L12.1426 5.64283" stroke="#0481DB" stroke-width="1.3" stroke-miterlimit="10" stroke-linecap="round" stroke-linejoin="round"/>
</svg>
