<svg width="20" height="18" viewBox="0 0 20 18" fill="none" xmlns="http://www.w3.org/2000/svg">
<g clip-path="url(#clip0)">
<path d="M2.27534 9.78829C1.20166 8.26197 0.57008 6.60934 0.959554 4.7146C1.71745 0.988286 5.99113 -0.401188 8.87534 2.12513C9.07534 2.30408 9.27534 2.49355 9.4964 2.70408C10.3385 1.85144 11.2543 1.17776 12.4227 0.956707C15.9911 0.26197 18.9069 3.46197 18.0122 7.09355C17.6543 8.49355 16.8964 9.66197 16.0017 10.7567C14.2648 12.8725 12.1806 14.5778 9.92798 16.1041C9.7385 16.2304 9.32797 16.262 9.14903 16.1462C6.5385 14.3778 4.11745 12.3988 2.27534 9.78829Z" stroke="#292929" stroke-width="1.6" stroke-miterlimit="10" stroke-linecap="round" stroke-linejoin="round"/>
</g>
<defs>
<clipPath id="clip0">
<rect width="20" height="17.8947" fill="white"/>
</clipPath>
</defs>
</svg>
