<svg width="25" height="20" viewBox="0 0 25 20" fill="none" xmlns="http://www.w3.org/2000/svg">
<path d="M18.27 12.36H6.23V1.75H18.26V12.36H18.27ZM23.62 19.69C24.1 19.69 24.5 19.3 24.5 18.81V8.31C24.5 7.83 24.11 7.43 23.62 7.43H20.01V0.88C20.01 0.4 19.62 0 19.13 0H5.36C4.88 0 4.48 0.39 4.48 0.88V7.44H0.88C0.39 7.44 0 7.83 0 8.31C0 8.79 0.39 9.19 0.88 9.19H4.49V13.24C4.49 13.72 4.88 14.12 5.37 14.12H19.15C19.63 14.12 20.03 13.73 20.03 13.24V9.19H22.76V17.94H1.76V11.82C1.76 11.34 1.37 10.94 0.88 10.94C0.39 10.94 0 11.33 0 11.81V18.81C0 19.29 0.39 19.69 0.88 19.69H23.62Z" fill="white"/>
</svg>
