<svg width="48" height="48" viewBox="0 0 48 48" fill="none" xmlns="http://www.w3.org/2000/svg">
<circle cx="24" cy="24" r="24" fill="#1AB334"/>
<path d="M11.8498 19.3692C11.8498 19.3692 10.6814 19.3692 9.62161 20.4007V16.2446H7V27.1647H9.64855V26.3094C9.64855 26.3094 10.2734 27.4376 11.8498 27.4376C11.8498 27.4376 15.544 27.3016 15.544 23.3623C15.544 23.3628 15.4084 19.3692 11.8498 19.3692ZM11.2726 25.1326C10.3427 25.1326 9.58805 24.3784 9.58805 23.448C9.58805 22.518 10.3427 21.7634 11.2726 21.7634C12.2026 21.7634 12.9568 22.518 12.9568 23.448C12.9568 24.3784 12.2026 25.1326 11.2726 25.1326Z" fill="white"/>
<path d="M16.386 16V18.5271C16.386 18.5271 17.5823 18.4724 17.5823 20.7005V27.1651H20.1085V20.1031C20.1089 20.1031 20.2167 16 16.386 16Z" fill="white"/>
<path d="M26.2865 19.4032C26.2865 19.4032 21.9556 19.4036 21.9556 23.448C21.9556 23.448 21.8156 27.438 26.2865 27.438C26.2865 27.438 30.7172 27.4314 30.7172 23.448C30.7172 23.448 30.8616 19.4032 26.2865 19.4032ZM26.2874 25.1326C25.3574 25.1326 24.6028 24.3784 24.6028 23.448C24.6028 22.518 25.3574 21.7634 26.2874 21.7634C27.2173 21.7634 27.9715 22.518 27.9715 23.448C27.9715 24.3784 27.2173 25.1326 26.2874 25.1326Z" fill="white"/>
<path d="M37.9497 19.6677V20.4007C37.9497 20.4007 37.196 19.4032 35.7503 19.4032C35.7503 19.4032 32.042 19.2464 32.042 23.4201C32.042 23.4201 32.0009 27.3082 35.6483 27.3082C35.6483 27.3082 37.1359 27.3696 37.9502 26.3098V26.9218C37.9502 26.9218 38.1343 28.8369 36.2797 28.8369H35.6483V31.1587H36.667C36.667 31.1587 40.4972 31.2002 40.4972 27.0644V19.6677H37.9497ZM36.383 25.1326C35.4527 25.1326 34.6989 24.3784 34.6989 23.448C34.6989 22.518 35.4527 21.7634 36.383 21.7634C37.3125 21.7634 38.0672 22.518 38.0672 23.448C38.0672 24.3784 37.3125 25.1326 36.383 25.1326Z" fill="white"/>
</svg>
