<svg width="17" height="18" viewBox="0 0 17 18" fill="none" xmlns="http://www.w3.org/2000/svg">
<path d="M15.832 15.8014L12.4214 12.1206C12.1976 11.8791 11.8388 11.8791 11.6185 12.1206C11.3983 12.3622 11.3947 12.7494 11.6185 12.9871L15.0291 16.6679C15.1392 16.7867 15.2849 16.8481 15.4305 16.8481C15.5762 16.8481 15.7218 16.7867 15.832 16.6679C16.0558 16.4301 16.0558 16.0391 15.832 15.8014Z" fill="#4186C4" stroke="#4186C4"/>
<path d="M7.87916 13.0762C4.94842 13.0762 2.56397 10.6384 2.56397 7.64193C2.56397 4.64552 4.94842 2.20762 7.87916 2.20762C10.8099 2.20762 13.1944 4.64552 13.1944 7.64193C13.1944 10.6384 10.8099 13.0762 7.87916 13.0762ZM7.87916 1C4.29879 1 1.38281 3.98132 1.38281 7.64193C1.38281 11.3025 4.29879 14.2839 7.87916 14.2839C11.4595 14.2839 14.3755 11.3025 14.3755 7.64193C14.3755 3.98132 11.4595 1 7.87916 1Z" fill="#4186C4" stroke="#4186C4"/>
</svg>
