<svg width="48" height="48" viewBox="0 0 48 48" fill="none" xmlns="http://www.w3.org/2000/svg">
<path d="M24.1511 31.3067C26.1609 31.3067 27.8809 30.5911 29.3119 29.1607C30.7427 27.7302 31.4581 26.0094 31.4581 23.9997V12.3078C31.4581 10.2981 30.7432 8.57795 29.3119 7.14678C27.8809 5.71594 26.1609 5 24.1511 5C22.1415 5 20.4213 5.71594 18.9902 7.14678C17.559 8.57771 16.8436 10.2981 16.8436 12.3078V23.9997C16.8436 26.0093 17.5593 27.7302 18.9902 29.1607C20.421 30.5911 22.1415 31.3067 24.1511 31.3067Z" fill="white"/>
<path d="M36.8731 20.0496C36.5846 19.7603 36.2413 19.6156 35.8455 19.6156C35.4501 19.6156 35.1076 19.7603 34.8179 20.0496C34.529 20.3388 34.3843 20.6813 34.3843 21.077V24.0002C34.3843 26.8168 33.3831 29.2258 31.3811 31.2277C29.3797 33.2298 26.9703 34.2308 24.1537 34.2308C21.3371 34.2308 18.928 33.2298 16.9259 31.2277C14.924 29.2264 13.9232 26.8168 13.9232 24.0002V21.077C13.9232 20.6813 13.7785 20.3388 13.4894 20.0496C13.2001 19.7603 12.8579 19.6156 12.4618 19.6156C12.0657 19.6156 11.7231 19.7603 11.434 20.0496C11.1446 20.3388 11 20.6813 11 21.077V24.0002C11 27.3647 12.123 30.2917 14.3683 32.7806C16.6137 35.2695 19.3883 36.6967 22.6921 37.0618V40.0765H16.8461C16.4503 40.0765 16.1078 40.2214 15.8186 40.5107C15.5293 40.7997 15.3846 41.1424 15.3846 41.5382C15.3846 41.9334 15.5293 42.2767 15.8186 42.5658C16.1078 42.8549 16.4503 42.9999 16.8461 42.9999H31.4608C31.8566 42.9999 32.1996 42.8549 32.4884 42.5658C32.778 42.2768 32.9228 41.9335 32.9228 41.5382C32.9228 41.1425 32.778 40.7998 32.4884 40.5107C32.1996 40.2214 31.8567 40.0765 31.4608 40.0765H25.6156V37.0618C28.9188 36.6967 31.6932 35.2695 33.9388 32.7806C36.1845 30.2917 37.3078 27.3647 37.3078 24.0002V21.077C37.3078 20.6814 37.1628 20.3391 36.8731 20.0496Z" fill="white"/>
</svg>
