<svg width="22" height="22" viewBox="0 0 22 22" fill="none" xmlns="http://www.w3.org/2000/svg">
<path fill-rule="evenodd" clip-rule="evenodd" d="M11.2817 5.48889C11.5594 4.33371 11.8371 1.25322 14.1511 0.945175C16.2799 0.714139 17.7608 2.10036 17.298 3.79462C16.9278 4.87279 15.7245 5.71992 14.3362 5.71992H11.1892H8.22733C6.74639 5.71992 5.45058 4.79578 5.1729 3.6406C4.61755 1.0992 9.33803 -0.055982 10.5413 2.48542C11.0966 3.56359 11.0966 4.87279 11.2817 5.48889Z" stroke="white" stroke-width="1.5" stroke-miterlimit="10" stroke-linecap="round" stroke-linejoin="round"/>
<path d="M18.9745 10.5791V19.9597C18.9745 20.5459 18.529 21.0485 17.9053 21.0485H4.00555C3.38185 21.0485 2.93634 20.5459 2.93634 19.9597V10.5791" stroke="white" stroke-width="1.5" stroke-miterlimit="10" stroke-linecap="round" stroke-linejoin="round"/>
<path d="M19.9546 6.39136C20.4892 6.39136 21.0238 6.89389 21.0238 7.48017V9.32278C21.0238 9.90907 20.5783 10.4116 19.9546 10.4116H2.04529C1.42158 10.4116 0.976074 9.90907 0.976074 9.32278V7.48017C0.976074 6.89389 1.42158 6.39136 2.04529 6.39136H19.9546Z" stroke="white" stroke-width="1.5" stroke-miterlimit="10" stroke-linecap="round" stroke-linejoin="round"/>
<path d="M10.9489 10.4241L11 21.0799" stroke="white" stroke-width="1.5" stroke-miterlimit="10" stroke-linecap="round" stroke-linejoin="round"/>
<path d="M16.3024 15.75L5.64645 15.754" stroke="white" stroke-width="1.5" stroke-miterlimit="10" stroke-linecap="round" stroke-linejoin="round"/>
</svg>
