<svg width="30" height="30" viewBox="0 0 30 30" fill="none" xmlns="http://www.w3.org/2000/svg">
<g clip-path="url(#clip0)">
<path d="M7.35816 24.1616L23.3142 8.20595L25.7736 10.6653L9.81754 26.6209L7.35816 24.1616ZM2.13946 27.8606V21.9822L5.07873 24.9214L8.01799 27.8606H2.13946ZM23.954 2.20759C24.9338 2.34755 25.8135 2.78743 26.5334 3.48724C28.033 5.00682 28.2529 7.3062 27.1932 9.06572L24.074 5.94657L20.9348 2.80742C21.8345 2.26757 22.8943 2.04763 23.954 2.20759ZM28.033 1.96765C26.9932 0.927937 25.6936 0.288112 24.2539 0.068172C22.1545 -0.231746 20.075 0.468063 18.5754 1.96765C18.1555 2.38754 18.1555 3.06735 18.5754 3.48724C18.5953 3.50723 18.6353 3.50723 18.6553 3.52723C18.6753 3.54722 18.6753 3.58721 18.7153 3.60721L21.8145 6.70636L5.85853 22.662L3.37915 20.2027L16.9158 6.66637C17.3357 6.24649 17.3357 5.56667 16.9158 5.14679C16.4959 4.7269 15.816 4.7269 15.3961 5.14679L1.11972 19.4429L0.31992 20.2427C0.219945 20.3426 0.139965 20.4626 0.07998 20.6026C0.019995 20.7225 0 20.8625 0 21.0025V28.9403C0 29.5201 0.47988 30 1.07973 30H9.01774C9.29767 30 9.5776 29.88 9.77755 29.6801L28.053 11.4051C30.6523 8.82578 30.6523 4.56694 28.033 1.96765Z" fill="white"/>
</g>
<defs>
<clipPath id="clip0">
<rect width="30" height="30" fill="white"/>
</clipPath>
</defs>
</svg>
