<svg width="8" height="3" viewBox="0 0 8 3" fill="none" xmlns="http://www.w3.org/2000/svg">
<path d="M7.40039 0.447266C7.40039 1.06445 7.2168 1.58594 6.84961 2.01172C6.48633 2.43359 6.03711 2.64453 5.50195 2.64453C5.2207 2.64453 4.95508 2.59375 4.70508 2.49219C4.45508 2.38672 4.16406 2.18945 3.83203 1.90039C3.50391 1.61133 3.26758 1.43164 3.12305 1.36133C2.97852 1.29102 2.82422 1.25586 2.66016 1.25586C2.35547 1.25586 2.12109 1.36133 1.95703 1.57227C1.79297 1.7793 1.71094 2.06641 1.71094 2.43359L0.767578 2.44531C0.767578 1.82031 0.947266 1.30664 1.30664 0.904297C1.66602 0.501953 2.11719 0.300781 2.66016 0.300781C2.95703 0.300781 3.24219 0.363281 3.51562 0.488281C3.78906 0.613281 4.09766 0.833984 4.44141 1.15039C4.78516 1.46289 5.08203 1.63867 5.33203 1.67773L5.50195 1.68945C5.79883 1.68945 6.03906 1.57617 6.22266 1.34961C6.41016 1.12305 6.50391 0.824219 6.50391 0.453125L7.40039 0.447266Z" fill="#757575"/>
</svg>
