<svg width="18" height="18" viewBox="0 0 18 18" fill="none" xmlns="http://www.w3.org/2000/svg">
<path d="M16.6783 13.0397C16.1528 12.5887 15.5523 12.2129 14.9518 11.762C13.7508 10.9353 12.6999 10.8601 11.7991 12.2129C11.2737 12.9645 10.5981 12.9645 9.92257 12.6639C7.97093 11.762 6.39461 10.4092 5.49385 8.37996C5.04347 7.47808 5.04347 6.65136 5.94423 6.05011C6.46967 5.74948 6.92005 5.29854 6.92005 4.62213C6.84498 3.64509 4.59309 0.488518 3.61727 0.112735C3.24196 -0.0375783 2.86664 -0.0375783 2.49132 0.112735C0.314494 0.864301 -0.5112 2.5929 0.314494 4.62213C2.86664 10.785 7.29536 15.1441 13.4505 17.7745C13.8259 17.9248 14.2012 18 14.3513 18C15.7775 18 17.3538 16.6472 17.8793 15.3695C18.3296 14.167 17.4289 13.6409 16.6783 13.0397Z" fill="#5897D0"/>
</svg>
