<svg width="48" height="48" viewBox="0 0 48 48" fill="none" xmlns="http://www.w3.org/2000/svg">
<path fill-rule="evenodd" clip-rule="evenodd" d="M27.3536 6.67411L24.4081 3.44124C24.3394 3.36588 24.2209 3.36588 24.1522 3.44124L21.2067 6.67411C20.4325 7.52392 19.2342 7.845 18.1388 7.49617L13.9715 6.16915C13.8744 6.13822 13.7717 6.19751 13.7499 6.2971L12.8155 10.5696C12.5699 11.6927 11.6927 12.5699 10.5696 12.8155L6.2971 13.7499C6.19751 13.7717 6.13822 13.8744 6.16915 13.9715L7.49617 18.1388C7.845 19.2342 7.52392 20.4325 6.67411 21.2067L3.44124 24.1522C3.36588 24.2209 3.36588 24.3394 3.44124 24.4081L6.67411 27.3536C7.52392 28.1278 7.845 29.3261 7.49617 30.4215L6.16915 34.5888C6.13822 34.6859 6.19751 34.7886 6.2971 34.8104L10.5696 35.7448C11.6927 35.9904 12.5699 36.8676 12.8155 37.9907L13.7499 42.2632C13.7717 42.3628 13.8744 42.4221 13.9715 42.3912L18.1388 41.0641C19.2342 40.7153 20.4325 41.0364 21.2067 41.8862L24.1522 45.1191C24.2209 45.1944 24.3394 45.1944 24.4081 45.1191L27.3536 41.8862C28.1278 41.0364 29.3261 40.7153 30.4215 41.0641L34.5888 42.3912C34.6859 42.4221 34.7886 42.3628 34.8104 42.2632L35.7448 37.9907C35.9904 36.8676 36.8676 35.9904 37.9907 35.7448L42.2632 34.8104C42.3628 34.7886 42.4221 34.6859 42.3912 34.5888L41.0641 30.4215C40.7153 29.3261 41.0364 28.1278 41.8862 27.3536L45.1191 24.4081C45.1944 24.3394 45.1944 24.2209 45.1191 24.1522L41.8862 21.2067C41.0364 20.4325 40.7153 19.2342 41.0641 18.1388L42.3912 13.9715C42.4221 13.8744 42.3628 13.7717 42.2632 13.7499L37.9907 12.8155C36.8676 12.5699 35.9904 11.6927 35.7448 10.5696L34.8104 6.2971C34.7886 6.19751 34.6859 6.13822 34.5888 6.16915L30.4215 7.49617C29.3261 7.845 28.1278 7.52392 27.3536 6.67411ZM25.4317 2.50865C24.8138 1.83045 23.7465 1.83045 23.1286 2.50865L20.1832 5.74152C19.7733 6.19142 19.1389 6.3614 18.5589 6.17673L14.3917 4.84971C13.5174 4.57132 12.5932 5.10495 12.3971 6.00125L11.4627 10.2737C11.3327 10.8683 10.8683 11.3327 10.2737 11.4627L6.00125 12.3971C5.10495 12.5932 4.57132 13.5174 4.84971 14.3917L6.17673 18.5589C6.3614 19.1389 6.19142 19.7733 5.74152 20.1832L2.50865 23.1286C1.83045 23.7465 1.83045 24.8138 2.50865 25.4317L5.74152 28.3771C6.19142 28.787 6.3614 29.4214 6.17673 30.0014L4.84971 34.1686C4.57132 35.0429 5.10496 35.9671 6.00125 36.1632L10.2737 37.0976C10.8683 37.2276 11.3327 37.692 11.4627 38.2866L12.3971 42.5591C12.5932 43.4553 13.5174 43.989 14.3917 43.7106L18.5589 42.3836C19.1389 42.1989 19.7733 42.3689 20.1832 42.8188L23.1286 46.0517C23.7465 46.7299 24.8138 46.7299 25.4317 46.0516L28.3771 42.8188C28.787 42.3689 29.4214 42.1989 30.0014 42.3836L34.1686 43.7106C35.0429 43.989 35.9671 43.4553 36.1632 42.5591L37.0976 38.2866C37.2276 37.692 37.692 37.2276 38.2866 37.0976L42.5591 36.1632C43.4553 35.9671 43.989 35.0429 43.7106 34.1686L42.3836 30.0014C42.1989 29.4214 42.3689 28.787 42.8188 28.3771L46.0517 25.4317C46.7299 24.8138 46.7299 23.7465 46.0516 23.1286L42.8188 20.1832C42.3689 19.7733 42.1989 19.1389 42.3836 18.5589L43.7106 14.3917C43.989 13.5174 43.4553 12.5932 42.5591 12.3971L38.2866 11.4627C37.692 11.3327 37.2276 10.8683 37.0976 10.2737L36.1632 6.00125C35.9671 5.10495 35.0429 4.57132 34.1686 4.84971L30.0014 6.17673C29.4214 6.3614 28.787 6.19142 28.3771 5.74152L25.4317 2.50865Z" fill="black"/>
<path d="M19.0456 16.4979C20.1989 16.4979 21.0717 16.957 21.6639 17.8753C22.2562 18.778 22.5523 20.0542 22.5523 21.704C22.5523 23.3538 22.264 24.6456 21.6873 25.5794C21.1262 26.4977 20.2457 26.9569 19.0456 26.9569C17.9391 26.9569 17.0897 26.4977 16.4974 25.5794C15.9208 24.6456 15.6324 23.3538 15.6324 21.704C15.6324 20.0542 15.9052 18.778 16.4507 17.8753C16.9962 16.957 17.8611 16.4979 19.0456 16.4979ZM29.7293 16.7313L20.4717 33.4003H18.6716L27.9292 16.7313H29.7293ZM19.0456 17.9453C18.4534 17.9453 18.017 18.2644 17.7364 18.9025C17.4715 19.5251 17.339 20.4589 17.339 21.704C17.339 22.9491 17.4715 23.8908 17.7364 24.5289C18.017 25.167 18.4534 25.4861 19.0456 25.4861C20.2457 25.4861 20.8457 24.2254 20.8457 21.704C20.8457 19.1982 20.2457 17.9453 19.0456 17.9453ZM29.2617 23.1748C30.3994 23.1748 31.2644 23.6339 31.8566 24.5522C32.4645 25.4549 32.7684 26.7312 32.7684 28.381C32.7684 30.0307 32.4801 31.3225 31.9034 32.2564C31.3423 33.1747 30.4618 33.6338 29.2617 33.6338C28.1552 33.6338 27.3058 33.1747 26.7135 32.2564C26.1369 31.3225 25.8485 30.0307 25.8485 28.381C25.8485 26.7312 26.1213 25.4549 26.6668 24.5522C27.2123 23.6339 28.0772 23.1748 29.2617 23.1748ZM29.2617 24.6456C28.6695 24.6456 28.2331 24.9569 27.9526 25.5794C27.6876 26.202 27.5551 27.1358 27.5551 28.381C27.5551 29.6416 27.6876 30.591 27.9526 31.2292C28.2331 31.8517 28.6695 32.163 29.2617 32.163C30.4618 32.163 31.0618 30.9023 31.0618 28.381C31.0618 25.8907 30.4618 24.6456 29.2617 24.6456Z" fill="#246AAD"/>
</svg>
