<svg width="34" height="24" viewBox="0 0 34 24" fill="none" xmlns="http://www.w3.org/2000/svg">
<path d="M20.5966 7.23125L18.0268 9.42705L15.2665 16.2658C15.1549 16.5425 14.9252 16.7549 14.6406 16.8448L1.30076 21.0575C1.2018 21.0888 1.10041 21.1039 0.999884 21.1039C0.738707 21.1039 0.483242 21.0015 0.292892 20.8112C0.0292873 20.5474 -0.065815 20.159 0.046566 19.8033L4.25924 6.46343C4.34921 6.1784 4.56197 5.94864 4.83929 5.83712L11.6559 3.09426L13.8694 0.503905C14.0505 0.291994 14.3118 0.165332 14.5902 0.15448C14.8674 0.144341 15.1391 0.24944 15.3362 0.446501L20.654 5.76458C20.8511 5.96164 20.9569 6.23195 20.946 6.51055C20.935 6.78901 20.8084 7.05018 20.5966 7.23125ZM3.18412 16.5062L9.9019 9.78833C10.2922 9.39806 10.925 9.39792 11.3156 9.78833C11.7059 10.1786 11.7059 10.8116 11.3156 11.2019L4.59796 17.9197L13.5889 15.0803L16.0056 9.09305L12.0164 5.10385L6.02322 7.51542L3.18412 16.5062ZM14.6868 2.62459L13.6166 3.87693L17.2236 7.48386L18.4759 6.41373L14.6868 2.62459Z" fill="#505050"/>
<path d="M0.999584 21.8474H33.0004C33.5525 21.8474 34 22.2949 34 22.847C34 23.3991 33.5525 23.8466 33.0004 23.8466H0.999584C0.447529 23.8466 0 23.3991 0 22.847C0 22.2949 0.447529 21.8474 0.999584 21.8474Z" fill="#505050"/>
</svg>
