<svg width="17" height="20" viewBox="0 0 17 20" fill="none" xmlns="http://www.w3.org/2000/svg">
<path d="M15.74 17.4484C15.74 18.1784 15.15 18.7784 14.43 18.7784H2.31C1.59 18.7784 1 18.1784 1 17.4484V5.97844C1 5.24844 1.59 4.64844 2.31 4.64844H14.43C15.15 4.64844 15.74 5.24844 15.74 5.97844V17.4484Z" stroke="#292929" stroke-width="1.6" stroke-miterlimit="10" stroke-linecap="round" stroke-linejoin="round"/>
<path d="M5.84004 6.50156C5.84004 6.72156 5.66004 6.90156 5.44004 6.90156C5.22004 6.90156 5.04004 6.72156 5.04004 6.50156C5.04004 6.28156 5.22004 6.10156 5.44004 6.10156C5.66004 6.10156 5.84004 6.28156 5.84004 6.50156Z" stroke="#292929" stroke-width="1.6" stroke-miterlimit="10" stroke-linecap="round" stroke-linejoin="round"/>
<path d="M11.6916 6.50156C11.6916 6.72156 11.5116 6.90156 11.2916 6.90156C11.0716 6.90156 10.8916 6.72156 10.8916 6.50156C10.8916 6.28156 11.0716 6.10156 11.2916 6.10156C11.5116 6.10156 11.6916 6.28156 11.6916 6.50156Z" stroke="#292929" stroke-width="1.6" stroke-miterlimit="10" stroke-linecap="round" stroke-linejoin="round"/>
<path d="M5.5 6.01V4.49C5.5 2.04 6.78 1 8.37 1C9.95 1 11.24 2.04 11.24 4.49V6.02" stroke="#292929" stroke-width="1.6" stroke-miterlimit="10" stroke-linecap="round" stroke-linejoin="round"/>
</svg>
