<svg width="86" height="48" viewBox="0 0 86 48" fill="none" xmlns="http://www.w3.org/2000/svg">
<rect width="86" height="48" fill="white"/>
<rect x="4" width="78" height="48" rx="24" fill="#E66148"/>
<path d="M26.4443 24.3784H22.2256V27.2349H27.1768V29H20.0283V18.3359H27.1621V20.1157H22.2256V22.6572H26.4443V24.3784ZM32.7812 26.356L35.1982 18.3359H37.6445L33.9312 29H31.6387L27.9399 18.3359H30.3789L32.7812 26.356ZM45.4463 24.3784H41.2275V27.2349H46.1787V29H39.0303V18.3359H46.1641V20.1157H41.2275V22.6572H45.4463V24.3784ZM56.5146 29H54.3174L50.04 21.9834V29H47.8428V18.3359H50.04L54.3247 25.3672V18.3359H56.5146V29ZM66.6162 20.1157H63.3496V29H61.1523V20.1157H57.9297V18.3359H66.6162V20.1157Z" fill="white"/>
</svg>
