<svg width="48" height="48" viewBox="0 0 48 48" fill="none" xmlns="http://www.w3.org/2000/svg">
<path fill-rule="evenodd" clip-rule="evenodd" d="M46 40.8182V7H2V40.8182H46ZM31.4545 8.63636H16.9091V12.4545H31.4545V8.63636ZM33.0909 8.63636V12.4545H44.3636V8.63636H33.0909ZM3.63636 14.0909V33.5455H44.3636V14.0909H3.63636ZM3.63636 8.63636H15.2727V12.4545H3.63636V8.63636ZM3.63636 35.1818V39.1818H15.2727V35.1818H3.63636ZM33.0909 39.1818H44.3636V35.1818H33.0909V39.1818ZM31.4545 35.1818H16.9091V39.1818H31.4545V35.1818Z" fill="black"/>
<path fill-rule="evenodd" clip-rule="evenodd" d="M31.2727 23.8182L18.3182 18.3859L18.3182 29.2505L31.2727 23.8182ZM27.0412 23.8182L19.9545 20.8465L19.9545 26.7899L27.0412 23.8182Z" fill="#246AAD"/>
</svg>
