<svg width="34" height="29" viewBox="0 0 34 29" fill="none" xmlns="http://www.w3.org/2000/svg">
<path d="M17 28.0625V8.25404M17 28.0625C18.4222 23.6793 25.8889 21.1787 29.4444 20.4763V6.14676M17 28.0625C23.7556 23.6793 30.6296 24.8313 33 26.3766V6.56821C33 6.56821 30.3333 6.00627 29.4444 6.14676M17 28.0625C15.5778 23.6793 8.11111 21.1787 4.55556 20.4763V6.14676M17 28.0625C10.2444 23.6793 3.37037 24.8313 1 26.3766V6.56821C1 6.56821 3.66667 6.00627 4.55556 6.14676M17 8.25404C21 2.77511 29.4444 1.51074 29.4444 1.51074V6.14676M17 8.25404C13 2.77511 4.55556 1.51074 4.55556 1.51074V6.14676" stroke="#136EB7" stroke-width="1.2" stroke-linecap="round" stroke-linejoin="round"/>
<path d="M20.3855 10.7833C21.5707 9.51897 24.4744 6.99023 26.6077 6.99023M20.3855 14.155C21.5707 12.8906 24.4744 10.3619 26.6077 10.3619M20.3855 17.5266C21.5707 16.2623 24.4744 13.7335 26.6077 13.7335M20.3855 20.8983C21.5707 19.6339 24.4744 17.1052 26.6077 17.1052M13.4439 10.7833C12.2587 9.51897 9.35501 6.99023 7.22168 6.99023M13.4439 14.155C12.2587 12.8906 9.35501 10.3619 7.22168 10.3619M13.4439 17.5266C12.2587 16.2623 9.35501 13.7335 7.22168 13.7335M13.4439 20.8983C12.2587 19.6339 9.35501 17.1052 7.22168 17.1052" stroke="#136EB7" stroke-width="1.2"/>
</svg>
