<svg width="18" height="18" viewBox="0 0 18 18" fill="none" xmlns="http://www.w3.org/2000/svg">
<path d="M4.16748 14.3667L13.2122 5.32401L14.6052 6.71666L5.56043 15.7594L4.16748 14.3667ZM1.21457 16.4576V13.1297L2.877 14.7917L4.53944 16.4538H1.21457V16.4576ZM13.5766 1.91261C14.1307 1.99229 14.6355 2.24274 15.034 2.64118C15.888 3.49878 16.0095 4.80794 15.406 5.79835L13.6411 4.03383L11.8686 2.26172C12.3772 1.95435 12.9731 1.82912 13.5766 1.91261ZM15.8956 1.78359C15.3111 1.19921 14.5672 0.827329 13.7512 0.709695C12.5594 0.542729 11.3866 0.93358 10.5364 1.78359C10.2972 2.02265 10.2972 2.40591 10.5364 2.64118C10.5477 2.65257 10.5667 2.65636 10.5781 2.66774C10.5895 2.67913 10.5933 2.6981 10.6047 2.70949L12.3544 4.45883L3.30969 13.5053L1.91674 12.1127L11.2993 2.73605C11.5384 2.49698 11.5384 2.11372 11.2993 1.87845C11.0601 1.63939 10.6768 1.63939 10.4415 1.87845L0.630056 11.6839L0.178389 12.1354C0.121457 12.1924 0.0759104 12.2607 0.0455462 12.3328C0.0151821 12.4087 0 12.4846 0 12.5642V17.0647C0 17.3987 0.273277 17.6719 0.607283 17.6719H5.10877C5.26818 17.6719 5.4238 17.6074 5.53766 17.4935L15.8918 7.14166C17.3721 5.66553 17.3721 3.25971 15.8956 1.78359Z" fill="#777777"/>
</svg>
