<svg width="24" height="21" viewBox="0 0 24 21" fill="none" xmlns="http://www.w3.org/2000/svg">
<path d="M13.4167 2.41876L13.4168 2.41875C14.6751 1.15853 16.2441 0.500046 17.9648 0.500046C19.5239 0.500046 20.9394 1.12814 21.9618 2.26784L22.334 1.93397L21.9618 2.26784C22.9479 3.36712 23.5 4.85246 23.5 6.45855C23.5 8.63601 22.3412 10.6967 20.2758 12.9682C18.4846 14.9383 16.0735 17.0023 13.2877 19.3871C12.8668 19.7475 12.4372 20.1152 12 20.491C11.5572 20.1103 11.1221 19.738 10.6958 19.3731C7.92315 16.9999 5.51889 14.9421 3.72998 12.9757C1.66257 10.7032 0.5 8.63914 0.5 6.45855C0.5 3.17854 2.80137 0.5 6.03516 0.5C7.75599 0.5 9.3249 1.15848 10.5832 2.41874C11.0233 2.85954 11.3529 3.30061 11.5813 3.65047L12 4.29206L12.4187 3.65045C12.6471 3.30054 12.9767 2.85944 13.4167 2.41876ZM12.019 20.5073L12.0189 20.5072L12.019 20.5073Z" fill="white" stroke="#B3B3B3"/>
</svg>
