<svg width="48" height="48" viewBox="0 0 48 48" fill="none" xmlns="http://www.w3.org/2000/svg">
<path d="M6.38035 43.7671C9.77489 47.1258 15.2691 47.0965 18.6277 43.702L18.904 43.4227L18.8029 15.9246L12.2867 4.15393L6 15.9944L6.10109 43.4908L6.38035 43.7671ZM16.9629 35.0486L16.9721 36.7728L7.96408 36.8205L7.95857 35.0965L16.9629 35.0486ZM11.4965 33.1813L11.411 17.1537L13.314 17.1434L13.3994 33.171L11.4965 33.1813ZM8.53041 15.2724L10.472 11.6158L14.2387 11.5956L16.2514 15.2314L8.53041 15.2724ZM16.9103 17.1242L16.9624 33.1522L15.2957 33.1611L15.2105 17.1333L16.9103 17.1242ZM13.1919 9.70483L11.4817 9.71393L12.3215 8.13238L13.1919 9.70483ZM7.90037 17.1722L9.51473 17.1636L9.59998 33.1914L7.95214 33.2001L7.90037 17.1722ZM7.97248 38.7618L16.9824 38.7139L17.0034 42.6323C14.4573 44.9332 10.5637 44.9537 7.99315 42.6802L7.97248 38.7618Z" fill="black"/>
<path fill-rule="evenodd" clip-rule="evenodd" d="M24.517 2.42333C24.517 1.63725 25.1542 1 25.9403 1H40.0723C40.8583 1 41.4956 1.63725 41.4956 2.42333V44.9132C41.4956 45.6993 40.8583 46.3365 40.0723 46.3365H25.9403C25.1542 46.3365 24.517 45.6993 24.517 44.9132V2.42333ZM39.87 2.62561H26.1426V9.30868H31.2V10.9343H26.1426V15.0886H31.2V16.7142H26.1426V20.688H31.2V22.3136H26.1426V26.4679H31.2V28.0935H26.1426V32.2479H31.2V33.8735H26.1426V37.8472H31.2V39.4728H26.1426V44.7109H39.87V2.62561Z" fill="#246AAD"/>
</svg>
