<svg width="17" height="16" viewBox="0 0 17 16" fill="none" xmlns="http://www.w3.org/2000/svg">
<path d="M3.01469 15.9202C2.20874 15.9202 1.45145 15.6061 0.881883 15.0367C-0.293961 13.8607 -0.293961 11.9472 0.881883 10.7713L10.2059 1.44683C10.9571 0.694852 11.9569 0.28125 13.0199 0.28125C14.083 0.28125 15.0828 0.694852 15.834 1.44683C16.5859 2.19859 17 3.1978 17 4.26073C17 5.32386 16.5864 6.32303 15.8346 7.07435L8.49455 14.4137C8.27417 14.634 7.91731 14.634 7.69704 14.4137C7.47667 14.1934 7.47667 13.8365 7.69704 13.6161L15.0369 6.27674C15.5757 5.73808 15.872 5.02203 15.872 4.26073C15.872 3.49956 15.5751 2.78306 15.0364 2.24433C14.4977 1.70568 13.7816 1.40924 13.0199 1.40924C12.2582 1.40924 11.5422 1.70568 11.0034 2.24433L1.67949 11.5688C0.943666 12.3053 0.943666 13.5028 1.67949 14.2391C2.39326 14.9519 3.63597 14.9519 4.34971 14.2391L10.6107 7.97765C10.7809 7.80741 10.8784 7.57176 10.8784 7.33154C10.8784 7.08797 10.7832 6.85837 10.6102 6.6854C10.2544 6.3296 9.67437 6.32853 9.31857 6.6854L5.04263 10.9618C4.82239 11.1822 4.46535 11.1822 4.24512 10.9618C4.02475 10.7416 4.02475 10.3846 4.24512 10.1644L8.52092 5.88793C9.31629 5.0926 10.6113 5.0926 11.4077 5.88793C11.7939 6.27397 12.0064 6.78684 12.0064 7.33158C12.0064 7.86909 11.7883 8.39512 11.4083 8.77516L5.14735 15.0367C4.57779 15.6061 3.82045 15.9202 3.01469 15.9202Z" fill="#999999"/>
</svg>
