<svg width="38" height="38" viewBox="0 0 38 38" fill="none" xmlns="http://www.w3.org/2000/svg">
<path d="M32.2173 10.7391C34.9547 10.7391 37.1738 8.51998 37.1738 5.78257C37.1738 3.04516 34.9547 0.82605 32.2173 0.82605C29.4799 0.82605 27.2607 3.04516 27.2607 5.78257C27.2607 8.51998 29.4799 10.7391 32.2173 10.7391Z" stroke="white" stroke-miterlimit="10" stroke-linecap="round" stroke-linejoin="round"/>
<path d="M32.2173 37.1739C34.9547 37.1739 37.1738 34.9548 37.1738 32.2174C37.1738 29.48 34.9547 27.2609 32.2173 27.2609C29.4799 27.2609 27.2607 29.48 27.2607 32.2174C27.2607 34.9548 29.4799 37.1739 32.2173 37.1739Z" stroke="white" stroke-miterlimit="10" stroke-linecap="round" stroke-linejoin="round"/>
<path d="M5.78269 23.9565C8.5201 23.9565 10.7392 21.7374 10.7392 19C10.7392 16.2626 8.5201 14.0435 5.78269 14.0435C3.04528 14.0435 0.826172 16.2626 0.826172 19C0.826172 21.7374 3.04528 23.9565 5.78269 23.9565Z" stroke="white" stroke-miterlimit="10" stroke-linecap="round" stroke-linejoin="round"/>
<path d="M27.7567 7.93042L10.2437 16.8522" stroke="white" stroke-miterlimit="10" stroke-linecap="round" stroke-linejoin="round"/>
<path d="M10.2437 21.1478L27.7567 30.0696" stroke="white" stroke-miterlimit="10" stroke-linecap="round" stroke-linejoin="round"/>
</svg>
