<svg width="18" height="16" viewBox="0 0 18 16" fill="none" xmlns="http://www.w3.org/2000/svg">
<path d="M3.08428 16C2.25973 16 1.48495 15.6787 0.902242 15.0961C-0.300747 13.8929 -0.300747 11.9352 0.902242 10.7322L10.4415 1.19248C11.2101 0.423151 12.2329 0 13.3204 0C14.4081 0 15.431 0.423151 16.1995 1.19248C16.9688 1.9616 17.3925 2.98388 17.3925 4.07134C17.3925 5.15902 16.9693 6.18126 16.2001 6.94992L8.69065 14.4587C8.46519 14.6841 8.10008 14.6841 7.87473 14.4587C7.64927 14.2333 7.64927 13.8682 7.87473 13.6427L15.3841 6.1339C15.9353 5.58281 16.2384 4.85023 16.2384 4.07134C16.2384 3.2926 15.9346 2.55956 15.3836 2.0084C14.8324 1.45731 14.0998 1.15403 13.3204 1.15403C12.5412 1.15403 11.8087 1.45731 11.2575 2.0084L1.71826 11.5482C0.965451 12.3016 0.965451 13.5268 1.71826 14.2801C2.44851 15.0093 3.71991 15.0093 4.45012 14.2801L10.8556 7.87408C11.0298 7.69991 11.1296 7.45881 11.1296 7.21305C11.1296 6.96386 11.0321 6.72896 10.8551 6.55199C10.4911 6.18798 9.89771 6.18689 9.5337 6.55199L5.15904 10.9271C4.93372 11.1526 4.56844 11.1526 4.34312 10.9271C4.11766 10.7018 4.11766 10.3365 4.34312 10.1113L8.71764 5.73611C9.53136 4.92242 10.8562 4.92242 11.6711 5.73611C12.0661 6.13107 12.2836 6.65577 12.2836 7.21309C12.2836 7.76301 12.0605 8.30119 11.6717 8.68999L5.26618 15.0961C4.68347 15.6787 3.90865 16 3.08428 16Z" fill="#999999"/>
</svg>
