<svg width="51" height="46" viewBox="0 0 51 46" fill="none" xmlns="http://www.w3.org/2000/svg">
<g opacity="0.8">
<g opacity="0.8">
<path opacity="0.8" d="M31.8802 13.0602C31.8802 10.0302 34.4302 8.57009 34.5302 8.47009C33.0602 6.32009 30.9101 6.03015 30.1201 6.03015C28.2601 5.83015 26.4002 7.10022 25.5202 7.10022C24.4402 7.10022 22.9802 6.03015 21.4102 6.03015C19.3502 6.12015 17.4902 7.30018 16.4202 9.06018C14.2602 12.7702 15.8302 18.2502 17.8802 21.2802C18.9602 22.7402 20.1401 24.4102 21.7001 24.3102C23.2701 24.2102 23.8601 23.3302 25.7201 23.3302C27.5801 23.3302 28.0701 24.3102 29.7301 24.3102C31.3901 24.3102 32.4701 22.84 33.4501 21.38C34.6301 19.71 35.1201 18.0501 35.1201 17.9501C35.1201 17.8601 31.8802 16.6802 31.8802 13.0602Z" fill="#C8C8C8"/>
<path opacity="0.8" d="M28.8501 4.07031C29.6301 2.99031 30.2201 1.63016 30.1201 0.160156C28.9501 0.260156 27.3801 0.940264 26.6001 2.02026C25.7201 2.90026 25.0301 4.36022 25.2301 5.73022C26.6001 5.83022 27.9701 5.05031 28.8501 4.07031Z" fill="#C8C8C8"/>
</g>
<g opacity="0.8">
<path opacity="0.8" d="M7.4198 43.1799H5.97974L5.19971 40.8101H2.45972L1.73975 43.1799H0.299805L3.0498 35.1299H4.73975L7.4198 43.1799ZM4.9397 39.8101L4.21973 37.6899C4.15973 37.4999 4.01977 36.9399 3.75977 36.1899C3.69977 36.4999 3.56975 37.0699 3.36975 37.6899L2.64978 39.8101H4.9397Z" fill="white"/>
<path opacity="0.8" d="M14.4093 40.1899C14.4093 41.1899 14.1493 41.9301 13.5593 42.5601C13.0393 43.0601 12.4493 43.3101 11.6693 43.3101C10.8793 43.3101 10.2892 43.06 9.96924 42.5V45.55H8.59924V39.3101C8.59924 38.6901 8.5993 38.0599 8.5293 37.3799H9.70923L9.76929 38.3101C10.2293 37.6301 10.8793 37.25 11.7993 37.25C12.5093 37.25 13.0993 37.5001 13.5593 38.0601C14.1493 38.6301 14.4093 39.3099 14.4093 40.1899ZM13.0393 40.25C13.0393 39.69 12.9093 39.1899 12.6393 38.8799C12.3793 38.4999 11.9892 38.3101 11.4692 38.3101C11.1392 38.3101 10.8193 38.4399 10.5593 38.6299C10.2893 38.8099 10.0993 39.1299 10.0293 39.4399C9.9693 39.6199 9.96924 39.7501 9.96924 39.8101V40.8101C9.96924 41.2501 10.0993 41.5601 10.3593 41.8701C10.6193 42.1801 11.0093 42.3101 11.3993 42.3101C11.9293 42.3101 12.3192 42.12 12.5792 41.75C12.9092 41.37 13.0393 40.87 13.0393 40.25Z" fill="white"/>
<path opacity="0.8" d="M21.3995 40.1899C21.3995 41.1899 21.1296 41.9301 20.5496 42.5601C20.0196 43.0601 19.4395 43.3101 18.6495 43.3101C17.8695 43.3101 17.2795 43.06 16.9495 42.5V45.55H15.5795V39.3101C15.5795 38.6901 15.5795 38.0599 15.5195 37.3799H16.6895L16.7595 38.3101C17.2195 37.6301 17.8695 37.25 18.7795 37.25C19.4995 37.25 20.0896 37.5001 20.5496 38.0601C21.1296 38.6301 21.3995 39.3099 21.3995 40.1899ZM20.0195 40.25C20.0195 39.69 19.8895 39.1899 19.6295 38.8799C19.3695 38.4999 18.9795 38.3101 18.4595 38.3101C18.1295 38.3101 17.7996 38.4399 17.5396 38.6299C17.2796 38.8099 17.0895 39.1299 17.0195 39.4399C16.9495 39.6199 16.9495 39.7501 16.9495 39.8101V40.8101C16.9495 41.2501 17.0895 41.5601 17.3495 41.8701C17.6095 42.1801 17.9995 42.3101 18.3895 42.3101C18.9095 42.3101 19.3095 42.12 19.5695 41.75C19.8895 41.37 20.0195 40.87 20.0195 40.25Z" fill="white"/>
<path opacity="0.8" d="M29.1698 40.9402C29.1698 41.6202 28.9097 42.1804 28.4497 42.6204C27.9297 43.1204 27.1398 43.3103 26.1598 43.3103C25.2498 43.3103 24.5298 43.1203 24.0098 42.8103L24.3297 41.7502C24.9197 42.0602 25.5698 42.2502 26.2898 42.2502C26.8198 42.2502 27.2097 42.1202 27.4697 41.9302C27.7297 41.6802 27.8597 41.4303 27.8597 41.0603C27.8597 40.7503 27.7298 40.4402 27.5298 40.2502C27.2698 40.0002 26.8797 39.8101 26.3597 39.6301C24.8597 39.1301 24.1398 38.3103 24.1398 37.3203C24.1398 36.6303 24.3998 36.1302 24.9198 35.6902C25.4398 35.2602 26.0998 35.0703 27.0098 35.0703C27.7898 35.0703 28.3798 35.1902 28.9098 35.4402L28.5797 36.5002C28.1197 36.2602 27.5997 36.1301 26.9497 36.1301C26.4897 36.1301 26.0997 36.2602 25.8397 36.4402C25.6397 36.6302 25.5098 36.8802 25.5098 37.1902C25.5098 37.5002 25.6398 37.7502 25.8998 38.0002C26.0998 38.1902 26.5498 38.3801 27.1398 38.6301C27.8598 38.8801 28.3798 39.2501 28.7698 39.6301C29.0398 39.8701 29.1698 40.3702 29.1698 40.9402Z" fill="white"/>
<path opacity="0.8" d="M33.6693 38.3105H32.1693V41.1804C32.1693 41.8704 32.4292 42.2505 32.9492 42.2505C33.2192 42.2505 33.4093 42.2504 33.5393 42.1804L33.6093 43.1804C33.3493 43.3104 33.0193 43.3105 32.5593 43.3105C32.0393 43.3105 31.5792 43.1806 31.3192 42.8706C30.9992 42.5606 30.8593 42.0605 30.8593 41.3105V38.3804H29.9492V37.3804H30.8593V36.3206L32.1693 35.9404V37.3804H33.6693V38.3105Z" fill="white"/>
<path opacity="0.8" d="M40.4 40.25C40.4 41.12 40.14 41.8699 39.62 42.4299C39.03 42.9899 38.31 43.3101 37.4 43.3101C36.48 43.3101 35.76 42.9899 35.24 42.4299C34.72 41.8699 34.46 41.1901 34.46 40.3101C34.46 39.4401 34.7201 38.6899 35.3101 38.1299C35.8301 37.5699 36.61 37.25 37.53 37.25C38.44 37.25 39.1601 37.5699 39.6801 38.1299C40.1401 38.6299 40.4 39.38 40.4 40.25ZM38.96 40.25C38.96 39.69 38.8299 39.2499 38.5699 38.8799C38.3099 38.4399 37.85 38.1899 37.33 38.1899C36.81 38.1899 36.35 38.4399 36.09 38.8799C35.83 39.2499 35.7 39.75 35.7 40.25C35.7 40.81 35.83 41.2501 36.09 41.6201C36.35 42.0601 36.81 42.3101 37.33 42.3101C37.85 42.3101 38.2399 42.0601 38.5699 41.6201C38.8299 41.2501 38.96 40.81 38.96 40.25Z" fill="white"/>
<path opacity="0.8" d="M44.7695 38.5005C44.6395 38.5005 44.5095 38.4404 44.3195 38.4404C43.8595 38.4404 43.4695 38.6304 43.2095 38.9404C43.0095 39.2504 42.8795 39.6205 42.8795 40.0605V43.1206H41.5095V39.1304C41.5095 38.4404 41.5095 37.8806 41.4395 37.3206H42.6195L42.6796 38.4404H42.7495C42.8795 38.0604 43.1395 37.7505 43.3995 37.5005C43.7295 37.3205 44.0595 37.1904 44.3795 37.1904C44.5095 37.1904 44.6395 37.1904 44.7095 37.1904V38.5005H44.7695Z" fill="white"/>
<path opacity="0.8" d="M50.7794 40C50.7794 40.25 50.7794 40.4401 50.7194 40.5601H46.6694C46.6694 41.1201 46.8594 41.5601 47.2594 41.8701C47.5794 42.1201 48.0394 42.3101 48.5594 42.3101C49.1494 42.3101 49.7393 42.2501 50.1893 42.0601L50.3894 42.9299C49.7994 43.1799 49.1494 43.3101 48.3694 43.3101C47.4494 43.3101 46.6694 43.06 46.1494 42.5C45.6194 42 45.3594 41.2501 45.3594 40.3701C45.3594 39.5001 45.6193 38.7499 46.0793 38.1899C46.5993 37.5699 47.3194 37.25 48.2394 37.25C49.0794 37.25 49.7993 37.5699 50.1893 38.1899C50.6493 38.6899 50.7794 39.25 50.7794 40ZM49.5394 39.6899C49.5394 39.3099 49.4794 38.9999 49.2794 38.6899C49.0194 38.3099 48.6894 38.1299 48.2394 38.1299C47.7794 38.1299 47.4493 38.3099 47.1893 38.6299C46.9893 38.8799 46.8594 39.2501 46.7994 39.6201H49.5394V39.6899Z" fill="white"/>
</g>
</g>
</svg>
