<svg width="16" height="17" viewBox="0 0 16 17" fill="none" xmlns="http://www.w3.org/2000/svg">
<path d="M8 15.725C11.866 15.725 15 12.437 15 8.38107C15 4.32511 11.866 1.03711 8 1.03711C4.13401 1.03711 1 4.32511 1 8.38107C1 12.437 4.13401 15.725 8 15.725Z" stroke="#A8AAAB" stroke-miterlimit="10" stroke-linecap="round" stroke-linejoin="round"/>
<path d="M8.04183 15.725C10.1479 15.725 11.8551 12.437 11.8551 8.38107C11.8551 4.32511 10.1479 1.03711 8.04183 1.03711C5.93579 1.03711 4.22852 4.32511 4.22852 8.38107C4.22852 12.437 5.93579 15.725 8.04183 15.725Z" stroke="#A8AAAB" stroke-miterlimit="10" stroke-linecap="round" stroke-linejoin="round"/>
<path d="M14.6459 5.80762H1.79199" stroke="#A8AAAB" stroke-miterlimit="10" stroke-linecap="round" stroke-linejoin="round"/>
<path d="M14.6459 10.8643H1.79199" stroke="#A8AAAB" stroke-miterlimit="10" stroke-linecap="round" stroke-linejoin="round"/>
<path d="M7.70801 1.42188L7.68442 15.3603" stroke="#A8AAAB" stroke-miterlimit="10" stroke-linecap="round" stroke-linejoin="round"/>
</svg>
