<svg width="48" height="48" viewBox="0 0 48 48" fill="none" xmlns="http://www.w3.org/2000/svg">
<path d="M26.9688 26.2266C27.3784 26.2266 27.7109 25.894 27.7109 25.4844C27.7109 25.0747 27.3784 24.7422 26.9688 24.7422C26.5591 24.7422 26.2266 25.0747 26.2266 25.4844C26.2266 25.894 26.5591 26.2266 26.9688 26.2266Z" fill="white"/>
<path d="M10.6406 26.2266C11.0503 26.2266 11.3828 25.894 11.3828 25.4844C11.3828 25.0747 11.0503 24.7422 10.6406 24.7422C10.231 24.7422 9.89844 25.0747 9.89844 25.4844C9.89844 25.894 10.231 26.2266 10.6406 26.2266Z" fill="white"/>
<path d="M5.74219 14.3516C6.15213 14.3516 6.48438 14.0193 6.48438 13.6094V6.48438H13.6094C14.0193 6.48438 14.3516 6.15213 14.3516 5.74219C14.3516 5.33224 14.0193 5 13.6094 5H5.74219C5.33224 5 5 5.33224 5 5.74219V13.6094C5 14.0193 5.33224 14.3516 5.74219 14.3516Z" fill="white"/>
<path d="M14.3516 42.2578C14.3516 41.8479 14.0193 41.5156 13.6094 41.5156H6.48438V34.3906C6.48438 33.9807 6.15213 33.6484 5.74219 33.6484C5.33224 33.6484 5 33.9807 5 34.3906V42.2578C5 42.6678 5.33224 43 5.74219 43H13.6094C14.0193 43 14.3516 42.6678 14.3516 42.2578Z" fill="white"/>
<path d="M42.2578 33.6484C41.8479 33.6484 41.5156 33.9807 41.5156 34.3906V41.5156H34.3906C33.9807 41.5156 33.6484 41.8479 33.6484 42.2578C33.6484 42.6678 33.9807 43 34.3906 43H42.2578C42.6678 43 43 42.6678 43 42.2578V34.3906C43 33.9807 42.6678 33.6484 42.2578 33.6484Z" fill="white"/>
<path d="M42.2578 5H34.3906C33.9807 5 33.6484 5.33224 33.6484 5.74219C33.6484 6.15213 33.9807 6.48438 34.3906 6.48438H41.5156V13.6094C41.5156 14.0193 41.8479 14.3516 42.2578 14.3516C42.6678 14.3516 43 14.0193 43 13.6094V5.74219C43 5.33224 42.6678 5 42.2578 5Z" fill="white"/>
<path d="M9.89844 37.3594C9.89844 37.7693 10.2307 38.1016 10.6406 38.1016H18.0625C18.4724 38.1016 18.8047 37.7693 18.8047 37.3594V29.9375C18.8047 29.5276 18.4724 29.1953 18.0625 29.1953H10.6406C10.2307 29.1953 9.89844 29.5276 9.89844 29.9375V37.3594ZM11.3828 30.6797H17.3203V36.6172H11.3828V30.6797Z" fill="white"/>
<path d="M18.0625 9.89844H10.6406C10.2307 9.89844 9.89844 10.2307 9.89844 10.6406V18.0625C9.89844 18.4724 10.2307 18.8047 10.6406 18.8047H18.0625C18.4724 18.8047 18.8047 18.4724 18.8047 18.0625V10.6406C18.8047 10.2307 18.4724 9.89844 18.0625 9.89844ZM17.3203 17.3203H11.3828V11.3828H17.3203V17.3203Z" fill="white"/>
<path d="M38.1016 10.6406C38.1016 10.2307 37.7693 9.89844 37.3594 9.89844H29.9375C29.5276 9.89844 29.1953 10.2307 29.1953 10.6406V18.0625C29.1953 18.4724 29.5276 18.8047 29.9375 18.8047H37.3594C37.7693 18.8047 38.1016 18.4724 38.1016 18.0625V10.6406ZM36.6172 17.3203H30.6797V11.3828H36.6172V17.3203Z" fill="white"/>
<path d="M38.1016 37.3594V29.9375C38.1016 29.5276 37.7693 29.1953 37.3594 29.1953H29.9375C29.5276 29.1953 29.1953 29.5276 29.1953 29.9375V37.3594C29.1953 37.7693 29.5276 38.1016 29.9375 38.1016H37.3594C37.7693 38.1016 38.1016 37.7693 38.1016 37.3594ZM36.6172 36.6172H30.6797V30.6797H36.6172V36.6172Z" fill="white"/>
<path d="M15.0938 32.1641H13.6094C13.1994 32.1641 12.8672 32.4963 12.8672 32.9062V34.3906C12.8672 34.8006 13.1994 35.1328 13.6094 35.1328H15.0938C15.5037 35.1328 15.8359 34.8006 15.8359 34.3906V32.9062C15.8359 32.4963 15.5037 32.1641 15.0938 32.1641Z" fill="white"/>
<path d="M13.6094 15.8359H15.0938C15.5037 15.8359 15.8359 15.5037 15.8359 15.0938V13.6094C15.8359 13.1994 15.5037 12.8672 15.0938 12.8672H13.6094C13.1994 12.8672 12.8672 13.1994 12.8672 13.6094V15.0938C12.8672 15.5037 13.1994 15.8359 13.6094 15.8359Z" fill="white"/>
<path d="M32.9062 15.8359H34.3906C34.8006 15.8359 35.1328 15.5037 35.1328 15.0938V13.6094C35.1328 13.1994 34.8006 12.8672 34.3906 12.8672H32.9062C32.4963 12.8672 32.1641 13.1994 32.1641 13.6094V15.0938C32.1641 15.5037 32.4963 15.8359 32.9062 15.8359Z" fill="white"/>
<path d="M32.9062 35.1328H34.3906C34.8006 35.1328 35.1328 34.8006 35.1328 34.3906V32.9062C35.1328 32.4963 34.8006 32.1641 34.3906 32.1641H32.9062C32.4963 32.1641 32.1641 32.4963 32.1641 32.9062V34.3906C32.1641 34.8006 32.4963 35.1328 32.9062 35.1328Z" fill="white"/>
<path d="M12.8672 25.4844C12.8672 25.8943 13.1994 26.2266 13.6094 26.2266H23.2578V29.9375C23.2578 30.3474 23.5901 30.6797 24 30.6797C24.4099 30.6797 24.7422 30.3474 24.7422 29.9375V25.4844C24.7422 25.0744 24.4099 24.7422 24 24.7422H13.6094C13.1994 24.7422 12.8672 25.0744 12.8672 25.4844Z" fill="white"/>
<path d="M18.0625 23.2578C18.4724 23.2578 18.8047 22.9256 18.8047 22.5156C18.8047 22.1057 18.4724 21.7734 18.0625 21.7734H10.6406C10.2307 21.7734 9.89844 22.1057 9.89844 22.5156C9.89844 22.9256 10.2307 23.2578 10.6406 23.2578H18.0625Z" fill="white"/>
<path d="M21.0312 23.2578H24C24.4099 23.2578 24.7422 22.9256 24.7422 22.5156C24.7422 22.1057 24.4099 21.7734 24 21.7734H21.0312C20.6213 21.7734 20.2891 22.1057 20.2891 22.5156C20.2891 22.9256 20.6213 23.2578 21.0312 23.2578Z" fill="white"/>
<path d="M21.5756 9.75C21.1656 9.75 20.8334 10.0822 20.8334 10.4922V17.9141C20.8334 18.324 21.1656 18.6562 21.5756 18.6562H26.7709V22.3672C26.7709 22.7771 27.1031 23.1094 27.5131 23.1094H30.4818C30.8918 23.1094 31.224 22.7771 31.224 22.3672C31.224 21.9572 30.8918 21.625 30.4818 21.625H28.2552V17.9141C28.2552 17.5041 27.923 17.1719 27.5131 17.1719H22.3177V10.4922C22.3177 10.0822 21.9855 9.75 21.5756 9.75Z" fill="white"/>
<path d="M37.3594 21.7734H32.9062C32.4963 21.7734 32.1641 22.1057 32.1641 22.5156C32.1641 22.9256 32.4963 23.2578 32.9062 23.2578H37.3594C37.7693 23.2578 38.1016 22.9256 38.1016 22.5156C38.1016 22.1057 37.7693 21.7734 37.3594 21.7734Z" fill="white"/>
<path d="M37.3594 24.7422H29.9375C29.5276 24.7422 29.1953 25.0744 29.1953 25.4844C29.1953 25.8943 29.5276 26.2266 29.9375 26.2266H37.3594C37.7693 26.2266 38.1016 25.8943 38.1016 25.4844C38.1016 25.0744 37.7693 24.7422 37.3594 24.7422Z" fill="white"/>
<path d="M24 32.1641H21.0312C20.6213 32.1641 20.2891 32.4963 20.2891 32.9062V37.3594C20.2891 37.7693 20.6213 38.1016 21.0312 38.1016C21.4412 38.1016 21.7734 37.7693 21.7734 37.3594V33.6484H24C24.4099 33.6484 24.7422 33.3162 24.7422 32.9062C24.7422 32.4963 24.4099 32.1641 24 32.1641Z" fill="white"/>
<path d="M26.9688 36.0729H24.7422C24.3322 36.0729 24 36.4052 24 36.8151C24 37.2251 24.3322 37.5573 24.7422 37.5573H27.7109C28.1209 37.5573 28.4531 37.2251 28.4531 36.8151V27.9089C28.4531 27.4989 28.1209 27.1667 27.7109 27.1667C27.301 27.1667 26.9688 27.4989 26.9688 27.9089V36.0729Z" fill="white"/>
<path d="M26.9688 15.8359C27.3787 15.8359 27.7109 15.5037 27.7109 15.0938V10.6406C27.7109 10.2307 27.3787 9.89844 26.9688 9.89844C26.5588 9.89844 26.2266 10.2307 26.2266 10.6406V14.3516H24C23.5901 14.3516 23.2578 14.6838 23.2578 15.0938C23.2578 15.5037 23.5901 15.8359 24 15.8359H26.9688Z" fill="white"/>
</svg>
