<svg width="14" height="19" viewBox="0 0 14 19" fill="none" xmlns="http://www.w3.org/2000/svg">
<path d="M2.54688 7.70243V5.40619C2.54688 3.10994 4.49376 1.30078 6.94539 1.30078C9.39703 1.30078 11.3439 3.17953 11.3439 5.40619V7.63285" stroke="#777777" stroke-miterlimit="10" stroke-linecap="round" stroke-linejoin="round"/>
<path d="M13.5081 11.9477C13.5081 15.2877 10.6238 18.0014 7.09055 18.0014C3.55731 18.0014 0.3125 15.2877 0.3125 11.9477V8.46854C0.3125 8.05104 0.673034 7.70312 1.10568 7.70312H12.6428C13.0754 7.70312 13.436 8.05104 13.436 8.46854L13.5081 11.9477Z" fill="#777777"/>
<path d="M6.94531 13.4766V15.4945" stroke="white" stroke-miterlimit="10" stroke-linecap="round" stroke-linejoin="round"/>
<path d="M8.45849 11.7386C8.45849 12.504 7.80953 13.1303 7.01636 13.1303C6.22318 13.1303 5.57422 12.504 5.57422 11.7386C5.57422 10.9732 6.22318 10.2773 7.01636 10.2773C7.80953 10.3469 8.45849 10.9732 8.45849 11.7386Z" stroke="white" stroke-miterlimit="10" stroke-linecap="round" stroke-linejoin="round"/>
</svg>
