<svg width="20" height="23" viewBox="0 0 20 23" fill="none" xmlns="http://www.w3.org/2000/svg">
<path d="M3.5195 14.3239C3.5195 14.3239 3.33137 14.6328 3.14324 15.019L1.0738 18.5718C0.885674 18.8808 1.0738 19.1125 1.45007 19.1125H17.9115C18.2877 19.1125 18.4759 18.8808 18.2877 18.5718L16.2183 15.019C16.0302 14.6328 15.842 13.9377 15.842 13.5515V9.30353C15.842 6.52304 13.1141 4.2832 9.7278 4.2832C6.34146 4.2832 3.61356 6.52304 3.61356 9.30353V13.5515C3.5195 14.0149 3.5195 14.3239 3.5195 14.3239Z" stroke="#666666" stroke-width="1.5" stroke-miterlimit="10" stroke-linecap="round" stroke-linejoin="round"/>
<path d="M12.9598 19.3193C12.9598 20.6585 11.8152 21.615 10.4799 21.615C9.14457 21.615 8 20.6585 8 19.3193" fill="white"/>
<path d="M12.9598 19.3193C12.9598 20.6585 11.8152 21.615 10.4799 21.615C9.14457 21.615 8 20.6585 8 19.3193" stroke="#666666" stroke-width="1.5" stroke-miterlimit="10" stroke-linejoin="round"/>
<path d="M8 3.58264V2.6261C8 1.66957 8.76304 1 9.62147 1C10.4799 1 11.2429 1.76523 11.2429 2.6261V3.48698" fill="white"/>
<path d="M8 3.58264V2.6261C8 1.66957 8.76304 1 9.62147 1C10.4799 1 11.2429 1.76523 11.2429 2.6261V3.48698" stroke="#666666" stroke-width="1.5" stroke-miterlimit="10" stroke-linecap="round" stroke-linejoin="round"/>
</svg>
