<svg width="24" height="26" viewBox="0 0 24 26" fill="none" xmlns="http://www.w3.org/2000/svg">
<path d="M23.2422 23.7846L17.9923 18.1187C17.6477 17.7469 17.0954 17.7469 16.7563 18.1187C16.4173 18.4905 16.4118 19.0866 16.7563 19.4525L22.0063 25.1184C22.1758 25.3014 22.4 25.3958 22.6243 25.3958C22.8485 25.3958 23.0727 25.3014 23.2422 25.1184C23.5867 24.7525 23.5867 24.1505 23.2422 23.7846Z" fill="#444444" stroke="#444444" stroke-width="0.5"/>
<path d="M11 19.5893C6.48864 19.5893 2.81818 15.8366 2.81818 11.2241C2.81818 6.61164 6.48864 2.85893 11 2.85893C15.5114 2.85893 19.1818 6.61164 19.1818 11.2241C19.1818 15.8366 15.5114 19.5893 11 19.5893ZM11 1C5.48864 1 1 5.58923 1 11.2241C1 16.859 5.48864 21.4482 11 21.4482C16.5114 21.4482 21 16.859 21 11.2241C21 5.58923 16.5114 1 11 1Z" fill="#444444" stroke="#444444" stroke-width="0.5"/>
</svg>
