<svg width="38" height="24" viewBox="0 0 38 24" fill="none" xmlns="http://www.w3.org/2000/svg">
<path d="M7.81849 5.901C8.48697 6.03402 10.225 5.98081 11.8294 4.70388C13.4337 3.42694 14.637 2.84168 15.0381 2.70867L7.81849 5.901ZM7.81849 17.4732C8.62067 16.9412 10.3855 16.3559 11.0272 18.2713C11.8294 20.6656 14.637 24.656 17.8457 22.2617L7.81849 17.4732ZM15.8402 18.2713C16.375 20.3995 18.4072 24.1771 22.2576 22.2617L15.8402 18.2713ZM19.0489 17.4732C19.9848 19.8675 22.739 23.8579 26.2685 20.6656L19.0489 17.4732ZM22.8547 15.8771C23.7905 18.5373 26.304 22.98 28.871 19.4684L22.8547 15.8771ZM28.274 3.90579C27.2044 2.70867 24.3433 0.474026 21.4555 1.1125C17.8457 1.91058 18.2468 2.7084 14.637 6.29978C11.0272 9.89116 14.637 11.0883 16.2413 10.2902C17.8457 9.49212 21.0544 5.5017 22.2576 7.49691C23.4609 9.49212 23.9453 17.9988 30.3627 17.2005L28.274 3.90579ZM1 3.10744H7.4174V19.0691H1V3.10744ZM30.5 3.10744H36.9174V19.0691H30.5V3.10744Z" stroke="#136EB7" stroke-width="1.3" stroke-linecap="round" stroke-linejoin="bevel"/>
</svg>
