<svg width="21" height="24" viewBox="0 0 21 24" fill="none" xmlns="http://www.w3.org/2000/svg">
<path d="M20.7578 21.6273L15.8531 16.4501C15.5312 16.1104 15.0152 16.1104 14.6985 16.4501C14.3817 16.7899 14.3766 17.3346 14.6985 17.6689L19.6032 22.8461C19.7615 23.0133 19.971 23.0996 20.1805 23.0996C20.39 23.0996 20.5994 23.0133 20.7578 22.8461C21.0797 22.5117 21.0797 21.9617 20.7578 21.6273Z" fill="white"/>
<path d="M8.99194 18.0854C4.93535 18.0854 1.6349 14.6016 1.6349 10.3196C1.6349 6.03766 4.93535 2.55385 8.99194 2.55385C13.0485 2.55385 16.349 6.03766 16.349 10.3196C16.349 14.6016 13.0485 18.0854 8.99194 18.0854ZM8.99194 0.828125C4.03616 0.828125 0 5.08851 0 10.3196C0 15.5507 4.03616 19.8111 8.99194 19.8111C13.9477 19.8111 17.9839 15.5507 17.9839 10.3196C17.9839 5.08851 13.9477 0.828125 8.99194 0.828125Z" fill="white"/>
</svg>
