<svg width="52" height="52" viewBox="0 0 52 52" fill="none" xmlns="http://www.w3.org/2000/svg">
<circle cx="26" cy="26" r="26" fill="url(#paint0_linear)"/>
<path d="M9.35547 19.8982C9.46575 19.1194 9.54977 18.3361 9.68994 17.563C10.4845 13.1837 13.5849 10.2042 18.0178 10.0515C23.3553 9.86807 28.7089 9.85838 34.0455 10.0507C38.8703 10.2244 42.3645 13.7969 42.5152 18.6234C42.6756 23.7483 42.6756 28.8858 42.5152 34.0108C42.3645 38.8372 38.8715 42.4094 34.0459 42.5835C28.7093 42.7761 23.3545 42.781 18.0182 42.5806C13.1926 42.3993 9.85677 38.8186 9.53402 33.9849C9.50614 33.5668 9.41647 33.1524 9.35547 32.7363C9.35547 28.4568 9.35547 24.1773 9.35547 19.8982ZM26 39.7231C28.4423 39.7231 30.887 39.7962 33.3261 39.7061C37.1503 39.5643 39.5025 37.282 39.5918 33.4614C39.7025 28.7008 39.7025 23.9337 39.5918 19.1727C39.5025 15.353 37.1487 13.0173 33.3261 12.9361C28.4742 12.8335 23.617 12.8343 18.7652 12.9361C14.9716 13.0157 12.6125 15.3041 12.5095 19.0818C12.3787 23.9026 12.3787 28.7319 12.5095 33.5527C12.6125 37.33 14.9716 39.5655 18.7656 39.7061C21.1739 39.7958 23.5884 39.7231 26 39.7231Z" fill="white"/>
<path d="M26.0021 17.8398C21.3186 17.8398 17.5215 21.6366 17.5215 26.32C17.5215 31.0039 21.3186 34.8006 26.0021 34.8006C30.6859 34.8006 34.4827 31.0039 34.4827 26.32C34.4827 21.6366 30.6859 17.8398 26.0021 17.8398ZM26.0021 31.8809C22.9308 31.8809 20.4413 29.3913 20.4413 26.32C20.4413 23.2488 22.9308 20.7592 26.0021 20.7592C29.0733 20.7592 31.5629 23.2488 31.5629 26.32C31.5629 29.3913 29.0733 31.8809 26.0021 31.8809Z" fill="white"/>
<path d="M37.0019 17.4357C37.0019 18.5498 36.0986 19.4531 34.9845 19.4531C33.8704 19.4531 32.9668 18.5498 32.9668 17.4357C32.9668 16.3212 33.8704 15.418 34.9845 15.418C36.0986 15.418 37.0019 16.3212 37.0019 17.4357Z" fill="white"/>
<defs>
<linearGradient id="paint0_linear" x1="42.4262" y1="9.45944" x2="8.49362" y2="42.9222" gradientUnits="userSpaceOnUse">
<stop stop-color="#833AB4"/>
<stop offset="0.0922" stop-color="#9C3495"/>
<stop offset="0.2927" stop-color="#DC2546"/>
<stop offset="0.392" stop-color="#FD1D1D"/>
<stop offset="0.5589" stop-color="#FC6831"/>
<stop offset="0.6887" stop-color="#FC9B40"/>
<stop offset="0.7521" stop-color="#FCAF45"/>
<stop offset="0.7806" stop-color="#FDB750"/>
<stop offset="0.8656" stop-color="#FECB6A"/>
<stop offset="0.9415" stop-color="#FFD87A"/>
<stop offset="1" stop-color="#FFDC80"/>
</linearGradient>
</defs>
</svg>
