<svg width="27" height="20" viewBox="0 0 27 20" fill="none" xmlns="http://www.w3.org/2000/svg">
<g clip-path="url(#clip0)">
<path d="M11.3398 9.87166C13.8245 9.87166 15.8388 7.88677 15.8388 5.43827C15.8388 2.98978 13.8245 1.00488 11.3398 1.00488C8.85509 1.00488 6.84082 2.98978 6.84082 5.43827C6.84082 7.88677 8.85509 9.87166 11.3398 9.87166Z" stroke="#4075AF" stroke-width="1.5" stroke-miterlimit="10" stroke-linecap="round" stroke-linejoin="round"/>
<path d="M1.22754 20C1.22754 15.625 5.84355 12.5 11.4853 12.5C12.5003 12.5 13.5003 12.5 14.5003 13" stroke="#4075AF" stroke-width="1.5" stroke-miterlimit="10" stroke-linecap="round" stroke-linejoin="round"/>
<path d="M14.6278 18.9941C14.4547 18.9941 14.3682 18.9089 14.2817 18.8236C14.1952 18.7384 14.1952 18.5679 14.2817 18.2268L15.3199 15.6691C15.493 15.2428 15.839 14.7313 16.1851 14.3902L22.9336 7.74015C23.1066 7.56963 23.3662 7.48438 23.6257 7.48438C23.8853 7.48438 24.1449 7.56963 24.3179 7.74015L25.6157 9.01901C25.7887 9.18953 25.8752 9.4453 25.8752 9.70107C25.8752 9.95684 25.7887 10.2126 25.6157 10.3831L18.8672 17.0332C18.5211 17.3742 18.002 17.7153 17.5694 17.8858L14.9738 18.9941C14.8873 18.9941 14.7143 18.9941 14.6278 18.9941Z" stroke="#4075AF" stroke-width="1.5" stroke-miterlimit="10" stroke-linecap="round" stroke-linejoin="round"/>
</g>
<defs>
<clipPath id="clip0">
<rect width="27" height="20" fill="white"/>
</clipPath>
</defs>
</svg>
