<svg width="32" height="32" viewBox="0 0 32 32" fill="none" xmlns="http://www.w3.org/2000/svg">
<path d="M26.4355 9.47843C28.5966 9.47843 30.3485 7.7265 30.3485 5.56539C30.3485 3.40427 28.5966 1.65234 26.4355 1.65234C24.2744 1.65234 22.5225 3.40427 22.5225 5.56539C22.5225 7.7265 24.2744 9.47843 26.4355 9.47843Z" stroke="#DFDFDF" stroke-width="1.5" stroke-miterlimit="10" stroke-linecap="round" stroke-linejoin="round"/>
<path d="M26.4355 30.3486C28.5966 30.3486 30.3485 28.5966 30.3485 26.4355C30.3485 24.2744 28.5966 22.5225 26.4355 22.5225C24.2744 22.5225 22.5225 24.2744 22.5225 26.4355C22.5225 28.5966 24.2744 30.3486 26.4355 30.3486Z" stroke="#DFDFDF" stroke-width="1.5" stroke-miterlimit="10" stroke-linecap="round" stroke-linejoin="round"/>
<path d="M5.56588 19.913C7.72699 19.913 9.47892 18.1611 9.47892 16C9.47892 13.8388 7.72699 12.0869 5.56588 12.0869C3.40476 12.0869 1.65283 13.8388 1.65283 16C1.65283 18.1611 3.40476 19.913 5.56588 19.913Z" stroke="#DFDFDF" stroke-width="1.5" stroke-miterlimit="10" stroke-linecap="round" stroke-linejoin="round"/>
<path d="M22.9135 7.26074L9.0874 14.3042" stroke="#DFDFDF" stroke-width="1.5" stroke-miterlimit="10" stroke-linecap="round" stroke-linejoin="round"/>
<path d="M9.0874 17.6963L22.9135 24.7398" stroke="#DFDFDF" stroke-width="1.5" stroke-miterlimit="10" stroke-linecap="round" stroke-linejoin="round"/>
</svg>
