<svg width="30" height="27" viewBox="0 0 30 27" fill="none" xmlns="http://www.w3.org/2000/svg">
<path d="M16.8594 3.11178V3.11175C18.4096 1.55924 20.3393 0.750058 22.4561 0.750058C24.3699 0.750058 26.1053 1.52049 27.3592 2.91826L27.9175 2.41746L27.3592 2.91827C28.5697 4.26776 29.25 6.09407 29.25 8.07318C29.25 10.7479 27.8272 13.2943 25.2523 16.1262C23.0189 18.5825 20.012 21.1567 16.5288 24.1385C16.0287 24.5666 15.5188 25.0031 15 25.4489C14.4741 24.9971 13.9573 24.5547 13.4505 24.1209C9.98382 21.1537 6.98537 18.5872 4.75494 16.1355C2.17743 13.3023 0.75 10.7517 0.75 8.07318C0.75 4.03017 3.58221 0.75 7.54394 0.75C9.66077 0.75 11.5904 1.55917 13.1406 3.11173C13.6834 3.65546 14.0902 4.19973 14.3719 4.63141L15 5.59378L15.6281 4.63137C15.9098 4.19964 16.3166 3.65535 16.8594 3.11178ZM15.1053 25.5394L15.1052 25.5393L15.1053 25.5394Z" stroke="#DFDFDF" stroke-width="1.5"/>
</svg>
