<svg width="22" height="23" viewBox="0 0 22 23" fill="none" xmlns="http://www.w3.org/2000/svg">
<path d="M10.8387 0.806641C4.84844 0.806641 0 5.65426 0 11.6454C0 13.5465 0.495826 15.4032 1.43737 17.0409L0.0408502 21.3776C-0.0565619 21.68 0.0234848 22.0114 0.248078 22.236C0.470522 22.4584 0.801128 22.5414 1.10643 22.4432L5.44317 21.0467C7.08082 21.9882 8.9376 22.4841 10.8387 22.4841C16.829 22.4841 21.6774 17.6364 21.6774 11.6454C21.6774 5.65508 16.8298 0.806641 10.8387 0.806641ZM10.8387 20.7905C9.12151 20.7905 7.44764 20.3114 5.99804 19.4049C5.78949 19.2746 5.53049 19.2394 5.28953 19.3169L2.15894 20.3251L3.16713 17.1945C3.24354 16.957 3.21129 16.6977 3.07898 16.486C2.17267 15.0364 1.69355 13.3625 1.69355 11.6454C1.69355 6.60274 5.7961 2.50019 10.8387 2.50019C15.8813 2.50019 19.9839 6.60274 19.9839 11.6454C19.9839 16.688 15.8813 20.7905 10.8387 20.7905ZM11.8972 11.6454C11.8972 12.2298 11.4233 12.7038 10.8387 12.7038C10.2541 12.7038 9.78024 12.2298 9.78024 11.6454C9.78024 11.0607 10.2541 10.5869 10.8387 10.5869C11.4233 10.5869 11.8972 11.0607 11.8972 11.6454ZM16.131 11.6454C16.131 12.2298 15.6572 12.7038 15.0726 12.7038C14.4879 12.7038 14.0141 12.2298 14.0141 11.6454C14.0141 11.0607 14.4879 10.5869 15.0726 10.5869C15.6572 10.5869 16.131 11.0607 16.131 11.6454ZM7.66331 11.6454C7.66331 12.2298 7.18948 12.7038 6.60484 12.7038C6.02037 12.7038 5.54637 12.2298 5.54637 11.6454C5.54637 11.0607 6.02037 10.5869 6.60484 10.5869C7.18948 10.5869 7.66331 11.0607 7.66331 11.6454Z" fill="#A09F9F"/>
</svg>
