<svg width="29" height="29" viewBox="0 0 29 29" fill="none" xmlns="http://www.w3.org/2000/svg">
<path d="M14.4999 29C6.5145 29 0 22.4934 0 14.4825C0 6.5066 6.5145 0 14.4999 0C22.4854 0 28.9999 6.5066 28.9999 14.4825C29.0349 22.4934 22.5204 29 14.4999 29ZM14.4999 2.0989C7.6703 2.0989 2.1014 7.661 2.1014 14.4825C2.1014 21.304 7.6703 26.8661 14.4999 26.8661C21.3296 26.8661 26.9334 21.339 26.9334 14.4825C26.9334 7.6261 21.3646 2.0989 14.4999 2.0989Z" fill="white"/>
<path d="M12.7674 8.5928C12.4973 8.5928 12.2271 8.6189 11.9907 8.7232C11.2478 8.9579 10.7412 9.5317 10.7412 10.1576V18.8427C10.7412 19.4687 11.2478 20.0425 11.9907 20.2772C12.2271 20.3554 12.4973 20.4076 12.7674 20.4076C13.3077 20.4076 13.8143 20.2511 14.1858 19.9381L19.8253 15.6086C20.6021 15.0088 20.6021 14.0177 19.8253 13.3917L14.2195 9.0622C13.8143 8.7493 13.3077 8.5928 12.7674 8.5928Z" fill="white"/>
</svg>
