<svg width="27" height="23" viewBox="0 0 27 23" fill="none" xmlns="http://www.w3.org/2000/svg">
<path d="M3.5719 0C3.15 0.059 2.8125 0.442299 2.8125 0.884699V2.9488H0.8438C0.8156 2.9488 0.787499 2.9488 0.759399 2.9488C0.337499 3.0077 0 3.3911 0 3.8334V22.1154C0 22.6167 0.3656 23 0.8438 23H26.1562C26.6344 23 27 22.6167 27 22.1154V3.8334C27 3.3321 26.6344 2.9488 26.1562 2.9488H24.1875V0.884699C24.1875 0.383399 23.8219 0 23.3438 0C19.9406 0 16.425 0.412899 13.5 2.477C10.575 0.412899 7.0594 0 3.6562 0C3.6281 0 3.6 0 3.5719 0ZM4.5 1.7988C7.5094 1.8577 10.3781 2.3295 12.6562 3.9808V20.1988C10.125 18.6949 7.0312 18.3706 4.5 18.3116V1.7988ZM22.5 1.7988V18.3116C19.9688 18.3706 16.875 18.6949 14.3438 20.1988V3.9808C16.6219 2.3295 19.4906 1.8577 22.5 1.7988Z" fill="white"/>
</svg>
