<svg width="28" height="15" viewBox="0 0 28 15" fill="none" xmlns="http://www.w3.org/2000/svg">
<path d="M19.8372 14L16 5H18.814L21.3721 10.5588L23.9302 5H27L22.907 14H19.8372Z" fill="white" stroke="white" stroke-linecap="round" stroke-linejoin="round"/>
<path fill-rule="evenodd" clip-rule="evenodd" d="M1 1V13.904C5.35803 14.278 14.0741 14.0723 14.0741 10.2572C14.0741 1 11.8003 1 1 1ZM5.54768 3.80489L4.4108 11.379L10.9478 7.45167L5.54768 3.80489Z" fill="white"/>
<path d="M1 13.904H0.5C0.5 14.1636 0.698626 14.38 0.957245 14.4022L1 13.904ZM1 1V0.5C0.723858 0.5 0.5 0.723858 0.5 1H1ZM4.4108 11.379L3.91634 11.3048C3.8876 11.4962 3.97195 11.687 4.13287 11.7946C4.29379 11.9022 4.50236 11.9073 4.66829 11.8076L4.4108 11.379ZM5.54768 3.80489L5.8275 3.39053C5.68527 3.29448 5.50371 3.27809 5.34657 3.34712C5.18944 3.41615 5.07869 3.56095 5.05322 3.73067L5.54768 3.80489ZM10.9478 7.45167L11.2053 7.88027C11.3518 7.7923 11.4431 7.63567 11.4477 7.46491C11.4522 7.29416 11.3692 7.1329 11.2277 7.03731L10.9478 7.45167ZM1.5 13.904V1H0.5V13.904H1.5ZM13.5741 10.2572C13.5741 10.981 13.1748 11.5708 12.3802 12.0644C11.5741 12.5652 10.421 12.9228 9.08425 13.1592C6.41898 13.6304 3.19781 13.5908 1.04276 13.4058L0.957245 14.4022C3.16021 14.5912 6.47609 14.6358 9.25835 14.1439C10.6453 13.8987 11.9436 13.5129 12.9079 12.9138C13.8839 12.3075 14.5741 11.441 14.5741 10.2572H13.5741ZM1 1.5C3.70805 1.5 5.85116 1.5004 7.5576 1.64291C9.26912 1.78585 10.471 2.06785 11.3289 2.5853C12.1598 3.08646 12.716 3.83854 13.0703 5.04614C13.4311 6.27598 13.5741 7.95196 13.5741 10.2572H14.5741C14.5741 7.93385 14.4329 6.13838 14.0298 4.76463C13.6203 3.36864 12.933 2.38499 11.8454 1.729C10.7848 1.08931 9.39322 0.792729 7.64082 0.646378C5.88334 0.499603 3.69212 0.5 1 0.5V1.5ZM4.90526 11.4532L6.04214 3.87911L5.05322 3.73067L3.91634 11.3048L4.90526 11.4532ZM10.6903 7.02307L4.15331 10.9504L4.66829 11.8076L11.2053 7.88027L10.6903 7.02307ZM5.26785 4.21926L10.668 7.86604L11.2277 7.03731L5.8275 3.39053L5.26785 4.21926Z" fill="white"/>
</svg>
