<svg width="23" height="21" viewBox="0 0 23 21" fill="none" xmlns="http://www.w3.org/2000/svg">
<path d="M20.7535 18.5841L16.4415 14.2895C16.1585 14.0077 15.7049 14.0077 15.4264 14.2895C15.1479 14.5714 15.1434 15.0232 15.4264 15.3005L19.7384 19.5952C19.8778 19.7338 20.0618 19.8054 20.246 19.8054C20.4301 19.8054 20.6143 19.7338 20.7535 19.5952C21.0366 19.3178 21.0366 18.8615 20.7535 18.5841Z" fill="white" stroke="white" stroke-width="0.5"/>
<path d="M9.58171 15.7945C6.123 15.7945 3.30899 12.9916 3.30899 9.54652C3.30899 6.10147 6.123 3.29859 9.58171 3.29859C13.0404 3.29859 15.8544 6.10147 15.8544 9.54652C15.8544 12.9916 13.0404 15.7945 9.58171 15.7945ZM9.58171 1.91016C5.35634 1.91016 1.91504 5.33784 1.91504 9.54652C1.91504 13.7552 5.35634 17.1829 9.58171 17.1829C13.807 17.1829 17.2483 13.7552 17.2483 9.54652C17.2483 5.33784 13.807 1.91016 9.58171 1.91016Z" fill="white" stroke="white" stroke-width="0.5"/>
</svg>
