<svg width="122" height="23" viewBox="0 0 122 23" fill="none" xmlns="http://www.w3.org/2000/svg">
<path d="M35.623 22.6101H33.4048C32.8829 22.6101 32.3609 22.4794 31.9695 22.0874C31.5781 21.826 31.1866 21.3033 30.9257 20.9112L24.2711 6.53622C24.1406 6.27486 24.1406 6.01349 24.1406 5.75213C24.1406 4.96804 24.5321 4.44531 25.4454 4.44531H28.4465C28.9684 4.44531 29.4904 4.57599 29.8818 4.96804C30.2732 5.2294 30.6647 5.75213 30.9257 6.14418L34.7096 15.0305L38.4936 6.14418C38.7545 5.62145 39.0155 5.2294 39.5374 4.96804C39.9289 4.70668 40.4508 4.44531 40.9727 4.44531H43.9738C44.7567 4.44531 45.0176 4.83736 45.1481 5.09872C45.2786 5.2294 45.2786 5.49077 45.2786 5.75213C45.2786 6.01349 45.2786 6.27486 45.1481 6.53622L38.4936 21.0419C38.2326 21.5646 37.9716 21.9567 37.4497 22.218C36.6668 22.4794 36.1449 22.6101 35.623 22.6101Z" fill="#3846AE"/>
<path d="M19.7027 2.74432C17.7455 0.914773 14.4834 0 10.0471 0H1.43529C1.04385 0 0.782888 0.130682 0.391444 0.392045C0.130481 0.784091 0 1.04545 0 1.56818V21.1705C0 21.5625 0.130481 21.9545 0.391444 22.2159C0.652406 22.4773 1.04385 22.608 1.43529 22.608H10.0471C14.4834 22.608 17.7455 21.6932 19.7027 19.8636C21.7904 18.0341 22.7037 15.1591 22.7037 11.2386C22.8342 7.44886 21.7904 4.57386 19.7027 2.74432ZM16.7016 11.6307L7.04599 17.1193C6.52406 17.3807 6.00214 16.9886 6.13262 16.4659L7.95936 5.88068C7.95936 5.48864 8.48128 5.22727 8.87273 5.48864L16.7016 10.5852C17.0931 10.8466 17.0931 11.3693 16.7016 11.6307Z" fill="#3846AE"/>
<path d="M55.9773 22.7369H48.1484V4.44141H55.0639C56.2383 4.44141 57.2821 4.57209 58.1955 4.83345C59.1089 5.09482 59.7613 5.48686 60.1527 6.00959C60.9356 6.92436 61.327 7.96982 61.327 9.14595C61.327 10.5835 60.9356 11.6289 60.0222 12.2823C59.7613 12.5437 59.5003 12.6744 59.3698 12.805C59.2393 12.805 58.9784 12.9357 58.7174 13.0664C59.7613 13.3278 60.6746 13.8505 61.327 14.6346C61.9794 15.4187 62.2404 16.3335 62.2404 17.5096C62.2404 18.8164 61.849 19.8619 60.9356 20.9073C60.1527 22.2141 58.4565 22.7369 55.9773 22.7369ZM52.1934 11.8903H54.0201C55.0639 11.8903 55.9773 11.7596 56.4992 11.4982C57.0212 11.2369 57.2821 10.7141 57.2821 9.93004C57.2821 9.14595 57.0212 8.62322 56.4992 8.36186C56.1078 7.96982 55.1944 7.83913 54.0201 7.83913H52.1934V11.8903ZM52.1934 19.3391H54.9335C56.1078 19.3391 56.8907 19.2085 57.5431 18.9471C58.065 18.6857 58.4565 18.163 58.4565 17.2482C58.4565 16.4641 58.1955 15.8107 57.5431 15.5494C56.8907 15.288 55.9773 15.1573 54.6725 15.1573H52.1934V19.3391Z" fill="#444444"/>
<path d="M80.2445 20.2571C78.4178 22.0866 76.1996 23.0014 73.59 23.0014C70.9803 23.0014 68.7622 22.0866 66.9354 20.2571C65.1087 18.4276 64.1953 16.206 64.1953 13.4616C64.1953 10.7173 65.1087 8.49574 66.9354 6.66619C68.7622 4.83665 70.9803 3.92188 73.59 3.92188C76.1996 3.92188 78.4178 4.83665 80.2445 6.66619C82.0712 8.49574 82.9846 10.7173 82.9846 13.4616C82.9846 16.206 82.0712 18.4276 80.2445 20.2571ZM78.9397 13.4616C78.9397 11.8935 78.4178 10.456 77.3739 9.27983C76.3301 8.10369 75.1557 7.58097 73.59 7.58097C72.1547 7.58097 70.8499 8.10369 69.806 9.27983C68.7622 10.456 68.2402 11.8935 68.2402 13.4616C68.2402 15.0298 68.7622 16.4673 69.806 17.6435C70.8499 18.8196 72.0242 19.3423 73.59 19.3423C75.0253 19.3423 76.3301 18.8196 77.3739 17.6435C78.4178 16.4673 78.9397 15.1605 78.9397 13.4616Z" fill="#444444"/>
<path d="M100.729 20.2571C98.9021 22.0866 96.684 23.0014 94.0743 23.0014C91.4647 23.0014 89.2465 22.0866 87.4198 20.2571C85.5931 18.4276 84.6797 16.206 84.6797 13.4616C84.6797 10.7173 85.5931 8.49574 87.4198 6.66619C89.2465 4.83665 91.4647 3.92188 94.0743 3.92188C96.684 3.92188 98.9021 4.83665 100.729 6.66619C102.556 8.49574 103.469 10.7173 103.469 13.4616C103.469 16.206 102.556 18.4276 100.729 20.2571ZM99.4241 13.4616C99.4241 11.8935 98.9021 10.456 97.8583 9.27983C96.8144 8.10369 95.6401 7.58097 94.0743 7.58097C92.5086 7.58097 91.3342 8.10369 90.2904 9.27983C89.2465 10.456 88.7246 11.8935 88.7246 13.4616C88.7246 15.0298 89.2465 16.4673 90.2904 17.6435C91.3342 18.8196 92.5086 19.3423 94.0743 19.3423C95.6401 19.3423 96.8144 18.8196 97.8583 17.6435C98.9021 16.4673 99.4241 15.1605 99.4241 13.4616Z" fill="#444444"/>
<path d="M106.343 4.44141H110.388V12.021L117.173 4.44141H122.131L114.824 12.5437C115.477 13.4585 116.521 15.0266 118.217 17.3789C119.913 19.7312 121.087 21.5607 121.87 22.7369H117.173L111.954 15.4187L110.127 17.5096V22.7369H106.082V4.44141H106.343Z" fill="#444444"/>
</svg>
