<svg width="16" height="16" viewBox="0 0 16 16" fill="none" xmlns="http://www.w3.org/2000/svg">
<path d="M14.2915 6.25L8.20775 11.4851C7.98242 11.6678 7.5881 11.6678 7.30644 11.4851L1.22266 6.25" stroke="#5997D0" stroke-width="1.2" stroke-miterlimit="10" stroke-linecap="round" stroke-linejoin="round"/>
<path d="M1.11266 6.25036C1.16899 5.94599 1.45065 5.58075 1.67598 5.39813L7.30911 1.13697C7.53444 0.954345 7.98509 0.954345 8.21042 1.13697L13.8436 5.39813C14.0689 5.58075 14.3505 5.94599 14.4069 6.25036C14.4632 6.55473 14.5195 7.04172 14.5195 7.34609V14.4074C14.5195 14.9553 14.1252 15.3814 13.6182 15.3814H1.9013C1.39432 15.3814 1 14.9553 1 14.4074V7.34609C1 6.98085 1.05633 6.49386 1.11266 6.25036Z" stroke="#5997D0" stroke-width="1.2" stroke-miterlimit="10" stroke-linecap="round" stroke-linejoin="round"/>
</svg>
