<svg width="31" height="16" viewBox="0 0 31 16" fill="none" xmlns="http://www.w3.org/2000/svg">
<path d="M23.9164 15.7116H22.4271C22.0767 15.7116 21.7262 15.6239 21.4634 15.3607C21.2006 15.1852 20.9378 14.8342 20.7626 14.571L16.2946 4.91948C16.207 4.744 16.207 4.56852 16.207 4.39303C16.207 3.86659 16.4699 3.51562 17.0831 3.51562H19.098C19.4485 3.51562 19.7989 3.60337 20.0617 3.86659C20.3245 4.04207 20.5873 4.39303 20.7626 4.65626L23.3031 10.6226L25.8437 4.65626C26.0189 4.30529 26.1942 4.04207 26.5446 3.86659C26.8074 3.69111 27.1578 3.51562 27.5082 3.51562H29.5232C30.0488 3.51562 30.224 3.77885 30.3116 3.95433C30.3993 4.04207 30.3993 4.21755 30.3993 4.39303C30.3993 4.56852 30.3993 4.744 30.3116 4.91948L25.8437 14.6587C25.6685 15.0097 25.4933 15.2729 25.1429 15.4484C24.6172 15.6239 24.2668 15.7116 23.9164 15.7116Z" fill="#3846AE"/>
<path d="M13.2286 2.37381C11.9145 1.14544 9.7243 0.53125 6.74569 0.53125H0.963669C0.70085 0.53125 0.525638 0.618991 0.262819 0.794473C0.0876063 1.0577 0 1.23318 0 1.58414V14.7453C0 15.0085 0.0876063 15.2717 0.262819 15.4472C0.438032 15.6227 0.70085 15.7104 0.963669 15.7104H6.74569C9.7243 15.7104 11.9145 15.0962 13.2286 13.8679C14.6303 12.6395 15.2435 10.7092 15.2435 8.07697C15.3311 5.53248 14.6303 3.60218 13.2286 2.37381ZM11.2136 8.34019L4.73074 12.0253C4.38032 12.2008 4.02989 11.9376 4.1175 11.5866L5.34399 4.47959C5.34399 4.21637 5.69441 4.04089 5.95723 4.21637L11.2136 7.63827C11.4764 7.81375 11.4764 8.16471 11.2136 8.34019Z" fill="#3846AE"/>
</svg>
