<svg width="19" height="20" viewBox="0 0 19 20" fill="none" xmlns="http://www.w3.org/2000/svg">
<path d="M7.53412 12.7436C7.40802 12.7436 7.28191 12.6785 7.15581 12.5481C7.09276 12.4178 7.02971 12.2875 7.15581 11.9617L8.16463 9.42025C8.29073 9.02926 8.66903 8.50794 8.92124 8.18212L15.2894 1.6005C15.4785 1.40501 15.6677 1.33984 15.9199 1.33984C16.1721 1.33984 16.3612 1.40501 16.5504 1.6005L17.7484 2.83863C17.9375 3.03412 18.0006 3.22962 18.0006 3.49027C18.0006 3.75093 17.8745 3.94643 17.7484 4.14192L11.4433 10.7887C11.128 11.1145 10.6236 11.4403 10.2453 11.6358L7.78632 12.6785C7.72327 12.6785 7.59717 12.7436 7.53412 12.7436Z" stroke="#777777" stroke-width="1.3" stroke-miterlimit="10" stroke-linecap="round" stroke-linejoin="round"/>
<path d="M16.4648 8.96159V17.6285C16.4648 18.3453 15.7689 18.9318 14.9183 18.9318H2.54648C1.69592 18.9318 1 18.3453 1 17.6285V3.94392C1 3.22711 1.69592 2.64062 2.54648 2.64062H11.5934" stroke="#777777" stroke-width="1.3" stroke-miterlimit="10" stroke-linecap="round" stroke-linejoin="round"/>
</svg>
