<svg width="23" height="17" viewBox="0 0 23 17" fill="none" xmlns="http://www.w3.org/2000/svg">
<path d="M7.2087 12.9951C7.66522 12.9951 8.48696 13.269 8.85217 13.5429L11.7739 15.7342C12.0478 15.8255 12.2304 15.7342 12.2304 15.4603V1.30815C12.2304 1.03424 12.0478 0.942935 11.7739 1.03424L8.76087 4.13859C8.39565 4.5038 7.66522 4.77772 7.2087 4.77772H5.1087C2.82609 4.77772 1 6.60381 1 8.88641C1 11.169 2.82609 12.9951 5.1087 12.9951H7.2087Z" stroke="#5997D0" stroke-miterlimit="10" stroke-linecap="round" stroke-linejoin="round"/>
<path d="M15.8828 5.875C17.435 5.875 18.6219 7.06196 18.6219 8.61413C18.6219 10.1663 17.435 11.3533 15.8828 11.3533" stroke="#5997D0" stroke-miterlimit="10" stroke-linecap="round" stroke-linejoin="round"/>
<path d="M15.6094 2.22266C19.1702 2.22266 22.0007 5.05309 22.0007 8.61396C22.0007 12.1748 19.1702 15.0053 15.6094 15.0053" stroke="#5997D0" stroke-miterlimit="10" stroke-linecap="round" stroke-linejoin="round"/>
</svg>
