<svg width="19" height="20" viewBox="0 0 19 20" fill="none" xmlns="http://www.w3.org/2000/svg">
<path d="M3.17945 8.84766C3.68816 8.84766 4.05152 9.24413 4.05152 9.7992V17.3322C4.05152 17.8873 3.68816 18.2838 3.17945 18.2838H1.65332C1.14461 18.2838 0.78125 17.8873 0.78125 17.3322V9.7992C0.78125 9.24413 1.14461 8.84766 1.65332 8.84766H3.17945Z" stroke="#777777" stroke-width="1.2" stroke-miterlimit="10" stroke-linecap="round" stroke-linejoin="round"/>
<path d="M18.0762 10.2775C18.4396 9.2467 18.1489 8.92952 17.6402 8.53305C17.2768 8.29516 16.8408 8.13657 16.2594 8.13657H13.0618C12.6984 8.13657 12.4077 7.7401 12.4804 7.34362C12.6984 6.47137 12.9164 5.04406 12.8438 3.85464C12.6984 1.95155 11.899 1.47578 11.3176 1.55508C11.0996 1.55508 10.9543 1.79296 10.8816 2.03085C10.6636 4.09252 9.79152 6.15419 8.41074 7.6608C6.95728 9.2467 4.12305 9.56388 4.12305 9.56388L4.19572 17.5727C4.19572 17.5727 5.79452 17.5727 6.81194 17.5727C8.26539 17.5727 9.64618 19 11.5357 19H11.899C12.5531 19 13.8612 18.7621 14.9513 18.3656C16.0414 17.9692 16.8408 16.9383 17.0588 15.7489L18.0762 10.2775Z" stroke="#777777" stroke-width="1.2" stroke-miterlimit="10" stroke-linecap="round" stroke-linejoin="round"/>
</svg>
