<svg width="23" height="21" viewBox="0 0 23 21" fill="none" xmlns="http://www.w3.org/2000/svg">
<path d="M20.7531 18.5855L16.4411 14.2909C16.1581 14.0091 15.7045 14.0091 15.426 14.2909C15.1475 14.5728 15.143 15.0246 15.426 15.3019L19.738 19.5966C19.8774 19.7352 20.0614 19.8068 20.2456 19.8068C20.4297 19.8068 20.6139 19.7352 20.7531 19.5966C21.0362 19.3192 21.0362 18.8629 20.7531 18.5855Z" fill="#AAAAAA" stroke="#AAAAAA" stroke-width="0.5"/>
<path d="M9.58146 15.7934C6.12275 15.7934 3.30874 12.9905 3.30874 9.54545C3.30874 6.1004 6.12275 3.29752 9.58146 3.29752C13.0402 3.29752 15.8542 6.1004 15.8542 9.54545C15.8542 12.9905 13.0402 15.7934 9.58146 15.7934ZM9.58146 1.90909C5.35609 1.90909 1.91479 5.33677 1.91479 9.54545C1.91479 13.7541 5.35609 17.1818 9.58146 17.1818C13.8068 17.1818 17.2481 13.7541 17.2481 9.54545C17.2481 5.33677 13.8068 1.90909 9.58146 1.90909Z" fill="#AAAAAA" stroke="#AAAAAA" stroke-width="0.5"/>
</svg>
