<svg width="32" height="33" viewBox="0 0 32 33" fill="none" xmlns="http://www.w3.org/2000/svg">
<path d="M16.3761 1.56727C17.4265 -0.118385 19.7824 -0.403494 21.2029 1.01705C21.7882 1.60228 22.1133 2.38258 22.1133 3.2129C22.1133 5.60382 20.5077 7.92472 17.7166 9.57035C17.7166 9.57035 16.221 10.3657 15.0356 9.56535C12.1995 7.86469 10.6389 5.60382 10.6439 3.2029C10.6439 0.166725 14.6304 -1.12377 16.3761 1.56727Z" fill="#FF7941"/>
<path d="M0.865347 17.8072L3.78147 12.07C4.06158 11.5198 4.59679 11.1797 5.18201 11.1797H27.5656C28.1509 11.1797 28.6861 11.5198 28.9662 12.07L31.8823 17.8072C32.0524 18.1424 32.0374 18.5475 31.8423 18.8677C31.6572 19.1678 31.3471 19.3428 31.012 19.3428H28.7411V30.7822C28.7411 31.6576 28.0808 32.3679 27.2655 32.3679H5.49713C4.68182 32.3679 4.02156 31.6576 4.02156 30.7822V25.8303C4.02156 25.5152 4.27666 25.2601 4.59178 25.2601C4.9069 25.2601 5.162 25.5152 5.162 25.8303V30.7822C5.162 31.0173 5.31706 31.2274 5.49713 31.2274H15.8011V14.1358L13.5302 18.6025C13.3001 19.0577 12.85 19.3428 12.3648 19.3428H5.157V27.5C5.157 27.8151 4.9019 28.0702 4.58678 28.0702C4.27166 28.0702 4.01656 27.8151 4.01656 27.5V19.3428H1.74569C1.40556 19.3428 1.09543 19.1628 0.915365 18.8677C0.715288 18.5475 0.695282 18.1424 0.865347 17.8072ZM4.81187 25.4152C4.86689 25.4452 4.91191 25.4852 4.95192 25.5302C4.91191 25.4802 4.86189 25.4452 4.81187 25.4152ZM5.39209 31.3124C5.4221 31.3225 5.45712 31.3275 5.48713 31.3275C5.45712 31.3275 5.4271 31.3225 5.39209 31.3124ZM27.5656 12.3201H17.3017L18.7322 15.1362L20.2278 18.0823V18.0873C20.2628 18.1574 20.3228 18.2024 20.3729 18.2024H30.7969L27.9458 12.5902C27.8608 12.4252 27.7157 12.3201 27.5656 12.3201ZM28.0358 12.5452C28.0308 12.5352 28.0208 12.5202 28.0158 12.5102C28.0208 12.5202 28.0308 12.5302 28.0358 12.5452ZM30.9569 18.2974C30.6718 18.2974 20.648 18.2974 20.3829 18.2974C20.648 18.2974 30.6668 18.2974 30.9569 18.2974ZM16.9465 31.2274H27.2555C27.4306 31.2274 27.5906 31.0223 27.5906 30.7822V19.3428H20.3829C19.8977 19.3428 19.4475 19.0577 19.2174 18.6025L16.9465 14.1358V31.2274ZM12.6049 18.1274C12.5799 18.1774 12.5448 18.2174 12.5098 18.2474C12.5499 18.2174 12.5799 18.1774 12.6049 18.1274ZM12.3648 19.2428C12.4298 19.2428 12.4898 19.2378 12.5499 19.2278C12.4898 19.2378 12.4248 19.2428 12.3648 19.2428ZM12.3648 18.1974C12.4198 18.1974 12.4748 18.1524 12.5148 18.0823L15.441 12.3201H5.17701C5.02695 12.3201 4.8819 12.4202 4.79686 12.5852L1.94576 18.1974H12.3648ZM1.74068 19.2428C1.67566 19.2428 1.61564 19.2378 1.55061 19.2228C1.61564 19.2328 1.67566 19.2428 1.74068 19.2428Z" fill="#444444"/>
<path d="M11.5459 0.870335C12.1411 0.315121 12.9565 0 13.7718 0C14.8072 0 15.7475 0.505195 16.3728 1.38553C16.973 0.520201 17.9434 0.00500193 19.0088 0.00500193C19.8591 0.00500193 20.6644 0.340131 21.2697 0.945364C21.8749 1.5506 22.21 2.35591 22.205 3.21124C22.205 5.64217 20.5844 7.98808 17.7583 9.65372C17.6683 9.70374 17.5682 9.73375 17.4682 9.73375C17.2681 9.73375 17.078 9.62371 16.978 9.45364C16.903 9.32359 16.878 9.16853 16.918 9.01848C16.958 8.86842 17.048 8.74837 17.1831 8.66834C18.3485 7.97807 21.0646 6.07234 21.0646 3.21124C21.0646 2.66103 20.8495 2.14083 20.4594 1.75067C20.0692 1.36052 19.554 1.15044 19.0088 1.15044C18.9138 1.15044 18.8237 1.15545 18.7287 1.17045C17.7783 1.3005 17.3582 1.95575 17.1981 2.20585C17.1681 2.25587 17.1481 2.28588 17.1281 2.30589C16.908 2.53598 16.6379 2.66103 16.3628 2.66103C16.0827 2.66103 15.8126 2.53098 15.6025 2.29088C15.5875 2.27087 15.5675 2.24086 15.5375 2.19585C15.3524 1.91074 14.8522 1.14544 13.7368 1.14544C12.6013 1.14544 11.676 2.0708 11.676 3.20624C11.671 5.93229 14.1119 7.80301 15.5625 8.67334C15.8326 8.8334 15.9226 9.18854 15.7575 9.45864C15.6525 9.62871 15.4674 9.73375 15.2673 9.73375C15.1623 9.73375 15.0623 9.70374 14.9722 9.65372C12.1061 7.93306 10.5305 5.64217 10.5305 3.20624C10.5405 2.29088 10.8957 1.46556 11.5459 0.870335ZM17.2331 8.75337C17.1781 8.78839 17.1281 8.8284 17.0931 8.87842C17.1331 8.8334 17.1781 8.78839 17.2331 8.75337C17.3682 8.67334 17.5182 8.57831 17.6883 8.46826C17.5232 8.58331 17.3682 8.67834 17.2331 8.75337ZM19.1588 0.110042C19.1088 0.110042 19.0588 0.10504 19.0138 0.10504C19.0088 0.10504 19.0038 0.10504 18.9988 0.10504C19.0488 0.10504 19.1038 0.10504 19.1588 0.110042ZM16.3678 2.56099C16.3828 2.56099 16.3978 2.56099 16.4128 2.55598C16.3978 2.56099 16.3828 2.56099 16.3678 2.56099C16.3628 2.56099 16.3678 2.56099 16.3678 2.56099ZM15.6825 2.22086L15.6875 2.22586C15.6875 2.22586 15.6875 2.22586 15.6825 2.22086C15.6775 2.21585 15.6725 2.21085 15.6675 2.20085C15.6725 2.21085 15.6775 2.21585 15.6825 2.22086ZM14.0569 1.06041C13.9568 1.0454 13.8568 1.0404 13.7468 1.0404C13.8518 1.0404 13.9568 1.0504 14.0569 1.06041ZM13.7868 0.100039C13.7818 0.100039 13.7768 0.100039 13.7718 0.100039C13.7618 0.100039 13.7518 0.100039 13.7418 0.100039C13.7568 0.100039 13.7718 0.100039 13.7868 0.100039ZM15.2774 9.62871C15.2824 9.62871 15.2824 9.62871 15.2874 9.62871C15.2824 9.62871 15.2774 9.62871 15.2724 9.62871C15.2724 9.62871 15.2724 9.62871 15.2774 9.62871Z" fill="#444444"/>
</svg>
