<svg width="32" height="33" viewBox="0 0 32 33" fill="none" xmlns="http://www.w3.org/2000/svg">
<path d="M15.6261 1.56727C16.6765 -0.118385 19.0324 -0.403494 20.4529 1.01705C21.0382 1.60228 21.3633 2.38258 21.3633 3.2129C21.3633 5.60382 19.7577 7.92472 16.9666 9.57035C16.9666 9.57035 15.471 10.3657 14.2856 9.56535C11.4495 7.86469 9.88886 5.60382 9.89386 3.2029C9.89386 0.166725 13.8804 -1.12377 15.6261 1.56727Z" fill="#53A1E8"/>
<path d="M0.115347 17.8072L3.03147 12.07C3.31158 11.5198 3.84679 11.1797 4.43201 11.1797H26.8156C27.4009 11.1797 27.9361 11.5198 28.2162 12.07L31.1323 17.8072C31.3024 18.1424 31.2874 18.5475 31.0923 18.8677C30.9072 19.1678 30.5971 19.3428 30.262 19.3428H27.9911V30.7822C27.9911 31.6576 27.3308 32.3679 26.5155 32.3679H4.74713C3.93182 32.3679 3.27156 31.6576 3.27156 30.7822V25.8303C3.27156 25.5152 3.52666 25.2601 3.84178 25.2601C4.1569 25.2601 4.412 25.5152 4.412 25.8303V30.7822C4.412 31.0173 4.56706 31.2274 4.74713 31.2274H15.0511V14.1358L12.7802 18.6025C12.5501 19.0577 12.1 19.3428 11.6148 19.3428H4.407V27C4.407 27.3151 4.1519 27.5702 3.83678 27.5702C3.52166 27.5702 3.26656 27.3151 3.26656 27V19.3428H0.995687C0.655556 19.3428 0.345434 19.1628 0.165365 18.8677C-0.0347118 18.5475 -0.054718 18.1424 0.115347 17.8072ZM4.06187 25.4152C4.11689 25.4452 4.16191 25.4852 4.20192 25.5302C4.16191 25.4802 4.11189 25.4452 4.06187 25.4152ZM4.64209 31.3124C4.6721 31.3225 4.70712 31.3275 4.73713 31.3275C4.70712 31.3275 4.6771 31.3225 4.64209 31.3124ZM26.8156 12.3201H16.5517L17.9822 15.1362L19.4778 18.0823V18.0873C19.5128 18.1574 19.5728 18.2024 19.6229 18.2024H30.0469L27.1958 12.5902C27.1108 12.4252 26.9657 12.3201 26.8156 12.3201ZM27.2858 12.5452C27.2808 12.5352 27.2708 12.5202 27.2658 12.5102C27.2708 12.5202 27.2808 12.5302 27.2858 12.5452ZM30.2069 18.2974C29.9218 18.2974 19.898 18.2974 19.6329 18.2974C19.898 18.2974 29.9168 18.2974 30.2069 18.2974ZM16.1965 31.2274H26.5055C26.6806 31.2274 26.8406 31.0223 26.8406 30.7822V19.3428H19.6329C19.1477 19.3428 18.6975 19.0577 18.4674 18.6025L16.1965 14.1358V31.2274ZM11.8549 18.1274C11.8299 18.1774 11.7948 18.2174 11.7598 18.2474C11.7999 18.2174 11.8299 18.1774 11.8549 18.1274ZM11.6148 19.2428C11.6798 19.2428 11.7398 19.2378 11.7999 19.2278C11.7398 19.2378 11.6748 19.2428 11.6148 19.2428ZM11.6148 18.1974C11.6698 18.1974 11.7248 18.1524 11.7648 18.0823L14.691 12.3201H4.42701C4.27695 12.3201 4.1319 12.4202 4.04686 12.5852L1.19576 18.1974H11.6148ZM0.990685 19.2428C0.925659 19.2428 0.865637 19.2378 0.800611 19.2228C0.865637 19.2328 0.925659 19.2428 0.990685 19.2428Z" fill="#444444"/>
<path d="M10.7959 0.870335C11.3911 0.315121 12.2065 0 13.0218 0C14.0572 0 14.9975 0.505195 15.6228 1.38553C16.223 0.520201 17.1934 0.00500193 18.2588 0.00500193C19.1091 0.00500193 19.9144 0.340131 20.5197 0.945364C21.1249 1.5506 21.46 2.35591 21.455 3.21124C21.455 5.64217 19.8344 7.98808 17.0083 9.65372C16.9183 9.70374 16.8182 9.73375 16.7182 9.73375C16.5181 9.73375 16.328 9.62371 16.228 9.45364C16.153 9.32359 16.128 9.16853 16.168 9.01848C16.208 8.86842 16.298 8.74837 16.4331 8.66834C17.5985 7.97807 20.3146 6.07234 20.3146 3.21124C20.3146 2.66103 20.0995 2.14083 19.7094 1.75067C19.3192 1.36052 18.804 1.15044 18.2588 1.15044C18.1638 1.15044 18.0737 1.15545 17.9787 1.17045C17.0283 1.3005 16.6082 1.95575 16.4481 2.20585C16.4181 2.25587 16.3981 2.28588 16.3781 2.30589C16.158 2.53598 15.8879 2.66103 15.6128 2.66103C15.3327 2.66103 15.0626 2.53098 14.8525 2.29088C14.8375 2.27087 14.8175 2.24086 14.7875 2.19585C14.6024 1.91074 14.1022 1.14544 12.9868 1.14544C11.8513 1.14544 10.926 2.0708 10.926 3.20624C10.921 5.93229 13.3619 7.80301 14.8125 8.67334C15.0826 8.8334 15.1726 9.18854 15.0075 9.45864C14.9025 9.62871 14.7174 9.73375 14.5173 9.73375C14.4123 9.73375 14.3123 9.70374 14.2222 9.65372C11.3561 7.93306 9.78052 5.64217 9.78052 3.20624C9.79053 2.29088 10.1457 1.46556 10.7959 0.870335ZM16.4831 8.75337C16.4281 8.78839 16.3781 8.8284 16.3431 8.87842C16.3831 8.8334 16.4281 8.78839 16.4831 8.75337C16.6182 8.67334 16.7682 8.57831 16.9383 8.46826C16.7732 8.58331 16.6182 8.67834 16.4831 8.75337ZM18.4088 0.110042C18.3588 0.110042 18.3088 0.10504 18.2638 0.10504C18.2588 0.10504 18.2538 0.10504 18.2488 0.10504C18.2988 0.10504 18.3538 0.10504 18.4088 0.110042ZM15.6178 2.56099C15.6328 2.56099 15.6478 2.56099 15.6628 2.55598C15.6478 2.56099 15.6328 2.56099 15.6178 2.56099C15.6128 2.56099 15.6178 2.56099 15.6178 2.56099ZM14.9325 2.22086L14.9375 2.22586C14.9375 2.22586 14.9375 2.22586 14.9325 2.22086C14.9275 2.21585 14.9225 2.21085 14.9175 2.20085C14.9225 2.21085 14.9275 2.21585 14.9325 2.22086ZM13.3069 1.06041C13.2068 1.0454 13.1068 1.0404 12.9968 1.0404C13.1018 1.0404 13.2068 1.0504 13.3069 1.06041ZM13.0368 0.100039C13.0318 0.100039 13.0268 0.100039 13.0218 0.100039C13.0118 0.100039 13.0018 0.100039 12.9918 0.100039C13.0068 0.100039 13.0218 0.100039 13.0368 0.100039ZM14.5274 9.62871C14.5324 9.62871 14.5324 9.62871 14.5374 9.62871C14.5324 9.62871 14.5274 9.62871 14.5224 9.62871C14.5224 9.62871 14.5224 9.62871 14.5274 9.62871Z" fill="#444444"/>
</svg>
