<svg width="21" height="27" viewBox="0 0 21 27" fill="none" xmlns="http://www.w3.org/2000/svg">
<path d="M3.15 7.78846C3.15 6.92817 2.44485 6.23077 1.575 6.23077C0.705152 6.23077 0 6.92817 0 7.78846V21.2885C0 22.1487 0.705152 22.8462 1.575 22.8462C2.44485 22.8462 3.15 22.1487 3.15 21.2885V7.78846Z" fill="white"/>
<path d="M19.95 7.78846C19.95 6.92817 19.2448 6.23077 18.375 6.23077C17.5052 6.23077 16.8 6.92817 16.8 7.78846V21.2885C16.8 22.1487 17.5052 22.8462 18.375 22.8462C19.2448 22.8462 19.95 22.1487 19.95 21.2885V7.78846Z" fill="white"/>
<path d="M11.55 1.55769C11.55 0.697403 10.8448 0 9.975 0C9.10515 0 8.4 0.697403 8.4 1.55769V25.4423C8.4 26.3026 9.10515 27 9.975 27C10.8448 27 11.55 26.3026 11.55 25.4423V1.55769Z" fill="white"/>
</svg>
