<svg width="21" height="18" viewBox="0 0 21 18" fill="none" xmlns="http://www.w3.org/2000/svg">
<path d="M18.2199 1.42578C18.8949 1.42578 19.4199 1.95644 19.4199 2.63872V12.1906C19.4199 12.8729 18.8949 13.4035 18.2199 13.4035H15.2949L14.9949 16.8149L12.1449 13.4035H2.61992C1.94492 13.4035 1.41992 12.8729 1.41992 12.1906V2.63872C1.41992 1.95644 1.94492 1.42578 2.61992 1.42578H18.2199Z" stroke="#777777" stroke-width="1.2" stroke-miterlimit="10" stroke-linecap="round" stroke-linejoin="round"/>
<path d="M8.0957 7.41344C8.0957 7.64087 7.9457 7.79249 7.7207 7.79249C7.4957 7.79249 7.3457 7.64087 7.3457 7.41344C7.3457 7.18602 7.4957 7.0344 7.7207 7.0344C7.9457 6.95859 8.0957 7.18602 8.0957 7.41344Z" stroke="#777777" stroke-width="1.2" stroke-miterlimit="10" stroke-linecap="round" stroke-linejoin="round"/>
<path d="M10.8691 7.41344C10.8691 7.64087 10.7191 7.79249 10.4941 7.79249C10.2691 7.79249 10.1191 7.64087 10.1191 7.41344C10.1191 7.18602 10.2691 7.0344 10.4941 7.0344C10.7191 6.95859 10.8691 7.18602 10.8691 7.41344Z" stroke="#777777" stroke-width="1.2" stroke-miterlimit="10" stroke-linecap="round" stroke-linejoin="round"/>
<path d="M13.4961 7.41344C13.4961 7.64087 13.3461 7.79249 13.1211 7.79249C12.8961 7.79249 12.7461 7.64087 12.7461 7.41344C12.7461 7.18602 12.8961 7.0344 13.1211 7.0344C13.3461 6.95859 13.4961 7.18602 13.4961 7.41344Z" stroke="#777777" stroke-width="1.2" stroke-miterlimit="10" stroke-linecap="round" stroke-linejoin="round"/>
</svg>
