<svg width="18" height="21" viewBox="0 0 18 21" fill="none" xmlns="http://www.w3.org/2000/svg">
<path d="M15 7.25547H3C1.70213 7.25547 0.65 8.3076 0.65 9.60547V17.0588C0.65 18.3566 1.70213 19.4088 3 19.4088H15C16.2979 19.4088 17.35 18.3566 17.35 17.0588V9.60547C17.35 8.3076 16.2979 7.25547 15 7.25547Z" stroke="white" stroke-width="1.3"/>
<path d="M9.00034 13.3321C9.8775 13.3321 10.5886 12.5792 10.5886 11.6504C10.5886 10.7216 9.8775 9.96874 9.00034 9.96874C8.12318 9.96874 7.4121 10.7216 7.4121 11.6504C7.4121 12.5792 8.12318 13.3321 9.00034 13.3321Z" fill="white"/>
<path d="M9.1207 12.8609V16.0454" stroke="white" stroke-width="1.3" stroke-linecap="round"/>
<path d="M4.23535 6.60547V2.99993C4.23535 1.89536 5.13078 0.999933 6.23535 0.999933H11.7648C12.8693 0.999933 13.7648 1.89536 13.7648 2.99993V4.36325" stroke="white" stroke-width="1.3"/>
</svg>
