<svg width="16" height="12" viewBox="0 0 16 12" fill="none" xmlns="http://www.w3.org/2000/svg">
<path d="M5.10669 8.93406C5.40865 8.93406 5.95218 9.11524 6.19375 9.29641L8.12631 10.7458C8.30749 10.8062 8.42827 10.7458 8.42827 10.5647V1.20382C8.42827 1.02265 8.30749 0.962255 8.12631 1.02265L6.13336 3.07599C5.89179 3.31756 5.40865 3.49874 5.10669 3.49874H3.71766C2.20785 3.49874 1 4.70659 1 6.2164C1 7.72621 2.20785 8.93406 3.71766 8.93406H5.10669Z" stroke="white" stroke-miterlimit="10" stroke-linecap="round" stroke-linejoin="round"/>
<path d="M10.8438 4.22266C11.8704 4.22266 12.6555 5.00776 12.6555 6.03443C12.6555 7.0611 11.8704 7.8462 10.8438 7.8462" stroke="white" stroke-miterlimit="10" stroke-linecap="round" stroke-linejoin="round"/>
<path d="M10.6641 1.80859C13.0194 1.80859 14.8915 3.68076 14.8915 6.03606C14.8915 8.39137 13.0194 10.2635 10.6641 10.2635" stroke="white" stroke-miterlimit="10" stroke-linecap="round" stroke-linejoin="round"/>
</svg>
