<svg width="21" height="24" viewBox="0 0 21 24" fill="none" xmlns="http://www.w3.org/2000/svg">
<g clip-path="url(#clip0)">
<path d="M5.62043 4.98588V5.93039H1.32366C0.93656 5.93039 0.619141 6.24781 0.619141 6.63491V20.702C0.619141 22.5136 2.09011 23.9923 3.90946 23.9923H17.2798C19.0914 23.9923 20.5701 22.5214 20.5701 20.702V6.62717C20.5701 6.24007 20.2527 5.92265 19.8656 5.92265H15.5688V4.97814C15.5688 2.23749 13.3391 0.0078125 10.5985 0.0078125C7.85785 0.0078125 5.62043 2.24523 5.62043 4.98588ZM19.1611 7.33168V20.702C19.1611 21.7394 18.3172 22.5833 17.2798 22.5833H3.90946C2.87205 22.5833 2.02817 21.7394 2.02817 20.702V7.33168H5.62043V9.30588C5.62043 9.69298 5.93785 10.0104 6.32495 10.0104C6.71204 10.0104 7.02946 9.69298 7.02946 9.30588V7.33168H14.1675V9.30588C14.1675 9.69298 14.4849 10.0104 14.872 10.0104C15.2591 10.0104 15.5766 9.69298 15.5766 9.30588V7.33168H19.1611ZM10.5908 1.41684C12.5572 1.41684 14.1598 3.01942 14.1598 4.98588V5.93039H7.02172V4.98588C7.02946 3.01168 8.6243 1.41684 10.5908 1.41684Z" fill="#777777"/>
</g>
<defs>
<clipPath id="clip0">
<rect width="20.0516" height="24" fill="white" transform="translate(0.566406)"/>
</clipPath>
</defs>
</svg>
