<svg width="25" height="24" viewBox="0 0 25 24" fill="none" xmlns="http://www.w3.org/2000/svg">
<path d="M0.8 13.2441C0.8 11.4585 2.24755 10.0109 4.0332 10.0109H6.07788V16.4773H4.03319C2.24755 16.4773 0.8 15.0298 0.8 13.2441Z" stroke="#777777" stroke-width="1.6" stroke-linecap="round" stroke-linejoin="round"/>
<path d="M23.3973 13.2481C23.3973 15.0337 21.9497 16.4812 20.1641 16.4812L18.1194 16.4812L18.1194 10.0149L20.1641 10.0149C21.9497 10.0149 23.3973 11.4624 23.3973 13.2481Z" stroke="#777777" stroke-width="1.6" stroke-linecap="round" stroke-linejoin="round"/>
<path d="M3.93188 9.74906C3.50043 6.52246 5.2694 1 12.3453 1C19.4212 1 20.3269 6.52246 20.3268 9.74906" stroke="#777777" stroke-width="1.6" stroke-linecap="round" stroke-linejoin="round"/>
<path d="M20.6122 17.2812C20.3881 18.8497 19.1782 21.9866 16.1309 21.9866" stroke="#777777" stroke-width="1.6" stroke-linecap="round" stroke-linejoin="round"/>
<rect x="10.2102" y="20.3195" width="5.12199" height="2.88133" rx="1.44066" stroke="#777777" stroke-width="1.6" stroke-linecap="round" stroke-linejoin="round"/>
</svg>
