<svg width="18" height="20" viewBox="0 0 18 20" fill="none" xmlns="http://www.w3.org/2000/svg">
<path d="M17.138 16.154C16.104 17.034 15.07 17.54 14.168 17.54C13.134 17.54 12.1 16.946 11.044 15.824C14.498 14.966 17.006 11.93 17.006 8.3C17.006 3.966 13.442 0.556 8.954 0.556C4.444 0.556 0.88 3.944 0.88 8.3C0.88 12.634 4.444 16.088 8.954 16.088H9.13C10.56 18.068 12.188 19.168 13.97 19.168C15.312 19.168 16.72 18.574 17.908 17.474L17.138 16.154ZM2.662 8.3C2.662 4.912 5.522 2.228 8.954 2.228C12.386 2.228 15.202 4.912 15.202 8.3C15.202 11.688 12.386 14.394 8.954 14.394C5.522 14.394 2.662 11.688 2.662 8.3Z" fill="white"/>
</svg>
