<svg width="24" height="20" viewBox="0 0 24 20" fill="none" xmlns="http://www.w3.org/2000/svg">
<path d="M21.152 1.41509C21.944 1.41509 22.56 2.02044 22.56 2.79874V14.695C22.56 15.4733 21.944 16.0786 21.152 16.0786H17.72L17.368 18.9701L14.024 16.0786H2.848C2.056 16.0786 1.44 15.4733 1.44 14.695V2.79874C1.44 2.02044 2.056 1.41509 2.848 1.41509H21.152Z" stroke="white" stroke-width="1.2" stroke-miterlimit="10" stroke-linecap="round" stroke-linejoin="round"/>
<path d="M11.8229 8.67941C13.0379 8.67941 14.0229 7.71147 14.0229 6.51746C14.0229 5.32345 13.0379 4.35551 11.8229 4.35551C10.6079 4.35551 9.62289 5.32345 9.62289 6.51746C9.62289 7.71147 10.6079 8.67941 11.8229 8.67941Z" stroke="white" stroke-width="1.2" stroke-miterlimit="10" stroke-linecap="round" stroke-linejoin="round"/>
<path d="M6.99984 13C6.99984 10.3334 9.24122 10 11.9998 10C14.7585 10 16.9998 10.3334 16.9998 13" stroke="white" stroke-width="1.2" stroke-miterlimit="10" stroke-linecap="round" stroke-linejoin="round"/>
</svg>
