<svg width="23" height="23" viewBox="0 0 23 23" fill="none" xmlns="http://www.w3.org/2000/svg">
<path d="M11.2665 22.1863C16.9577 22.1863 21.5714 17.5726 21.5714 11.8814C21.5714 6.19021 16.9577 1.57657 11.2665 1.57657C5.57531 1.57657 0.96167 6.19021 0.96167 11.8814C0.96167 17.5726 5.57531 22.1863 11.2665 22.1863Z" stroke="white" stroke-width="1.2" stroke-miterlimit="10" stroke-linecap="round" stroke-linejoin="round"/>
<path d="M11.2651 14.6294C11.2651 14.6294 11.0933 12.9119 12.8967 11.452C13.7554 10.765 14.0989 10.078 14.0989 9.13344C14.0989 7.50183 12.8108 6.21373 11.2651 6.21373C9.71934 6.21373 8.43123 7.41596 8.43123 9.04756" stroke="white" stroke-width="1.2" stroke-miterlimit="10" stroke-linecap="round" stroke-linejoin="round"/>
<ellipse rx="0.544939" ry="0.54494" transform="matrix(1 0 0 -1 11.3147 17.3803)" fill="white" stroke="white" stroke-width="0.5"/>
</svg>
