<svg width="21" height="16" viewBox="0 0 21 16" fill="none" xmlns="http://www.w3.org/2000/svg">
<path d="M14.9746 9.88592H5.10629V1.51874H14.9664V9.88592H14.9746ZM19.3597 15.6664C19.7531 15.6664 20.0809 15.3589 20.0809 14.9725V6.69204C20.0809 6.31351 19.7613 5.99806 19.3597 5.99806H16.4008V0.832651C16.4008 0.454117 16.0811 0.138672 15.6795 0.138672H4.39321C3.99979 0.138672 3.67194 0.446231 3.67194 0.832651V6.00595H0.721274C0.319656 6.00595 0 6.31351 0 6.69204C0 7.07057 0.319656 7.38602 0.721274 7.38602H3.68014V10.5799C3.68014 10.9584 3.99979 11.2739 4.40141 11.2739H15.6959C16.0893 11.2739 16.4172 10.9663 16.4172 10.5799V7.38602H18.6548V14.2864H1.44255V9.46007C1.44255 9.08154 1.12289 8.76609 0.721274 8.76609C0.319656 8.76609 0 9.07365 0 9.45218V14.9725C0 15.351 0.319656 15.6664 0.721274 15.6664H19.3597Z" fill="#F0F0F0"/>
</svg>
