<svg width="22" height="24" viewBox="0 0 22 24" fill="none" xmlns="http://www.w3.org/2000/svg">
<path d="M5.26731 15.9589L5.37435 16.064L5.26731 15.9589L1.46524 19.8318C1.46518 19.8319 1.46513 19.8319 1.46507 19.832C0.715535 20.5911 0.630497 21.7859 1.32255 22.4908L1.49424 22.6657C1.80435 22.9816 2.22043 23.15 2.67332 23.15H2.67354H2.67376H2.67398H2.6742H2.67442H2.67464H2.67487H2.67509H2.67531H2.67553H2.67575H2.67597H2.6762H2.67642H2.67664H2.67686H2.67709H2.67731H2.67753H2.67775H2.67798H2.6782H2.67842H2.67864H2.67887H2.67909H2.67931H2.67954H2.67976H2.67998H2.68021H2.68043H2.68065H2.68088H2.6811H2.68133H2.68155H2.68177H2.682H2.68222H2.68245H2.68267H2.6829H2.68312H2.68335H2.68357H2.6838H2.68402H2.68425H2.68447H2.6847H2.68492H2.68515H2.68537H2.6856H2.68582H2.68605H2.68627H2.6865H2.68673H2.68695H2.68718H2.6874H2.68763H2.68786H2.68808H2.68831H2.68854H2.68876H2.68899H2.68922H2.68944H2.68967H2.6899H2.69012H2.69035H2.69058H2.6908H2.69103H2.69126H2.69149H2.69171H2.69194H2.69217H2.6924H2.69262H2.69285H2.69308H2.69331H2.69353H2.69376H2.69399H2.69422H2.69445H2.69468H2.6949H2.69513H2.69536H2.69559H2.69582H2.69605H2.69627H2.6965H2.69673H2.69696H2.69719H2.69742H2.69765H2.69788H2.69811H2.69833H2.69856H2.69879H2.69902H2.69925H2.69948H2.69971H2.69994H2.70017H2.7004H2.70063H2.70086H2.70109H2.70132H2.70155H2.70178H2.70201H2.70224H2.70247H2.7027H2.70293H2.70316H2.70339H2.70362H2.70385H2.70408H2.70431H2.70454H2.70477H2.705H2.70523H2.70546H2.70569H2.70592H2.70616H2.70639H2.70662H2.70685H2.70708H2.70731H2.70754H2.70777H2.708H2.70823H2.70847H2.7087H2.70893H2.70916H2.70939H2.70962H2.70985H2.71008H2.71032H2.71055H2.71078H2.71101H2.71124H2.71147H2.71171H2.71194H2.71217H2.7124H2.71263H2.71286H2.7131H2.71333H2.71356H2.71379H2.71402H2.71426H2.71449H2.71472H2.71495H2.71518H2.71542H2.71565H2.71588H2.71611H2.71635H2.71658H2.71681H2.71704H2.71727H2.71751H2.71774H2.71797H2.7182H2.71844H2.71867H2.7189H2.71913H2.71937H2.7196H2.71983H2.72006H2.7203H2.72053H2.72076H2.72099H2.72123H2.72146H2.72169H2.72193H2.72216H2.72239H2.72262H2.72286H2.72309H2.72332H2.72356H2.72379H2.72402H2.72425H2.72449H2.72472H2.72495H2.72519H2.72542H2.72565H2.72588H2.72612H2.72635H2.72658H2.72682H2.72705H2.72728H2.72752H2.72775H2.72798H2.72821H2.72845H2.72868H2.72891H2.72915H2.72938H2.72961H2.72985H2.73008H2.73031H2.73055H2.73078H2.73101H2.73124H2.73148H2.73171H2.73194H2.73218H2.73241H2.73264H2.73288H2.73311H2.73334H2.73358H2.73381H2.73404H2.73428H2.73451H2.73474H2.73497H2.73521H2.73544H2.73567H2.73591H2.73614H2.73637H2.73661H2.73684H2.73707H2.7373H2.73754H2.73777H2.738H2.73824H2.73847H2.7387H2.73894H2.73917H2.7394H2.73963H2.73987H2.7401H2.74033H2.74057H2.7408H2.74103H2.74126H2.7415H2.74173H2.74196H2.7422H2.74243H2.74266H2.74289H2.74313H2.74336H2.74359H2.74382H2.74406H2.74429H2.74452H2.74475H2.74499H2.74522H2.74545H2.74568H2.74592H2.74615H2.74638H2.74661H2.74685H2.74708H2.74731H2.74754H2.74778H2.74801H2.74824H2.74847H2.7487H2.74894H2.74917H2.7494H2.74963H2.74986H2.7501H2.75033H2.75056H2.75079H2.75102H2.75126H2.75149H2.75172H2.75195H2.75218H2.75241H2.75265H2.75288H2.75311H2.75334H2.75357H2.7538H2.75404H2.75427H2.7545H2.75473H2.75496H2.75519H2.75542H2.75565H2.75589H2.75612H2.75635H2.75658H2.75681H2.75704H2.75727H2.7575H2.75773H2.75796H2.75819H2.75843H2.75866H2.75889H2.75912H2.75935H2.75958H2.75981H2.76004H2.76027H2.7605H2.76073H2.76096H2.76119H2.76142H2.76165H2.76188H2.76211H2.76234H2.76257H2.7628H2.76303H2.76326H2.76349H2.76372H2.76395H2.76418H2.76441H2.76464H2.76487H2.7651H2.76532H2.76555H2.76578H2.76601H2.76624H2.76647H2.7667H2.76693H2.76716H2.76739H2.76761H2.76784H2.76807H2.7683H2.76853H2.76876H2.76898H2.76921H2.76944H2.76967H2.7699H2.77013H2.77035H2.77058H2.77081H2.77104H2.77126H2.77149H2.77172H2.77195H2.77218H2.7724H2.77263H2.77286H2.77308H2.77331H2.77354H2.77377H2.77399H2.77422H2.77445H2.77467H2.7749H2.77513H2.77535H2.77558H2.77581H2.77603H2.77626H2.77648H2.77671H2.77694H2.77716H2.77739H2.77761H2.77784H2.77807H2.77829H2.77852H2.77874H2.77897H2.77919H2.77942H2.77964H2.77987H2.78009H2.78032H2.78054H2.78077H2.78099H2.78122H2.78144H2.78167H2.78189H2.78211H2.78234H2.78256H2.78279H2.78301H2.78323H2.78346H2.78368H2.7839H2.78413H2.78435H2.78458H2.7848H2.78502H2.78524H2.78547H2.78569H2.78591H2.78614H2.78636H2.78658H2.7868H2.78703H2.78725H2.78747H2.78769H2.78791H2.78814H2.78836H2.78858H2.7888H2.78902H2.78924H2.78947H2.78969H2.78991H2.79013H2.79035H2.79057V23.1503L2.80045 23.1497C3.29193 23.1172 3.75717 22.895 4.11622 22.5292L8.04423 18.528C8.18526 18.3843 8.18526 18.1586 8.04423 18.015C7.90168 17.8698 7.67537 17.8698 7.53282 18.015L3.60481 22.0162C3.36557 22.2599 3.06038 22.4008 2.75107 22.4238C2.45137 22.4424 2.18986 22.3446 2.00564 22.157L1.83395 21.9821C1.44502 21.5859 1.4778 20.853 1.97633 20.3452L5.77871 16.4719C5.91974 16.3283 5.91974 16.1026 5.77871 15.9589L5.67193 16.0637L5.77871 15.9589C5.63616 15.8137 5.40985 15.8137 5.26731 15.9589Z" fill="white"/>
<path d="M5.26731 15.9589L5.37435 16.064L5.26731 15.9589ZM5.26731 15.9589L1.46524 19.8318C1.46518 19.8319 1.46513 19.8319 1.46507 19.832C0.715535 20.5911 0.630497 21.7859 1.32255 22.4908L1.49424 22.6657C1.80435 22.9816 2.22043 23.15 2.67332 23.15H2.67354H2.67376H2.67398H2.6742H2.67442H2.67464H2.67487H2.67509H2.67531H2.67553H2.67575H2.67597H2.6762H2.67642H2.67664H2.67686H2.67709H2.67731H2.67753H2.67775H2.67798H2.6782H2.67842H2.67864H2.67887H2.67909H2.67931H2.67954H2.67976H2.67998H2.68021H2.68043H2.68065H2.68088H2.6811H2.68133H2.68155H2.68177H2.682H2.68222H2.68245H2.68267H2.6829H2.68312H2.68335H2.68357H2.6838H2.68402H2.68425H2.68447H2.6847H2.68492H2.68515H2.68537H2.6856H2.68582H2.68605H2.68627H2.6865H2.68673H2.68695H2.68718H2.6874H2.68763H2.68786H2.68808H2.68831H2.68854H2.68876H2.68899H2.68922H2.68944H2.68967H2.6899H2.69012H2.69035H2.69058H2.6908H2.69103H2.69126H2.69149H2.69171H2.69194H2.69217H2.6924H2.69262H2.69285H2.69308H2.69331H2.69353H2.69376H2.69399H2.69422H2.69445H2.69468H2.6949H2.69513H2.69536H2.69559H2.69582H2.69605H2.69627H2.6965H2.69673H2.69696H2.69719H2.69742H2.69765H2.69788H2.69811H2.69833H2.69856H2.69879H2.69902H2.69925H2.69948H2.69971H2.69994H2.70017H2.7004H2.70063H2.70086H2.70109H2.70132H2.70155H2.70178H2.70201H2.70224H2.70247H2.7027H2.70293H2.70316H2.70339H2.70362H2.70385H2.70408H2.70431H2.70454H2.70477H2.705H2.70523H2.70546H2.70569H2.70592H2.70616H2.70639H2.70662H2.70685H2.70708H2.70731H2.70754H2.70777H2.708H2.70823H2.70847H2.7087H2.70893H2.70916H2.70939H2.70962H2.70985H2.71008H2.71032H2.71055H2.71078H2.71101H2.71124H2.71147H2.71171H2.71194H2.71217H2.7124H2.71263H2.71286H2.7131H2.71333H2.71356H2.71379H2.71402H2.71426H2.71449H2.71472H2.71495H2.71518H2.71542H2.71565H2.71588H2.71611H2.71635H2.71658H2.71681H2.71704H2.71727H2.71751H2.71774H2.71797H2.7182H2.71844H2.71867H2.7189H2.71913H2.71937H2.7196H2.71983H2.72006H2.7203H2.72053H2.72076H2.72099H2.72123H2.72146H2.72169H2.72193H2.72216H2.72239H2.72262H2.72286H2.72309H2.72332H2.72356H2.72379H2.72402H2.72425H2.72449H2.72472H2.72495H2.72519H2.72542H2.72565H2.72588H2.72612H2.72635H2.72658H2.72682H2.72705H2.72728H2.72752H2.72775H2.72798H2.72821H2.72845H2.72868H2.72891H2.72915H2.72938H2.72961H2.72985H2.73008H2.73031H2.73055H2.73078H2.73101H2.73124H2.73148H2.73171H2.73194H2.73218H2.73241H2.73264H2.73288H2.73311H2.73334H2.73358H2.73381H2.73404H2.73428H2.73451H2.73474H2.73497H2.73521H2.73544H2.73567H2.73591H2.73614H2.73637H2.73661H2.73684H2.73707H2.7373H2.73754H2.73777H2.738H2.73824H2.73847H2.7387H2.73894H2.73917H2.7394H2.73963H2.73987H2.7401H2.74033H2.74057H2.7408H2.74103H2.74126H2.7415H2.74173H2.74196H2.7422H2.74243H2.74266H2.74289H2.74313H2.74336H2.74359H2.74382H2.74406H2.74429H2.74452H2.74475H2.74499H2.74522H2.74545H2.74568H2.74592H2.74615H2.74638H2.74661H2.74685H2.74708H2.74731H2.74754H2.74778H2.74801H2.74824H2.74847H2.7487H2.74894H2.74917H2.7494H2.74963H2.74986H2.7501H2.75033H2.75056H2.75079H2.75102H2.75126H2.75149H2.75172H2.75195H2.75218H2.75241H2.75265H2.75288H2.75311H2.75334H2.75357H2.7538H2.75404H2.75427H2.7545H2.75473H2.75496H2.75519H2.75542H2.75565H2.75589H2.75612H2.75635H2.75658H2.75681H2.75704H2.75727H2.7575H2.75773H2.75796H2.75819H2.75843H2.75866H2.75889H2.75912H2.75935H2.75958H2.75981H2.76004H2.76027H2.7605H2.76073H2.76096H2.76119H2.76142H2.76165H2.76188H2.76211H2.76234H2.76257H2.7628H2.76303H2.76326H2.76349H2.76372H2.76395H2.76418H2.76441H2.76464H2.76487H2.7651H2.76532H2.76555H2.76578H2.76601H2.76624H2.76647H2.7667H2.76693H2.76716H2.76739H2.76761H2.76784H2.76807H2.7683H2.76853H2.76876H2.76898H2.76921H2.76944H2.76967H2.7699H2.77013H2.77035H2.77058H2.77081H2.77104H2.77126H2.77149H2.77172H2.77195H2.77218H2.7724H2.77263H2.77286H2.77308H2.77331H2.77354H2.77377H2.77399H2.77422H2.77445H2.77467H2.7749H2.77513H2.77535H2.77558H2.77581H2.77603H2.77626H2.77648H2.77671H2.77694H2.77716H2.77739H2.77761H2.77784H2.77807H2.77829H2.77852H2.77874H2.77897H2.77919H2.77942H2.77964H2.77987H2.78009H2.78032H2.78054H2.78077H2.78099H2.78122H2.78144H2.78167H2.78189H2.78211H2.78234H2.78256H2.78279H2.78301H2.78323H2.78346H2.78368H2.7839H2.78413H2.78435H2.78458H2.7848H2.78502H2.78524H2.78547H2.78569H2.78591H2.78614H2.78636H2.78658H2.7868H2.78703H2.78725H2.78747H2.78769H2.78791H2.78814H2.78836H2.78858H2.7888H2.78902H2.78924H2.78947H2.78969H2.78991H2.79013H2.79035H2.79057V23.1503L2.80045 23.1497C3.29193 23.1172 3.75717 22.895 4.11622 22.5292L8.04423 18.528C8.18526 18.3843 8.18526 18.1586 8.04423 18.015C7.90168 17.8698 7.67537 17.8698 7.53282 18.015L3.60481 22.0162C3.36557 22.2599 3.06038 22.4008 2.75107 22.4238C2.45137 22.4424 2.18986 22.3446 2.00564 22.157L1.83395 21.9821C1.44502 21.5859 1.4778 20.853 1.97633 20.3452L5.77871 16.4719C5.91974 16.3283 5.91974 16.1026 5.77871 15.9589L5.67193 16.0637L5.77871 15.9589C5.63616 15.8137 5.40985 15.8137 5.26731 15.9589Z" stroke="white" stroke-width="0.3"/>
<path d="M6.37981 16.5883C6.28803 16.8084 6.44363 17.0082 6.63909 17.0656C6.68199 17.0794 6.72875 17.0854 6.7682 17.0854C6.92181 17.0854 7.09567 17.0071 7.16225 16.8427C7.81476 15.2384 9.63753 14.1398 11.7161 14.1398H13.7623C15.7668 14.1398 17.5704 15.1863 18.2646 16.7147C18.3507 16.9162 18.5947 16.9849 18.7855 16.9254C18.9887 16.8661 19.1323 16.655 19.0329 16.439C18.2066 14.6098 16.0777 13.4008 13.7623 13.4008H11.7161C9.31466 13.4008 7.16248 14.6725 6.37981 16.5883Z" fill="white" stroke="white" stroke-width="0.3"/>
<path d="M12.6925 18.8748C17.5016 18.8748 21.4002 14.9762 21.4002 10.1671C21.4002 5.35798 17.5016 1.45941 12.6925 1.45941C7.88338 1.45941 3.98481 5.35798 3.98481 10.1671C3.98481 14.9762 7.88338 18.8748 12.6925 18.8748Z" stroke="white" stroke-width="1.2"/>
<path d="M8.87539 9.92283C8.87539 12.1524 10.5779 13.9839 12.6921 13.9839C14.8062 13.9839 16.5087 12.1524 16.5087 9.92283C16.5087 7.69322 14.8062 5.86172 12.6921 5.86172C10.5779 5.86172 8.87539 7.69322 8.87539 9.92283ZM9.68607 9.92283C9.68607 8.12572 11.0435 6.68251 12.6921 6.68251C14.3407 6.68251 15.698 8.12572 15.698 9.92283C15.698 11.7199 14.3407 13.1632 12.6921 13.1632C11.0435 13.1632 9.68607 11.7199 9.68607 9.92283Z" fill="white" stroke="white" stroke-width="0.3"/>
</svg>
