<svg width="25" height="25" viewBox="0 0 25 25" fill="none" xmlns="http://www.w3.org/2000/svg">
<path d="M19.9419 15.1328C20.117 14.695 20.6423 14.2573 21.0801 14.1697L22.1307 13.9946C22.5685 13.9071 23.0062 13.4693 23.0062 13.0315V11.9809C23.0062 11.4556 22.656 11.0178 22.1307 11.0178L21.0801 10.8427C20.6423 10.7552 20.117 10.3174 19.9419 9.87967L19.5917 9.00415C19.329 8.56639 19.4166 7.95353 19.6793 7.51577L20.2921 6.64025C20.5548 6.29004 20.5548 5.67718 20.2046 5.32697L19.5041 4.62656C19.1539 4.27635 18.5411 4.27635 18.1909 4.539L17.3154 5.23942C16.9651 5.50207 16.2647 5.58963 15.827 5.41452C15.3892 5.23942 14.1635 4.45145 14.0759 3.92614L13.9008 2.87552C13.8133 2.43776 13.3755 2 12.9378 2H11.8871C11.3618 2 10.9241 2.35021 10.9241 2.87552L10.749 4.01369C10.749 4.45145 10.3988 4.97676 9.87344 5.06432L8.99792 5.41452C8.64772 5.67718 7.9473 5.58963 7.59709 5.32697L6.72158 4.62656C6.37137 4.3639 5.7585 4.45145 5.4083 4.71411L4.70788 5.41452C4.35767 5.76473 4.35767 6.37759 4.62033 6.7278L5.23319 7.60332C5.49585 7.95353 5.5834 8.65394 5.32075 9.0917L5.05809 9.87967C4.88299 10.3174 4.35767 10.7552 3.91992 10.8427L2.86929 11.0178C2.43153 11.1054 1.99377 11.5432 1.99377 11.9809V13.0315C1.99377 13.4693 2.34398 13.9946 2.86929 13.9946L3.91992 14.0822C4.35767 14.1697 4.88299 14.6075 5.05809 15.0452L5.4083 15.9207C5.67095 16.3585 5.5834 17.0589 5.32075 17.4091L4.70788 18.2846C4.44523 18.6349 4.44523 19.2477 4.79543 19.5979L5.49585 20.2983C5.84606 20.6485 6.45892 20.6485 6.80913 20.3859L7.68465 19.773C8.03485 19.5104 8.73527 19.4228 9.17303 19.6855C9.61079 19.9481 10.8365 20.6485 10.9241 21.1739L11.0992 22.2245C11.1867 22.6622 11.6245 23.1 12.0622 23.1H13.1129C13.6382 23.1 14.0759 22.7498 14.0759 22.2245L14.251 21.1739C14.3386 20.7361 14.7763 20.2108 15.2141 20.0357L16.0021 19.6855C16.4398 19.4228 17.0527 19.5104 17.4905 19.773L18.366 20.3859C18.7162 20.6485 19.329 20.6485 19.6793 20.2983L20.3797 19.5979C20.7299 19.2477 20.7299 18.6349 20.4672 18.2846L19.8544 17.4091C19.5917 17.0589 19.5041 16.3585 19.7668 15.9207C19.8544 15.483 19.9419 15.1328 19.9419 15.1328Z" stroke="white" stroke-width="1.2" stroke-miterlimit="10" stroke-linecap="round"/>
<path d="M12.5 16.4461C14.6759 16.4461 16.4398 14.6821 16.4398 12.5062C16.4398 10.3303 14.6759 8.56639 12.5 8.56639C10.3241 8.56639 8.56015 10.3303 8.56015 12.5062C8.56015 14.6821 10.3241 16.4461 12.5 16.4461Z" stroke="white" stroke-width="1.2" stroke-miterlimit="10" stroke-linecap="round"/>
</svg>
