<svg width="21" height="21" viewBox="0 0 21 21" fill="none" xmlns="http://www.w3.org/2000/svg">
<path d="M8.40993 16.094C9.08759 16.094 9.99114 16.4299 10.4429 16.7659L14.0571 19.4532C14.3959 19.5651 14.6218 19.4532 14.6218 19.1173V1.7617C14.6218 1.42578 14.3959 1.31381 14.0571 1.42578L10.33 5.23281C9.87819 5.68069 8.97465 6.01661 8.40993 6.01661H5.81224C2.98866 6.01661 0.729797 8.25603 0.729797 11.0553C0.729797 13.8546 2.98866 16.094 5.81224 16.094H8.40993Z" stroke="white" stroke-width="1.2" stroke-miterlimit="10" stroke-linecap="round" stroke-linejoin="round"/>
<path d="M17.0117 7.36067C18.9318 7.36067 20.4 8.8163 20.4 10.7198C20.4 12.6233 18.9318 14.0789 17.0117 14.0789" stroke="white" stroke-width="1.2" stroke-miterlimit="10" stroke-linecap="round" stroke-linejoin="round"/>
</svg>
