<svg width="24" height="16" viewBox="0 0 24 16" fill="none" xmlns="http://www.w3.org/2000/svg">
<path d="M13.7228 12.9424H8.37346" stroke="white" stroke-width="1.2" stroke-miterlimit="10" stroke-linecap="round" stroke-linejoin="round"/>
<path d="M15.1728 12.9424H11.7274" stroke="white" stroke-width="1.2" stroke-miterlimit="10" stroke-linecap="round" stroke-linejoin="round"/>
<path d="M17.4399 15.072C18.6918 15.072 19.7066 14.0786 19.7066 12.8531C19.7066 11.6277 18.6918 10.6342 17.4399 10.6342C16.1881 10.6342 15.1732 11.6277 15.1732 12.8531C15.1732 14.0786 16.1881 15.072 17.4399 15.072Z" stroke="white" stroke-width="1.2" stroke-miterlimit="10" stroke-linecap="round" stroke-linejoin="round"/>
<path d="M6.10688 15.072C7.35872 15.072 8.37354 14.0786 8.37354 12.8531C8.37354 11.6277 7.35872 10.6342 6.10688 10.6342C4.85503 10.6342 3.84021 11.6277 3.84021 12.8531C3.84021 14.0786 4.85503 15.072 6.10688 15.072Z" stroke="white" stroke-width="1.2" stroke-miterlimit="10" stroke-linecap="round" stroke-linejoin="round"/>
<path d="M19.7069 12.8534H22.0642C22.5175 12.8534 22.8802 12.4983 22.8802 12.0545V10.9007V8.14927C22.8802 6.99544 21.9735 6.10788 20.7949 6.10788H14.9922V1.58131C14.9922 1.04877 14.5389 0.604988 13.9949 0.604988H2.11754C1.57354 0.604988 1.12021 1.04877 1.12021 1.58131V12.0545C1.12021 12.5871 1.57354 13.0309 2.11754 13.0309H3.93088" stroke="white" stroke-width="1.2" stroke-miterlimit="10" stroke-linecap="round" stroke-linejoin="round"/>
<path d="M15.0833 1.67038H17.35C17.9847 1.67038 18.6193 2.11416 18.982 2.73545L21.2487 6.10819" stroke="white" stroke-width="1.2" stroke-miterlimit="10" stroke-linecap="round" stroke-linejoin="round"/>
</svg>
