<?xml version="1.0" encoding="utf-8"?>
<!-- Generator: Adobe Illustrator 24.0.1, SVG Export Plug-In . SVG Version: 6.00 Build 0)  -->
<svg version="1.1" id="Layer_1" xmlns="http://www.w3.org/2000/svg" xmlns:xlink="http://www.w3.org/1999/xlink" x="0px" y="0px"
	 viewBox="0 0 48 48" style="enable-background:new 0 0 48 48;" xml:space="preserve">
<style type="text/css">
	.st0{fill:#292929;}
</style>
<g>
	<path class="st0" d="M38.87,47.78H9.12c-2.85,0-5.17-2.34-5.17-5.22V14.39c0-2.88,2.32-5.23,5.17-5.23h29.75
		c2.85,0,5.17,2.34,5.17,5.23v28.16C44.04,45.43,41.73,47.78,38.87,47.78z M9.12,13.09c-0.67,0-1.24,0.6-1.24,1.3v28.16
		c0,0.7,0.57,1.3,1.24,1.3h29.75c0.67,0,1.24-0.59,1.24-1.3V14.39c0-0.7-0.57-1.3-1.24-1.3H9.12z"/>
	<g>
		<path class="st0" d="M16.82,18.63c-1.62,0-2.94-1.32-2.94-2.94s1.32-2.94,2.94-2.94c1.62,0,2.94,1.32,2.94,2.94
			S18.45,18.63,16.82,18.63z M16.82,14.7c-0.54,0-0.98,0.44-0.98,0.98c0,0.54,0.44,0.98,0.98,0.98c0.54,0,0.98-0.44,0.98-0.98
			C17.81,15.15,17.37,14.7,16.82,14.7z"/>
		<path class="st0" d="M31.18,18.63c-1.62,0-2.94-1.32-2.94-2.94s1.32-2.94,2.94-2.94c1.62,0,2.94,1.32,2.94,2.94
			S32.8,18.63,31.18,18.63z M31.18,14.7c-0.54,0-0.98,0.44-0.98,0.98c0,0.54,0.44,0.98,0.98,0.98c0.54,0,0.98-0.44,0.98-0.98
			C32.16,15.15,31.72,14.7,31.18,14.7z"/>
		<path class="st0" d="M31.05,16.45c-1.08,0-1.96-0.88-1.96-1.96v-3.75c0-3.01-0.88-6.59-5.08-6.59s-5.08,3.59-5.08,6.59v3.75
			c0,1.08-0.88,1.96-1.96,1.96s-1.96-0.88-1.96-1.96v-3.75c0-7.75,4.65-10.52,9-10.52s9,2.76,9,10.52v3.75
			C33.02,15.57,32.14,16.45,31.05,16.45z"/>
	</g>
</g>
</svg>
