<svg width="25" height="25" viewBox="0 0 25 25" fill="none" xmlns="http://www.w3.org/2000/svg">
<path d="M11.9496 22.7396C11.6288 22.7396 11.3079 22.6662 11.0513 22.4967C7.34335 19.9896 4.85002 17.6796 2.96168 14.9983C1.3896 12.7892 0.844182 10.6487 1.29793 8.45333C1.76543 6.13875 3.33293 4.32375 5.49168 3.595C7.6871 2.85708 10.0888 3.37042 11.9129 4.96542C11.9359 4.98833 11.9634 5.00667 11.9863 5.02958C13.0084 4.145 14.0304 3.61792 15.1534 3.39792C17.3763 2.96708 19.5259 3.63625 21.0521 5.24042C22.6242 6.89042 23.22 9.26 22.6471 11.5792C22.1567 13.5225 21.0567 15.035 20.1584 16.1396C18.3204 18.3808 16.0517 20.3792 13.0129 22.4371C12.7425 22.625 12.3438 22.7396 11.9496 22.7396ZM12.1192 20.8971H12.1329H12.1192ZM7.49918 5.18542C7.0271 5.18542 6.5596 5.25875 6.10127 5.41458C4.60252 5.91875 3.51168 7.1975 3.1771 8.83375C2.83335 10.5021 3.26418 12.1062 4.5246 13.8846C4.5246 13.8846 4.5246 13.8892 4.52918 13.8892C6.25252 16.3367 8.54877 18.4679 11.9679 20.7917C14.8279 18.885 16.9592 17.0104 18.6688 14.925C19.8329 13.4996 20.4654 12.3583 20.7817 11.1162C21.1942 9.44792 20.7771 7.74292 19.6588 6.56958C18.5954 5.45125 17.0875 4.98375 15.52 5.28625C14.5392 5.47875 13.6638 6.01042 12.6784 7.01417C12.3209 7.38542 11.7342 7.40375 11.3492 7.06C11.2209 6.94542 11.0971 6.83083 10.9779 6.72083C10.8634 6.61083 10.7534 6.51 10.6388 6.40917C9.7221 5.61167 8.61293 5.18542 7.49918 5.18542Z" fill="#292929"/>
</svg>
