<svg width="55" height="55" viewBox="0 0 55 55" fill="none" xmlns="http://www.w3.org/2000/svg">
<path d="M26.8809 51.0208C26.1225 51.0208 25.3642 50.8475 24.7575 50.4467C15.9934 44.5208 10.1 39.0608 5.63669 32.7233C1.92086 27.5017 0.631693 22.4425 1.70419 17.2533C2.80919 11.7825 6.51419 7.4925 11.6167 5.77C16.8059 4.02584 22.4825 5.23917 26.7942 9.00917C26.8484 9.06334 26.9134 9.10667 26.9675 9.16084C29.3834 7.07 31.7992 5.82417 34.4534 5.30417C39.7075 4.28584 44.7884 5.8675 48.3959 9.65917C52.1117 13.5592 53.52 19.16 52.1659 24.6417C51.0067 29.235 48.4067 32.81 46.2834 35.4208C41.9392 40.7183 36.5767 45.4417 29.3942 50.3058C28.755 50.75 27.8125 51.0208 26.8809 51.0208ZM27.2817 46.6658H27.3142H27.2817ZM16.3617 9.52917C15.2459 9.52917 14.1409 9.7025 13.0575 10.0708C9.51503 11.2625 6.93669 14.285 6.14586 18.1525C5.33336 22.0958 6.35169 25.8875 9.33086 30.0908C9.33086 30.0908 9.33086 30.1017 9.34169 30.1017C13.415 35.8867 18.8425 40.9242 26.9242 46.4167C33.6842 41.91 38.7217 37.4792 42.7625 32.55C45.5142 29.1808 47.0092 26.4833 47.7567 23.5475C48.7317 19.6042 47.7459 15.5742 45.1025 12.8008C42.5892 10.1575 39.025 9.0525 35.32 9.7675C33.0017 10.2225 30.9325 11.4792 28.6034 13.8517C27.7584 14.7292 26.3717 14.7725 25.4617 13.96C25.1584 13.6892 24.8659 13.4183 24.5842 13.1583C24.3134 12.8983 24.0534 12.66 23.7825 12.4217C21.6159 10.5367 18.9942 9.52917 16.3617 9.52917Z" fill="#292929"/>
</svg>
