<svg width="16" height="15" viewBox="0 0 16 15" fill="none" xmlns="http://www.w3.org/2000/svg">
<rect width="16" height="15" fill="#E5E5E5"/>
<path d="M7.96827 14.1982C7.76411 14.1982 7.55994 14.1515 7.39661 14.0436C5.03702 12.4482 3.45036 10.9782 2.24869 9.27191C1.24827 7.86607 0.90119 6.50399 1.18994 5.10691C1.48744 3.63399 2.48494 2.47899 3.85869 2.01524C5.25577 1.54566 6.78411 1.87232 7.94494 2.88732C7.95952 2.90191 7.97702 2.91357 7.99161 2.92816C8.64202 2.36524 9.29244 2.02982 10.007 1.88982C11.4216 1.61566 12.7895 2.04149 13.7608 3.06232C14.7612 4.11232 15.1404 5.62024 14.7758 7.09607C14.4637 8.33274 13.7637 9.29524 13.192 9.99816C12.0224 11.4244 10.5787 12.6961 8.64494 14.0057C8.47286 14.1252 8.21911 14.1982 7.96827 14.1982ZM8.07619 13.0257H8.08494H8.07619ZM5.13619 3.02732C4.83577 3.02732 4.53827 3.07399 4.24661 3.17316C3.29286 3.49399 2.59869 4.30774 2.38577 5.34899C2.16702 6.41066 2.44119 7.43149 3.24327 8.56316C3.24327 8.56316 3.24327 8.56607 3.24619 8.56607C4.34286 10.1236 5.80411 11.4798 7.97994 12.9586C9.79994 11.7452 11.1562 10.5523 12.2441 9.22524C12.9849 8.31816 13.3874 7.59191 13.5887 6.80149C13.8512 5.73982 13.5858 4.65482 12.8741 3.90816C12.1974 3.19649 11.2379 2.89899 10.2404 3.09149C9.61619 3.21399 9.05911 3.55232 8.43202 4.19107C8.20452 4.42732 7.83119 4.43899 7.58619 4.22024C7.50452 4.14732 7.42577 4.07441 7.34994 4.00441C7.27702 3.93441 7.20702 3.87024 7.13411 3.80607C6.55077 3.29857 5.84494 3.02732 5.13619 3.02732Z" fill="#292929"/>
</svg>
