<svg width="88" height="18" viewBox="0 0 88 18" fill="none" xmlns="http://www.w3.org/2000/svg">
<path d="M26.1247 16.966H24.5367C24.1719 16.966 23.8285 16.8557 23.5066 16.635C23.1847 16.4144 22.9487 16.1276 22.777 15.7967L18.1202 5.58206C18.0344 5.36144 17.9915 5.18494 17.9915 5.03051C17.9915 4.47897 18.3134 4.12598 18.8713 4.12598H20.9529C21.3177 4.12598 21.6825 4.23629 22.0044 4.4569C22.3263 4.67752 22.5624 4.96433 22.7126 5.31732L25.3736 11.5388L28.0132 5.31732C28.1634 4.96433 28.3994 4.67752 28.7213 4.4569C29.0432 4.23629 29.4081 4.12598 29.7729 4.12598H31.8545C32.3695 4.12598 32.5626 4.41278 32.6485 4.61134C32.7129 4.72165 32.7343 4.87608 32.7343 5.05257C32.7343 5.20701 32.6914 5.3835 32.6056 5.58206L27.9273 15.7967C27.7771 16.1497 27.5196 16.4144 27.1977 16.635C26.8329 16.8557 26.4895 16.966 26.1247 16.966Z" fill="white"/>
<path d="M14.8986 2.9145C13.4823 1.63491 11.1861 0.995117 8.05293 0.995117H2.00126C1.72228 0.995117 1.48623 1.10543 1.27163 1.30398C1.07849 1.50254 0.971191 1.76728 0.971191 2.07615V15.931C0.971191 16.2178 1.07849 16.4605 1.27163 16.659C1.46477 16.8576 1.72228 16.9458 2.00126 16.9458H8.05293C11.1861 16.9458 13.4608 16.306 14.8986 15.0265C16.3364 13.7469 17.0446 11.7172 17.0446 8.95945C17.0446 6.22378 16.3364 4.21615 14.8986 2.9145ZM12.7526 9.20213L5.90695 13.0409C5.60651 13.2174 5.22023 12.9306 5.28461 12.5776L6.61512 5.16481C6.65804 4.85594 7.0014 4.72357 7.25891 4.878L12.7741 8.45202C13.0316 8.62852 13.0316 9.04769 12.7526 9.20213Z" fill="white"/>
<path d="M40.4786 17.0548H34.9634V4.10449H39.8562C40.7146 4.10449 41.4442 4.2148 42.0666 4.41336C42.6889 4.63398 43.1396 4.89872 43.4615 5.27377C44.0194 5.93563 44.2984 6.68573 44.2984 7.52408C44.2984 8.53893 43.9765 9.28903 43.3542 9.77439C43.1396 9.95088 42.9894 10.0612 42.9035 10.1053C42.8177 10.1494 42.6675 10.2156 42.4529 10.3259C43.2254 10.5024 43.8477 10.8554 44.3199 11.407C44.792 11.9585 45.0066 12.6424 45.0066 13.4587C45.0066 14.3633 44.7061 15.1575 44.1053 15.8414C43.4186 16.6577 42.2168 17.0548 40.4786 17.0548ZM37.7746 9.35521H39.1051C39.8777 9.35521 40.4571 9.26697 40.8434 9.09047C41.2296 8.91398 41.4013 8.53893 41.4013 7.96532C41.4013 7.39171 41.2296 7.01666 40.8863 6.8181C40.5429 6.64161 39.9421 6.5313 39.1266 6.5313H37.7746V9.35521ZM37.7746 14.6059H39.706C40.5 14.6059 41.1223 14.4956 41.5086 14.2971C41.9164 14.0985 42.1095 13.7014 42.1095 13.0837C42.1095 12.488 41.8949 12.0909 41.4657 11.8923C41.0365 11.6938 40.3498 11.6055 39.427 11.6055H37.7746V14.6059Z" fill="#E0B600"/>
<path d="M57.5828 15.2665C56.3166 16.5461 54.7501 17.1859 52.8831 17.1859C51.0161 17.1859 49.4495 16.5461 48.1834 15.2665C46.9172 13.9869 46.2734 12.3985 46.2734 10.5011C46.2734 8.60382 46.9172 7.01537 48.1834 5.73579C49.4495 4.4562 51.0161 3.81641 52.8831 3.81641C54.7501 3.81641 56.3166 4.4562 57.5828 5.73579C58.8489 7.01537 59.4927 8.60382 59.4927 10.5011C59.4927 12.3985 58.8489 13.9869 57.5828 15.2665ZM56.6385 10.5011C56.6385 9.35393 56.2737 8.36114 55.5655 7.54486C54.8359 6.72857 53.9561 6.33146 52.9045 6.33146C51.853 6.33146 50.9731 6.72857 50.2435 7.54486C49.5139 8.36114 49.1705 9.35393 49.1705 10.5011C49.1705 11.6484 49.5353 12.6411 50.2435 13.4354C50.9731 14.2517 51.853 14.6488 52.9045 14.6488C53.9561 14.6488 54.8359 14.2517 55.5655 13.4354C56.2737 12.6411 56.6385 11.6484 56.6385 10.5011Z" fill="#E0B600"/>
<path d="M72.0891 15.2665C70.823 16.5461 69.2564 17.1859 67.3894 17.1859C65.5224 17.1859 63.9558 16.5461 62.6897 15.2665C61.4236 13.9869 60.7798 12.3985 60.7798 10.5011C60.7798 8.60382 61.4236 7.01537 62.6897 5.73579C63.9558 4.4562 65.5224 3.81641 67.3894 3.81641C69.2564 3.81641 70.823 4.4562 72.0891 5.73579C73.3552 7.01537 73.999 8.60382 73.999 10.5011C73.999 12.3985 73.3552 13.9869 72.0891 15.2665ZM71.1234 10.5011C71.1234 9.35393 70.7586 8.36114 70.0504 7.54486C69.3208 6.72857 68.4409 6.33146 67.3894 6.33146C66.3379 6.33146 65.458 6.72857 64.7284 7.54486C63.9988 8.36114 63.6554 9.35393 63.6554 10.5011C63.6554 11.6484 64.0202 12.6411 64.7284 13.4354C65.458 14.2517 66.3379 14.6488 67.3894 14.6488C68.4409 14.6488 69.3208 14.2517 70.0504 13.4354C70.7586 12.6411 71.1234 11.6484 71.1234 10.5011Z" fill="#E0B600"/>
<path d="M75.9929 4.10449H78.8042V9.4214L83.5682 4.10449H87.0233L82.0231 9.81851C82.4523 10.4362 83.2463 11.5835 84.4266 13.2602C85.5854 14.9369 86.4653 16.1944 87.0447 17.0327H83.7614L80.0703 11.9144L78.8042 13.3484V17.0107H75.9929V4.10449Z" fill="#E0B600"/>
</svg>
