<svg width="24" height="24" viewBox="0 0 24 24" fill="none" xmlns="http://www.w3.org/2000/svg">
<path d="M12.0004 0C5.38266 0 0 5.38265 0 12C0 18.6173 5.38266 23.9999 12.0008 23.9999C18.6173 23.9999 24 18.6173 24 12C24 5.38265 18.6173 0 12.0004 0ZM8.72029 9.71842L8.74444 9.69207C8.84229 9.62098 8.88992 9.50975 8.87214 9.3933C8.63046 7.93917 8.78911 7.33284 8.84264 7.18057C9.265 5.88426 10.5908 5.28473 10.851 5.17843C10.9065 5.15661 11.0088 5.12566 11.1127 5.10961L11.1436 5.1024L11.3566 5.09108L11.3583 5.10426L11.4077 5.09952C11.4516 5.09479 11.4936 5.08902 11.5464 5.07791L11.5934 5.06789C11.6349 5.0685 12.151 5.13376 12.9179 5.36885L13.4507 5.55221C14.4252 5.84 14.8735 6.37545 14.9567 6.48339C15.7371 7.36749 15.5278 8.7025 15.3345 9.41924C15.3127 9.50371 15.3259 9.59065 15.3737 9.66277L15.4178 9.71719C15.4743 9.79404 15.525 10.0903 15.3556 10.7197C15.3234 10.9108 15.2526 11.0662 15.148 11.1708C15.1093 11.2133 15.082 11.2675 15.0722 11.3287C14.8084 12.8749 13.4232 14.6047 11.9627 14.6047C10.7234 14.6047 9.30905 13.0134 9.0546 11.3299C9.04493 11.267 9.01879 11.2116 8.97528 11.164C8.8694 11.0542 8.80181 10.896 8.76105 10.662C8.63664 10.2215 8.62449 9.86658 8.72029 9.71842ZM5.93834 16.424C5.99207 16.356 6.29167 16.0049 6.89759 15.7738C7.43036 15.6101 8.74732 15.1725 9.46715 14.6509C9.50091 14.6327 9.53412 14.5973 9.56171 14.5693C9.62827 14.4976 9.73004 14.388 9.85053 14.2763L9.91771 14.2125L9.98613 14.2768C10.6203 14.8747 11.322 15.2022 11.9621 15.2022C12.6346 15.2022 13.3279 14.9113 13.9687 14.36L14.0189 14.3172L14.1548 14.3831C14.2763 14.4943 14.4865 14.6472 14.5842 14.6937L14.7094 14.7548L14.6963 14.7683L14.752 14.8021C14.8702 14.8734 14.9988 14.9426 15.1496 15.0172C15.3021 15.0844 15.4298 15.1338 15.5616 15.1775C15.6729 15.2137 16.2654 15.4124 16.9395 15.7239L17.0681 15.7626C17.7273 16.0152 18.0199 16.3659 18.0488 16.4025C18.8312 17.562 19.1312 19.7257 19.2429 20.9314C17.1991 22.5907 14.6287 23.5042 12.0013 23.5042C9.37259 23.5042 6.80186 22.5907 4.75903 20.9305C4.86841 19.7282 5.16588 17.5715 5.93834 16.424Z" fill="#C4C4C4"/>
</svg>
