<svg width="157" height="50" viewBox="0 0 157 50" fill="none" xmlns="http://www.w3.org/2000/svg">
<path d="M6.14847 35.8048C0.958816 35.8048 0 34.6156 0 29.8225V8.61716C0 3.82408 0.958816 2.67269 6.14847 2.67269H18.9631C21.2779 2.67269 22.0365 4.43761 22.0365 5.8933C22.0365 7.38846 21.2388 9.15338 18.9631 9.15338H9.06236C8.34446 9.15338 8.02377 9.38366 8.02377 10.2653V28.2879C8.02377 29.1695 8.34284 29.3998 9.06236 29.3998H21.4781C23.793 29.3998 24.4718 31.163 24.4718 32.6204C24.4718 34.1155 23.7523 35.8032 21.4781 35.8032H6.14847V35.8048ZM30.6463 37.3394C28.6701 37.3394 27.0682 35.7209 27.0682 33.7241V5.57584C27.0682 3.0839 28.9452 1.77954 31.0598 1.77954C33.176 1.77954 35.0513 3.0839 35.0513 5.57584V33.7224C35.0513 35.7193 33.4495 37.3378 31.4733 37.3378H30.6463V37.3394Z" fill="#536EB4"/>
<path d="M114.091 30.7652C116.567 30.7652 117.524 32.4528 117.524 34.0253C117.524 35.6356 116.526 37.2459 114.091 37.2459H83.5897C81.1544 37.2459 80.1565 35.6356 80.1565 34.0253C80.1565 32.4528 81.1153 30.7652 83.5897 30.7652H114.091ZM102.313 9.46119C107.765 9.58455 113.32 12.537 115.652 18.8236C116.561 21.2712 114.746 23.8799 112.159 23.8799H112.115C110.243 23.8799 108.584 22.7351 107.822 21.0096C106.289 17.539 102.994 15.552 99.1603 15.6738C95.5269 20.4668 89.8179 23.7648 84.5892 23.8799C82.6325 23.9177 80.9965 22.8058 80.7962 20.9274C80.596 19.0868 81.6346 17.5917 83.6711 17.1689C88.9405 16.057 93.772 11.7623 94.6104 5.31947C94.9294 2.90319 96.8861 1.71561 99.1212 1.86858C101.436 2.06103 102.953 3.51672 102.873 5.93299C102.833 7.12222 102.633 8.31144 102.313 9.46119Z" fill="#F3AA1E"/>
<path d="M124.425 6.8211C122.149 6.8211 121.231 5.74702 121.231 4.21402C121.231 2.75669 122.149 1.64478 124.425 1.64478H150.174C153.528 1.64478 154.885 2.41127 154.885 5.2108V9.46766C154.885 12.1899 154.366 14.1834 153.687 15.45H154.127C156.243 15.45 157.001 16.7148 157.001 18.0192C157.001 19.3992 156.204 20.5111 154.127 20.5111H142.349V21.9734H150.892C154.286 21.9734 155.364 23.1626 155.364 25.5016V28.5989C155.364 30.1072 154.154 31.3309 152.662 31.3309H130.093C129.494 31.3309 129.334 32.0481 129.334 32.4313C129.334 32.8524 129.494 33.1222 130.093 33.1222H152.994C154.55 33.1222 155.149 34.1568 155.149 35.2309C155.149 36.1503 154.591 37.3396 152.994 37.3396H125.782C122.349 37.3396 120.752 35.1157 120.752 32.5086V32.3935C120.752 29.7091 122.31 27.459 125.782 27.459H147.14V26.7681C147.14 26.4227 146.901 26.1546 146.301 26.1546H123.427C121.95 26.1546 121.151 25.0805 121.151 24.0838C121.151 23.087 121.83 21.9751 123.427 21.9751H134.286V20.5128H122.509C120.433 20.5128 119.634 19.4009 119.634 18.0209C119.634 16.7165 120.392 15.4516 122.509 15.4516H145.784C146.103 14.9532 146.342 14.3397 146.502 13.6489H123.985C121.709 13.6489 120.832 12.7277 120.832 11.1569C120.832 9.66175 121.711 8.66497 123.985 8.66497H147.019V7.59089C147.019 7.01519 146.739 6.82439 146.101 6.82439H124.425V6.8211Z" fill="#F3AA1E"/>
<path d="M58.5283 15.1753C56.2526 15.1753 54.6556 16.2872 54.6556 18.9716V24.8388H47.4686V18.9716C47.4686 16.325 45.9123 15.1753 43.6366 15.1753C41.3217 15.1753 39.645 16.2872 39.645 18.9716V42.5159C39.645 46.7333 40.8024 48.2679 45.4337 48.2679H58.5593C60.6804 48.2679 62.4011 46.5293 62.4011 44.3861V18.9716C62.3994 16.325 60.8432 15.1753 58.5283 15.1753ZM56.9575 37.4054L47.1365 42.2889C46.6416 42.557 46.0605 42.1261 46.163 41.5685L47.9814 31.8014C48.0693 31.326 48.6032 31.0892 49.0085 31.3458L56.9981 36.2063C57.4442 36.4908 57.4214 37.1537 56.9575 37.4054Z" fill="#536EB4"/>
<path d="M70.3696 49.9999C68.3933 49.9999 66.7915 48.3813 66.7915 46.3845V18.2362C66.7915 15.7443 68.6684 14.4399 70.783 14.4399C72.8993 14.4399 74.7746 15.7443 74.7746 18.2362V46.3828C74.7746 48.3797 73.1727 49.9982 71.1965 49.9982H70.3696V49.9999Z" fill="#536EB4"/>
<path d="M69.3896 10.8544H67.7487C67.5599 10.8544 67.3955 10.7886 67.2734 10.6636C67.1513 10.5402 67.0862 10.3724 67.0862 10.1833V3.44268C67.0862 3.25188 67.1529 3.0841 67.2799 2.9591C67.4052 2.83573 67.568 2.82422 67.7487 2.82422H69.3896C69.5785 2.82422 69.7445 2.83902 69.8666 2.96568C69.9887 3.09233 70.0522 3.25681 70.0522 3.44104V10.1816C70.0522 10.3724 69.9854 10.5402 69.8585 10.6652C69.7347 10.7902 69.572 10.8544 69.3896 10.8544Z" fill="#A2B8DD"/>
<path d="M69.0235 2.0429H68.1152C67.7977 2.0429 67.5389 1.95901 67.3468 1.79288C67.1547 1.62675 67.0554 1.40305 67.0554 1.13001V0.914534C67.0554 0.64149 67.1515 0.417791 67.3419 0.251661C67.5324 0.0838871 67.7928 0 68.1152 0H69.0235C69.3393 0 69.5982 0.0822423 69.7902 0.246727C69.984 0.411212 70.0816 0.634911 70.0816 0.914534V1.13001C70.0816 1.40305 69.9856 1.62675 69.7951 1.79288C69.6063 1.95737 69.3458 2.0429 69.0235 2.0429Z" fill="#A2B8DD"/>
<path d="M54.5124 10.8544H52.8715C52.6827 10.8544 52.5183 10.7886 52.3962 10.6636C52.2741 10.5402 52.209 10.3724 52.209 10.1833V3.52163C52.209 3.33083 52.2757 3.16306 52.4027 3.03805C52.528 2.91469 52.6908 2.82422 52.8715 2.82422H54.5124C54.7013 2.82422 54.8673 2.91797 54.9894 3.04627C55.1115 3.17293 55.175 3.33741 55.175 3.52163V10.1833C55.175 10.3741 55.1082 10.5418 54.9812 10.6668C54.8575 10.7902 54.6947 10.8544 54.5124 10.8544Z" fill="#A2B8DD"/>
<path d="M54.1461 2.0429H53.2377C52.9203 2.0429 52.6615 1.95901 52.4694 1.79288C52.2773 1.62675 52.178 1.40305 52.178 1.13001V0.914534C52.178 0.64149 52.274 0.417791 52.4645 0.251661C52.6549 0.0838871 52.9154 0 53.2377 0H54.1461C54.4619 0 54.7207 0.0822423 54.9128 0.246727C55.1065 0.411212 55.2042 0.634911 55.2042 0.914534V1.13001C55.2042 1.40305 55.1081 1.62675 54.9177 1.79288C54.7288 1.95737 54.4684 2.0429 54.1461 2.0429Z" fill="#A2B8DD"/>
<path d="M61.8607 10.8544H60.7847C60.5437 10.8544 60.3077 10.782 60.0879 10.6389C59.8682 10.4958 59.7038 10.3067 59.5979 10.0764L56.435 3.78981C56.3715 3.64835 56.3406 3.52992 56.3406 3.42301C56.3406 3.04963 56.562 2.82593 56.9315 2.82593H58.338C58.5887 2.82593 58.828 2.8983 59.0477 3.0414C59.2691 3.18615 59.4303 3.3786 59.5247 3.61052L61.3251 7.2374L63.1174 3.61052C63.2118 3.37695 63.373 3.18615 63.5944 3.0414C63.8158 2.89666 64.0534 2.82593 64.3041 2.82593H65.7171C66.059 2.82593 66.199 3.02331 66.2511 3.14667C66.2885 3.22727 66.3064 3.32432 66.3031 3.43452C66.2999 3.53979 66.2706 3.65493 66.2169 3.78487L66.2136 3.79145L63.0507 10.0797C62.9465 10.3083 62.7788 10.4991 62.5574 10.6422C62.336 10.782 62.1016 10.8544 61.8607 10.8544Z" fill="#A2B8DD"/>
<path d="M73.1564 2.0429H72.2481C71.9306 2.0429 71.6718 1.95901 71.4797 1.79288C71.2876 1.62675 71.1899 1.40305 71.1899 1.13001V0.914534C71.1899 0.64149 71.286 0.417791 71.4764 0.251661C71.6669 0.0838871 71.9274 0 72.2497 0H73.158C73.4738 0 73.7327 0.0822423 73.9248 0.246727C74.1185 0.411212 74.2161 0.634911 74.2161 0.914534V1.13001C74.2161 1.40305 74.1201 1.62675 73.9296 1.79288C73.7392 1.95737 73.4804 2.0429 73.1564 2.0429Z" fill="#A2B8DD"/>
<path d="M73.5227 10.8544H71.8818C71.6929 10.8544 71.5285 10.7886 71.4064 10.6636C71.2844 10.5402 71.2192 10.3724 71.2192 10.1833V3.44268C71.2192 3.25188 71.286 3.0841 71.413 2.9591C71.5383 2.83573 71.7011 2.82422 71.8818 2.82422H73.5227C73.7115 2.82422 73.8775 2.83902 73.9996 2.96568C74.1217 3.09233 74.1852 3.25681 74.1852 3.44104V10.1816C74.1852 10.3724 74.1185 10.5402 73.9915 10.6652C73.8678 10.7902 73.705 10.8544 73.5227 10.8544Z" fill="#A2B8DD"/>
<path d="M49.7656 1.3315C48.7791 0.454799 47.2001 0.015625 45.0301 0.015625H40.8383C40.643 0.015625 40.4753 0.0863533 40.3369 0.22781C40.197 0.369267 40.127 0.54362 40.127 0.750871V10.1923C40.127 10.3897 40.197 10.5541 40.3369 10.689C40.4769 10.8223 40.6446 10.8897 40.8383 10.8897H45.0301C47.2001 10.8897 48.7775 10.4522 49.7656 9.57711C50.7521 8.70205 51.2469 7.32861 51.2469 5.45513C51.2469 3.58329 50.7537 2.2082 49.7656 1.3315ZM48.3835 5.54395L43.8694 8.0326C43.5227 8.2234 43.1108 7.92239 43.1825 7.52928L43.9801 3.12767C44.0404 2.79706 44.4115 2.63093 44.6931 2.81022L48.3949 5.16563C48.5349 5.25446 48.5284 5.46335 48.3835 5.54395Z" fill="#A2B8DD"/>
</svg>
